<?xml version="1.0" encoding="UTF-8" standalone="no"?>
<!DOCTYPE svg PUBLIC "-//W3C//DTD SVG 1.1//EN"
 "http://www.w3.org/Graphics/SVG/1.1/DTD/svg11.dtd">
<!-- Generated by graphviz version 2.43.0 (0)
 -->
<!-- Title: G Pages: 1 -->
<svg width="556pt" height="484pt"
 viewBox="0.00 0.00 556.02 483.91" xmlns="http://www.w3.org/2000/svg" xmlns:xlink="http://www.w3.org/1999/xlink">
<g id="graph0" class="graph" transform="scale(1 1) rotate(0) translate(4 479.91)">
<title>G</title>
<polygon fill="white" stroke="transparent" points="-4,4 -4,-479.91 552.02,-479.91 552.02,4 -4,4"/>
<!-- board.cache_hierarchy.ruby_system.network.routers0 -->
<g id="node1" class="node">
<title>board.cache_hierarchy.ruby_system.network.routers0</title>
<path fill="#cce6fc" stroke="#000000" d="M119.65,-236.98C119.65,-236.98 149.65,-236.98 149.65,-236.98 155.65,-236.98 161.65,-242.98 161.65,-248.98 161.65,-248.98 161.65,-260.98 161.65,-260.98 161.65,-266.98 155.65,-272.98 149.65,-272.98 149.65,-272.98 119.65,-272.98 119.65,-272.98 113.65,-272.98 107.65,-266.98 107.65,-260.98 107.65,-260.98 107.65,-248.98 107.65,-248.98 107.65,-242.98 113.65,-236.98 119.65,-236.98"/>
<text text-anchor="middle" x="134.65" y="-251.28" font-family="Arial" font-size="14.00" fill="#000000">R 0</text>
</g>
<!-- board.cache_hierarchy.ruby_system.network.routers1 -->
<g id="node2" class="node">
<title>board.cache_hierarchy.ruby_system.network.routers1</title>
<path fill="#cce6fc" stroke="#000000" d="M156.43,-315.59C156.43,-315.59 186.43,-315.59 186.43,-315.59 192.43,-315.59 198.43,-321.59 198.43,-327.59 198.43,-327.59 198.43,-339.59 198.43,-339.59 198.43,-345.59 192.43,-351.59 186.43,-351.59 186.43,-351.59 156.43,-351.59 156.43,-351.59 150.43,-351.59 144.43,-345.59 144.43,-339.59 144.43,-339.59 144.43,-327.59 144.43,-327.59 144.43,-321.59 150.43,-315.59 156.43,-315.59"/>
<text text-anchor="middle" x="171.43" y="-329.89" font-family="Arial" font-size="14.00" fill="#000000">R 1</text>
</g>
<!-- board.cache_hierarchy.ruby_system.network.routers0&#45;&#45;board.cache_hierarchy.ruby_system.network.routers1 -->
<g id="edge1" class="edge">
<title>board.cache_hierarchy.ruby_system.network.routers0&#45;&#45;board.cache_hierarchy.ruby_system.network.routers1</title>
<path fill="none" stroke="#042d50" d="M143.18,-273.21C147.77,-283.03 153.54,-295.35 158.66,-306.29"/>
<polygon fill="#042d50" stroke="#042d50" points="155.54,-307.88 162.94,-315.45 161.88,-304.91 155.54,-307.88"/>
</g>
<!-- board.cache_hierarchy.ruby_system.network.routers2 -->
<g id="node3" class="node">
<title>board.cache_hierarchy.ruby_system.network.routers2</title>
<path fill="#cce6fc" stroke="#000000" d="M232.37,-357.59C232.37,-357.59 262.37,-357.59 262.37,-357.59 268.37,-357.59 274.37,-363.59 274.37,-369.59 274.37,-369.59 274.37,-381.59 274.37,-381.59 274.37,-387.59 268.37,-393.59 262.37,-393.59 262.37,-393.59 232.37,-393.59 232.37,-393.59 226.37,-393.59 220.37,-387.59 220.37,-381.59 220.37,-381.59 220.37,-369.59 220.37,-369.59 220.37,-363.59 226.37,-357.59 232.37,-357.59"/>
<text text-anchor="middle" x="247.37" y="-371.89" font-family="Arial" font-size="14.00" fill="#000000">R 2</text>
</g>
<!-- board.cache_hierarchy.ruby_system.network.routers1&#45;&#45;board.cache_hierarchy.ruby_system.network.routers2 -->
<g id="edge2" class="edge">
<title>board.cache_hierarchy.ruby_system.network.routers1&#45;&#45;board.cache_hierarchy.ruby_system.network.routers2</title>
<path fill="none" stroke="#042d50" d="M198.85,-348.75C202.87,-350.98 207.07,-353.3 211.24,-355.61"/>
<polygon fill="#042d50" stroke="#042d50" points="209.8,-358.81 220.25,-360.59 213.19,-352.68 209.8,-358.81"/>
</g>
<!-- board.cache_hierarchy.ruby_system.network.routers3 -->
<g id="node4" class="node">
<title>board.cache_hierarchy.ruby_system.network.routers3</title>
<path fill="#cce6fc" stroke="#000000" d="M318.49,-347.02C318.49,-347.02 348.49,-347.02 348.49,-347.02 354.49,-347.02 360.49,-353.02 360.49,-359.02 360.49,-359.02 360.49,-371.02 360.49,-371.02 360.49,-377.02 354.49,-383.02 348.49,-383.02 348.49,-383.02 318.49,-383.02 318.49,-383.02 312.49,-383.02 306.49,-377.02 306.49,-371.02 306.49,-371.02 306.49,-359.02 306.49,-359.02 306.49,-353.02 312.49,-347.02 318.49,-347.02"/>
<text text-anchor="middle" x="333.49" y="-361.32" font-family="Arial" font-size="14.00" fill="#000000">R 3</text>
</g>
<!-- board.cache_hierarchy.ruby_system.network.routers2&#45;&#45;board.cache_hierarchy.ruby_system.network.routers3 -->
<g id="edge3" class="edge">
<title>board.cache_hierarchy.ruby_system.network.routers2&#45;&#45;board.cache_hierarchy.ruby_system.network.routers3</title>
<path fill="none" stroke="#042d50" d="M274.62,-372.24C281.52,-371.4 289.05,-370.47 296.35,-369.58"/>
<polygon fill="#042d50" stroke="#042d50" points="296.92,-373.04 306.42,-368.34 296.07,-366.09 296.92,-373.04"/>
</g>
<!-- board.cache_hierarchy.ruby_system.network.routers4 -->
<g id="node5" class="node">
<title>board.cache_hierarchy.ruby_system.network.routers4</title>
<path fill="#cce6fc" stroke="#000000" d="M381.94,-287.85C381.94,-287.85 411.94,-287.85 411.94,-287.85 417.94,-287.85 423.94,-293.85 423.94,-299.85 423.94,-299.85 423.94,-311.85 423.94,-311.85 423.94,-317.85 417.94,-323.85 411.94,-323.85 411.94,-323.85 381.94,-323.85 381.94,-323.85 375.94,-323.85 369.94,-317.85 369.94,-311.85 369.94,-311.85 369.94,-299.85 369.94,-299.85 369.94,-293.85 375.94,-287.85 381.94,-287.85"/>
<text text-anchor="middle" x="396.94" y="-302.15" font-family="Arial" font-size="14.00" fill="#000000">R 4</text>
</g>
<!-- board.cache_hierarchy.ruby_system.network.routers3&#45;&#45;board.cache_hierarchy.ruby_system.network.routers4 -->
<g id="edge4" class="edge">
<title>board.cache_hierarchy.ruby_system.network.routers3&#45;&#45;board.cache_hierarchy.ruby_system.network.routers4</title>
<path fill="none" stroke="#042d50" d="M352.87,-346.95C358.19,-342 364.04,-336.53 369.71,-331.25"/>
<polygon fill="#042d50" stroke="#042d50" points="372.31,-333.61 377.24,-324.23 367.54,-328.49 372.31,-333.61"/>
</g>
<!-- board.cache_hierarchy.ruby_system.network.routers5 -->
<g id="node6" class="node">
<title>board.cache_hierarchy.ruby_system.network.routers5</title>
<path fill="#cce6fc" stroke="#000000" d="M398.38,-202.67C398.38,-202.67 428.38,-202.67 428.38,-202.67 434.38,-202.67 440.38,-208.67 440.38,-214.67 440.38,-214.67 440.38,-226.67 440.38,-226.67 440.38,-232.67 434.38,-238.67 428.38,-238.67 428.38,-238.67 398.38,-238.67 398.38,-238.67 392.38,-238.67 386.38,-232.67 386.38,-226.67 386.38,-226.67 386.38,-214.67 386.38,-214.67 386.38,-208.67 392.38,-202.67 398.38,-202.67"/>
<text text-anchor="middle" x="413.38" y="-216.97" font-family="Arial" font-size="14.00" fill="#000000">R 5</text>
</g>
<!-- board.cache_hierarchy.ruby_system.network.routers4&#45;&#45;board.cache_hierarchy.ruby_system.network.routers5 -->
<g id="edge5" class="edge">
<title>board.cache_hierarchy.ruby_system.network.routers4&#45;&#45;board.cache_hierarchy.ruby_system.network.routers5</title>
<path fill="none" stroke="#042d50" d="M400.43,-287.79C402.61,-276.5 405.46,-261.71 407.93,-248.89"/>
<polygon fill="#042d50" stroke="#042d50" points="411.44,-249.19 409.9,-238.71 404.57,-247.86 411.44,-249.19"/>
</g>
<!-- board.cache_hierarchy.ruby_system.network.routers6 -->
<g id="node7" class="node">
<title>board.cache_hierarchy.ruby_system.network.routers6</title>
<path fill="#cce6fc" stroke="#000000" d="M361.39,-124.21C361.39,-124.21 391.39,-124.21 391.39,-124.21 397.39,-124.21 403.39,-130.21 403.39,-136.21 403.39,-136.21 403.39,-148.21 403.39,-148.21 403.39,-154.21 397.39,-160.21 391.39,-160.21 391.39,-160.21 361.39,-160.21 361.39,-160.21 355.39,-160.21 349.39,-154.21 349.39,-148.21 349.39,-148.21 349.39,-136.21 349.39,-136.21 349.39,-130.21 355.39,-124.21 361.39,-124.21"/>
<text text-anchor="middle" x="376.39" y="-138.51" font-family="Arial" font-size="14.00" fill="#000000">R 6</text>
</g>
<!-- board.cache_hierarchy.ruby_system.network.routers5&#45;&#45;board.cache_hierarchy.ruby_system.network.routers6 -->
<g id="edge6" class="edge">
<title>board.cache_hierarchy.ruby_system.network.routers5&#45;&#45;board.cache_hierarchy.ruby_system.network.routers6</title>
<path fill="none" stroke="#042d50" d="M404.8,-202.47C400.18,-192.67 394.38,-180.38 389.24,-169.46"/>
<polygon fill="#042d50" stroke="#042d50" points="392.35,-167.86 384.92,-160.31 386.02,-170.85 392.35,-167.86"/>
</g>
<!-- board.cache_hierarchy.ruby_system.network.routers7 -->
<g id="node8" class="node">
<title>board.cache_hierarchy.ruby_system.network.routers7</title>
<path fill="#cce6fc" stroke="#000000" d="M285.47,-82.11C285.47,-82.11 315.47,-82.11 315.47,-82.11 321.47,-82.11 327.47,-88.11 327.47,-94.11 327.47,-94.11 327.47,-106.11 327.47,-106.11 327.47,-112.11 321.47,-118.11 315.47,-118.11 315.47,-118.11 285.47,-118.11 285.47,-118.11 279.47,-118.11 273.47,-112.11 273.47,-106.11 273.47,-106.11 273.47,-94.11 273.47,-94.11 273.47,-88.11 279.47,-82.11 285.47,-82.11"/>
<text text-anchor="middle" x="300.47" y="-96.41" font-family="Arial" font-size="14.00" fill="#000000">R 7</text>
</g>
<!-- board.cache_hierarchy.ruby_system.network.routers6&#45;&#45;board.cache_hierarchy.ruby_system.network.routers7 -->
<g id="edge7" class="edge">
<title>board.cache_hierarchy.ruby_system.network.routers6&#45;&#45;board.cache_hierarchy.ruby_system.network.routers7</title>
<path fill="none" stroke="#042d50" d="M348.98,-127.01C344.96,-124.78 340.76,-122.45 336.59,-120.14"/>
<polygon fill="#042d50" stroke="#042d50" points="338.03,-116.93 327.59,-115.14 334.63,-123.05 338.03,-116.93"/>
</g>
<!-- board.cache_hierarchy.ruby_system.network.routers8 -->
<g id="node9" class="node">
<title>board.cache_hierarchy.ruby_system.network.routers8</title>
<path fill="#cce6fc" stroke="#000000" d="M199.35,-92.38C199.35,-92.38 229.35,-92.38 229.35,-92.38 235.35,-92.38 241.35,-98.38 241.35,-104.38 241.35,-104.38 241.35,-116.38 241.35,-116.38 241.35,-122.38 235.35,-128.38 229.35,-128.38 229.35,-128.38 199.35,-128.38 199.35,-128.38 193.35,-128.38 187.35,-122.38 187.35,-116.38 187.35,-116.38 187.35,-104.38 187.35,-104.38 187.35,-98.38 193.35,-92.38 199.35,-92.38"/>
<text text-anchor="middle" x="214.35" y="-106.68" font-family="Arial" font-size="14.00" fill="#000000">R 8</text>
</g>
<!-- board.cache_hierarchy.ruby_system.network.routers7&#45;&#45;board.cache_hierarchy.ruby_system.network.routers8 -->
<g id="edge8" class="edge">
<title>board.cache_hierarchy.ruby_system.network.routers7&#45;&#45;board.cache_hierarchy.ruby_system.network.routers8</title>
<path fill="none" stroke="#042d50" d="M273.22,-103.36C266.32,-104.18 258.79,-105.08 251.49,-105.95"/>
<polygon fill="#042d50" stroke="#042d50" points="250.94,-102.49 241.42,-107.15 251.77,-109.44 250.94,-102.49"/>
</g>
<!-- board.cache_hierarchy.ruby_system.network.routers9 -->
<g id="node10" class="node">
<title>board.cache_hierarchy.ruby_system.network.routers9</title>
<path fill="#cce6fc" stroke="#000000" d="M136.03,-151.74C136.03,-151.74 166.03,-151.74 166.03,-151.74 172.03,-151.74 178.03,-157.74 178.03,-163.74 178.03,-163.74 178.03,-175.74 178.03,-175.74 178.03,-181.74 172.03,-187.74 166.03,-187.74 166.03,-187.74 136.03,-187.74 136.03,-187.74 130.03,-187.74 124.03,-181.74 124.03,-175.74 124.03,-175.74 124.03,-163.74 124.03,-163.74 124.03,-157.74 130.03,-151.74 136.03,-151.74"/>
<text text-anchor="middle" x="151.03" y="-166.04" font-family="Arial" font-size="14.00" fill="#000000">R 9</text>
</g>
<!-- board.cache_hierarchy.ruby_system.network.routers8&#45;&#45;board.cache_hierarchy.ruby_system.network.routers9 -->
<g id="edge9" class="edge">
<title>board.cache_hierarchy.ruby_system.network.routers8&#45;&#45;board.cache_hierarchy.ruby_system.network.routers9</title>
<path fill="none" stroke="#042d50" d="M195.01,-128.51C189.61,-133.58 183.64,-139.17 177.89,-144.56"/>
<polygon fill="#042d50" stroke="#042d50" points="175.16,-142.33 170.26,-151.72 179.94,-147.43 175.16,-142.33"/>
</g>
<!-- board.cache_hierarchy.ruby_system.network.routers9&#45;&#45;board.cache_hierarchy.ruby_system.network.routers0 -->
<g id="edge10" class="edge">
<title>board.cache_hierarchy.ruby_system.network.routers9&#45;&#45;board.cache_hierarchy.ruby_system.network.routers0</title>
<path fill="none" stroke="#042d50" d="M147.56,-187.82C145.38,-199.12 142.54,-213.91 140.07,-226.74"/>
<polygon fill="#042d50" stroke="#042d50" points="136.57,-226.45 138.12,-236.93 143.44,-227.77 136.57,-226.45"/>
</g>
<!-- board.cache_hierarchy.ruby_system.l1_controllers0 -->
<g id="node11" class="node">
<title>board.cache_hierarchy.ruby_system.l1_controllers0</title>
<path fill="#e5bcd0" stroke="#000000" d="M12,-247.39C12,-247.39 92,-247.39 92,-247.39 98,-247.39 104,-253.39 104,-259.39 104,-259.39 104,-271.39 104,-271.39 104,-277.39 98,-283.39 92,-283.39 92,-283.39 12,-283.39 12,-283.39 6,-283.39 0,-277.39 0,-271.39 0,-271.39 0,-259.39 0,-259.39 0,-253.39 6,-247.39 12,-247.39"/>
<text text-anchor="middle" x="52" y="-261.69" font-family="Arial" font-size="14.00" fill="#000000">l1_controllers0</text>
</g>
<!-- board.cache_hierarchy.ruby_system.l1_controllers0&#45;&#45;board.cache_hierarchy.ruby_system.network.routers0 -->
<g id="edge11" class="edge">
<title>board.cache_hierarchy.ruby_system.l1_controllers0&#45;&#45;board.cache_hierarchy.ruby_system.network.routers0</title>
<path fill="none" stroke="#381526" d="M107.01,-258.46C107.07,-258.45 107.13,-258.44 107.2,-258.43"/>
<polygon fill="#381526" stroke="#381526" points="113.82,-254.07 104.34,-258.79 114.7,-261.02 113.82,-254.07"/>
<polygon fill="#381526" stroke="#381526" points="97.9,-263.14 107.38,-258.41 97.02,-256.19 97.9,-263.14"/>
</g>
<!-- board.cache_hierarchy.ruby_system.l1_controllers1 -->
<g id="node12" class="node">
<title>board.cache_hierarchy.ruby_system.l1_controllers1</title>
<path fill="#e5bcd0" stroke="#000000" d="M70.7,-372.6C70.7,-372.6 150.7,-372.6 150.7,-372.6 156.7,-372.6 162.7,-378.6 162.7,-384.6 162.7,-384.6 162.7,-396.6 162.7,-396.6 162.7,-402.6 156.7,-408.6 150.7,-408.6 150.7,-408.6 70.7,-408.6 70.7,-408.6 64.7,-408.6 58.7,-402.6 58.7,-396.6 58.7,-396.6 58.7,-384.6 58.7,-384.6 58.7,-378.6 64.7,-372.6 70.7,-372.6"/>
<text text-anchor="middle" x="110.7" y="-386.9" font-family="Arial" font-size="14.00" fill="#000000">l1_controllers1</text>
</g>
<!-- board.cache_hierarchy.ruby_system.l1_controllers1&#45;&#45;board.cache_hierarchy.ruby_system.network.routers1 -->
<g id="edge12" class="edge">
<title>board.cache_hierarchy.ruby_system.l1_controllers1&#45;&#45;board.cache_hierarchy.ruby_system.network.routers1</title>
<path fill="none" stroke="#381526" d="M137.49,-365.46C139.8,-363.29 142.14,-361.09 144.45,-358.92"/>
<polygon fill="#381526" stroke="#381526" points="134.81,-363.16 129.92,-372.56 139.6,-368.27 134.81,-363.16"/>
<polygon fill="#381526" stroke="#381526" points="147.24,-361.1 152.13,-351.7 142.45,-356 147.24,-361.1"/>
</g>
<!-- board.cache_hierarchy.ruby_system.l1_controllers2 -->
<g id="node13" class="node">
<title>board.cache_hierarchy.ruby_system.l1_controllers2</title>
<path fill="#e5bcd0" stroke="#000000" d="M191.69,-439.41C191.69,-439.41 271.69,-439.41 271.69,-439.41 277.69,-439.41 283.69,-445.41 283.69,-451.41 283.69,-451.41 283.69,-463.41 283.69,-463.41 283.69,-469.41 277.69,-475.41 271.69,-475.41 271.69,-475.41 191.69,-475.41 191.69,-475.41 185.69,-475.41 179.69,-469.41 179.69,-463.41 179.69,-463.41 179.69,-451.41 179.69,-451.41 179.69,-445.41 185.69,-439.41 191.69,-439.41"/>
<text text-anchor="middle" x="231.69" y="-453.71" font-family="Arial" font-size="14.00" fill="#000000">l1_controllers2</text>
</g>
<!-- board.cache_hierarchy.ruby_system.l1_controllers2&#45;&#45;board.cache_hierarchy.ruby_system.network.routers2 -->
<g id="edge13" class="edge">
<title>board.cache_hierarchy.ruby_system.l1_controllers2&#45;&#45;board.cache_hierarchy.ruby_system.network.routers2</title>
<path fill="none" stroke="#381526" d="M237.06,-429.39C238.65,-421.09 240.39,-411.99 241.98,-403.68"/>
<polygon fill="#381526" stroke="#381526" points="233.61,-428.77 235.17,-439.25 240.49,-430.08 233.61,-428.77"/>
<polygon fill="#381526" stroke="#381526" points="245.45,-404.17 243.9,-393.69 238.58,-402.86 245.45,-404.17"/>
</g>
<!-- board.cache_hierarchy.ruby_system.l1_controllers3 -->
<g id="node14" class="node">
<title>board.cache_hierarchy.ruby_system.l1_controllers3</title>
<path fill="#e5bcd0" stroke="#000000" d="M328.81,-422.47C328.81,-422.47 408.81,-422.47 408.81,-422.47 414.81,-422.47 420.81,-428.47 420.81,-434.47 420.81,-434.47 420.81,-446.47 420.81,-446.47 420.81,-452.47 414.81,-458.47 408.81,-458.47 408.81,-458.47 328.81,-458.47 328.81,-458.47 322.81,-458.47 316.81,-452.47 316.81,-446.47 316.81,-446.47 316.81,-434.47 316.81,-434.47 316.81,-428.47 322.81,-422.47 328.81,-422.47"/>
<text text-anchor="middle" x="368.81" y="-436.77" font-family="Arial" font-size="14.00" fill="#000000">l1_controllers3</text>
</g>
<!-- board.cache_hierarchy.ruby_system.l1_controllers3&#45;&#45;board.cache_hierarchy.ruby_system.network.routers3 -->
<g id="edge14" class="edge">
<title>board.cache_hierarchy.ruby_system.l1_controllers3&#45;&#45;board.cache_hierarchy.ruby_system.network.routers3</title>
<path fill="none" stroke="#381526" d="M355.98,-413.07C352.84,-406.37 349.49,-399.2 346.35,-392.5"/>
<polygon fill="#381526" stroke="#381526" points="352.85,-414.64 360.26,-422.21 359.19,-411.67 352.85,-414.64"/>
<polygon fill="#381526" stroke="#381526" points="349.37,-390.69 341.96,-383.12 343.03,-393.66 349.37,-390.69"/>
</g>
<!-- board.cache_hierarchy.ruby_system.l1_controllers4 -->
<g id="node15" class="node">
<title>board.cache_hierarchy.ruby_system.l1_controllers4</title>
<path fill="#e5bcd0" stroke="#000000" d="M429.87,-328.11C429.87,-328.11 509.87,-328.11 509.87,-328.11 515.87,-328.11 521.87,-334.11 521.87,-340.11 521.87,-340.11 521.87,-352.11 521.87,-352.11 521.87,-358.11 515.87,-364.11 509.87,-364.11 509.87,-364.11 429.87,-364.11 429.87,-364.11 423.87,-364.11 417.87,-358.11 417.87,-352.11 417.87,-352.11 417.87,-340.11 417.87,-340.11 417.87,-334.11 423.87,-328.11 429.87,-328.11"/>
<text text-anchor="middle" x="469.87" y="-342.41" font-family="Arial" font-size="14.00" fill="#000000">l1_controllers4</text>
</g>
<!-- board.cache_hierarchy.ruby_system.l1_controllers4&#45;&#45;board.cache_hierarchy.ruby_system.network.routers4 -->
<g id="edge15" class="edge">
<title>board.cache_hierarchy.ruby_system.l1_controllers4&#45;&#45;board.cache_hierarchy.ruby_system.network.routers4</title>
<path fill="none" stroke="#381526" d="M428.15,-323.08C428.06,-323.03 427.98,-322.99 427.89,-322.94"/>
<polygon fill="#381526" stroke="#381526" points="426.8,-326.33 437.24,-328.1 430.18,-320.2 426.8,-326.33"/>
<polygon fill="#381526" stroke="#381526" points="434.53,-322.6 424.08,-320.84 431.14,-328.73 434.53,-322.6"/>
</g>
<!-- board.cache_hierarchy.ruby_system.l1_controllers5 -->
<g id="node16" class="node">
<title>board.cache_hierarchy.ruby_system.l1_controllers5</title>
<path fill="#e5bcd0" stroke="#000000" d="M456.02,-192.27C456.02,-192.27 536.02,-192.27 536.02,-192.27 542.02,-192.27 548.02,-198.27 548.02,-204.27 548.02,-204.27 548.02,-216.27 548.02,-216.27 548.02,-222.27 542.02,-228.27 536.02,-228.27 536.02,-228.27 456.02,-228.27 456.02,-228.27 450.02,-228.27 444.02,-222.27 444.02,-216.27 444.02,-216.27 444.02,-204.27 444.02,-204.27 444.02,-198.27 450.02,-192.27 456.02,-192.27"/>
<text text-anchor="middle" x="496.02" y="-206.57" font-family="Arial" font-size="14.00" fill="#000000">l1_controllers5</text>
</g>
<!-- board.cache_hierarchy.ruby_system.l1_controllers5&#45;&#45;board.cache_hierarchy.ruby_system.network.routers5 -->
<g id="edge16" class="edge">
<title>board.cache_hierarchy.ruby_system.l1_controllers5&#45;&#45;board.cache_hierarchy.ruby_system.network.routers5</title>
<path fill="none" stroke="#381526" d="M441.01,-217.19C440.95,-217.2 440.89,-217.21 440.83,-217.22"/>
<polygon fill="#381526" stroke="#381526" points="434.2,-221.58 443.68,-216.86 433.32,-214.63 434.2,-221.58"/>
<polygon fill="#381526" stroke="#381526" points="450.12,-212.51 440.64,-217.24 451,-219.46 450.12,-212.51"/>
</g>
<!-- board.cache_hierarchy.ruby_system.l1_controllers6 -->
<g id="node17" class="node">
<title>board.cache_hierarchy.ruby_system.l1_controllers6</title>
<path fill="#e5bcd0" stroke="#000000" d="M397.31,-67.33C397.31,-67.33 477.31,-67.33 477.31,-67.33 483.31,-67.33 489.31,-73.33 489.31,-79.33 489.31,-79.33 489.31,-91.33 489.31,-91.33 489.31,-97.33 483.31,-103.33 477.31,-103.33 477.31,-103.33 397.31,-103.33 397.31,-103.33 391.31,-103.33 385.31,-97.33 385.31,-91.33 385.31,-91.33 385.31,-79.33 385.31,-79.33 385.31,-73.33 391.31,-67.33 397.31,-67.33"/>
<text text-anchor="middle" x="437.31" y="-81.63" font-family="Arial" font-size="14.00" fill="#000000">l1_controllers6</text>
</g>
<!-- board.cache_hierarchy.ruby_system.l1_controllers6&#45;&#45;board.cache_hierarchy.ruby_system.network.routers6 -->
<g id="edge17" class="edge">
<title>board.cache_hierarchy.ruby_system.l1_controllers6&#45;&#45;board.cache_hierarchy.ruby_system.network.routers6</title>
<path fill="none" stroke="#381526" d="M410.29,-110.56C408.03,-112.67 405.74,-114.8 403.48,-116.91"/>
<polygon fill="#381526" stroke="#381526" points="412.78,-113.02 417.7,-103.64 408,-107.91 412.78,-113.02"/>
<polygon fill="#381526" stroke="#381526" points="400.88,-114.55 395.96,-123.93 405.66,-119.67 400.88,-114.55"/>
</g>
<!-- board.cache_hierarchy.ruby_system.l1_controllers7 -->
<g id="node18" class="node">
<title>board.cache_hierarchy.ruby_system.l1_controllers7</title>
<path fill="#e5bcd0" stroke="#000000" d="M277.33,-0.5C277.33,-0.5 357.33,-0.5 357.33,-0.5 363.33,-0.5 369.33,-6.5 369.33,-12.5 369.33,-12.5 369.33,-24.5 369.33,-24.5 369.33,-30.5 363.33,-36.5 357.33,-36.5 357.33,-36.5 277.33,-36.5 277.33,-36.5 271.33,-36.5 265.33,-30.5 265.33,-24.5 265.33,-24.5 265.33,-12.5 265.33,-12.5 265.33,-6.5 271.33,-0.5 277.33,-0.5"/>
<text text-anchor="middle" x="317.33" y="-14.8" font-family="Arial" font-size="14.00" fill="#000000">l1_controllers7</text>
</g>
<!-- board.cache_hierarchy.ruby_system.l1_controllers7&#45;&#45;board.cache_hierarchy.ruby_system.network.routers7 -->
<g id="edge18" class="edge">
<title>board.cache_hierarchy.ruby_system.l1_controllers7&#45;&#45;board.cache_hierarchy.ruby_system.network.routers7</title>
<path fill="none" stroke="#381526" d="M311.56,-46.44C309.85,-54.72 307.97,-63.8 306.26,-72.08"/>
<polygon fill="#381526" stroke="#381526" points="314.99,-47.11 313.59,-36.61 308.14,-45.7 314.99,-47.11"/>
<polygon fill="#381526" stroke="#381526" points="302.8,-71.55 304.2,-82.05 309.65,-72.96 302.8,-71.55"/>
</g>
<!-- board.cache_hierarchy.ruby_system.l2_controllers -->
<g id="node19" class="node">
<title>board.cache_hierarchy.ruby_system.l2_controllers</title>
<path fill="#e5bcd0" stroke="#000000" d="M143,-16.77C143,-16.77 216,-16.77 216,-16.77 222,-16.77 228,-22.77 228,-28.77 228,-28.77 228,-40.77 228,-40.77 228,-46.77 222,-52.77 216,-52.77 216,-52.77 143,-52.77 143,-52.77 137,-52.77 131,-46.77 131,-40.77 131,-40.77 131,-28.77 131,-28.77 131,-22.77 137,-16.77 143,-16.77"/>
<text text-anchor="middle" x="179.5" y="-31.07" font-family="Arial" font-size="14.00" fill="#000000">l2_controllers</text>
</g>
<!-- board.cache_hierarchy.ruby_system.l2_controllers&#45;&#45;board.cache_hierarchy.ruby_system.network.routers8 -->
<g id="edge19" class="edge">
<title>board.cache_hierarchy.ruby_system.l2_controllers&#45;&#45;board.cache_hierarchy.ruby_system.network.routers8</title>
<path fill="none" stroke="#381526" d="M192.16,-62.23C195.25,-68.95 198.57,-76.13 201.66,-82.85"/>
<polygon fill="#381526" stroke="#381526" points="195.3,-60.69 187.94,-53.07 188.95,-63.62 195.3,-60.69"/>
<polygon fill="#381526" stroke="#381526" points="198.63,-84.63 205.99,-92.24 204.98,-81.7 198.63,-84.63"/>
</g>
<!-- board.cache_hierarchy.ruby_system.directory_controllers -->
<g id="node20" class="node">
<title>board.cache_hierarchy.ruby_system.directory_controllers</title>
<path fill="#e5bcd0" stroke="#000000" d="M21.11,-111.49C21.11,-111.49 135.11,-111.49 135.11,-111.49 141.11,-111.49 147.11,-117.49 147.11,-123.49 147.11,-123.49 147.11,-135.49 147.11,-135.49 147.11,-141.49 141.11,-147.49 135.11,-147.49 135.11,-147.49 21.11,-147.49 21.11,-147.49 15.11,-147.49 9.11,-141.49 9.11,-135.49 9.11,-135.49 9.11,-123.49 9.11,-123.49 9.11,-117.49 15.11,-111.49 21.11,-111.49"/>
<text text-anchor="middle" x="78.11" y="-125.79" font-family="Arial" font-size="14.00" fill="#000000">directory_controllers</text>
</g>
<!-- board.cache_hierarchy.ruby_system.directory_controllers&#45;&#45;board.cache_hierarchy.ruby_system.network.routers9 -->
<g id="edge20" class="edge">
<title>board.cache_hierarchy.ruby_system.directory_controllers&#45;&#45;board.cache_hierarchy.ruby_system.network.routers9</title>
<path fill="none" stroke="#381526" d="M119.83,-152.52C119.91,-152.56 120,-152.61 120.08,-152.66"/>
<polygon fill="#381526" stroke="#381526" points="121.18,-149.26 110.73,-147.5 117.8,-155.39 121.18,-149.26"/>
<polygon fill="#381526" stroke="#381526" points="113.45,-152.99 123.9,-154.76 116.83,-146.87 113.45,-152.99"/>
</g>
</g>
</svg>
