<?xml version="1.0" encoding="UTF-8" standalone="no"?>
<!DOCTYPE svg PUBLIC "-//W3C//DTD SVG 1.1//EN"
 "http://www.w3.org/Graphics/SVG/1.1/DTD/svg11.dtd">
<!-- Generated by graphviz version 2.43.0 (0)
 -->
<!-- Title: G Pages: 1 -->
<svg width="415pt" height="352pt"
 viewBox="0.00 0.00 415.36 352.31" xmlns="http://www.w3.org/2000/svg" xmlns:xlink="http://www.w3.org/1999/xlink">
<g id="graph0" class="graph" transform="scale(1 1) rotate(0) translate(4 348.31)">
<title>G</title>
<polygon fill="white" stroke="transparent" points="-4,4 -4,-348.31 411.36,-348.31 411.36,4 -4,4"/>
<!-- board.cache_hierarchy.ruby_system.network.routers0 -->
<g id="node1" class="node">
<title>board.cache_hierarchy.ruby_system.network.routers0</title>
<path fill="#cce6fc" stroke="#000000" d="M110.77,-174.56C110.77,-174.56 140.77,-174.56 140.77,-174.56 146.77,-174.56 152.77,-180.56 152.77,-186.56 152.77,-186.56 152.77,-198.56 152.77,-198.56 152.77,-204.56 146.77,-210.56 140.77,-210.56 140.77,-210.56 110.77,-210.56 110.77,-210.56 104.77,-210.56 98.77,-204.56 98.77,-198.56 98.77,-198.56 98.77,-186.56 98.77,-186.56 98.77,-180.56 104.77,-174.56 110.77,-174.56"/>
<text text-anchor="middle" x="125.77" y="-188.86" font-family="Arial" font-size="14.00" fill="#000000">R 0</text>
</g>
<!-- board.cache_hierarchy.ruby_system.network.routers4 -->
<g id="node5" class="node">
<title>board.cache_hierarchy.ruby_system.network.routers4</title>
<path fill="#cce6fc" stroke="#000000" d="M190.33,-153.66C190.33,-153.66 220.33,-153.66 220.33,-153.66 226.33,-153.66 232.33,-159.66 232.33,-165.66 232.33,-165.66 232.33,-177.66 232.33,-177.66 232.33,-183.66 226.33,-189.66 220.33,-189.66 220.33,-189.66 190.33,-189.66 190.33,-189.66 184.33,-189.66 178.33,-183.66 178.33,-177.66 178.33,-177.66 178.33,-165.66 178.33,-165.66 178.33,-159.66 184.33,-153.66 190.33,-153.66"/>
<text text-anchor="middle" x="205.33" y="-167.96" font-family="Arial" font-size="14.00" fill="#000000">R 4</text>
</g>
<!-- board.cache_hierarchy.ruby_system.network.routers0&#45;&#45;board.cache_hierarchy.ruby_system.network.routers4 -->
<g id="edge1" class="edge">
<title>board.cache_hierarchy.ruby_system.network.routers0&#45;&#45;board.cache_hierarchy.ruby_system.network.routers4</title>
<path fill="none" stroke="#042d50" d="M153.15,-185.36C158.08,-184.07 163.29,-182.7 168.44,-181.35"/>
<polygon fill="#042d50" stroke="#042d50" points="169.39,-184.72 178.17,-178.79 167.61,-177.95 169.39,-184.72"/>
</g>
<!-- board.cache_hierarchy.ruby_system.network.routers1 -->
<g id="node2" class="node">
<title>board.cache_hierarchy.ruby_system.network.routers1</title>
<path fill="#cce6fc" stroke="#000000" d="M169.28,-74.13C169.28,-74.13 199.28,-74.13 199.28,-74.13 205.28,-74.13 211.28,-80.13 211.28,-86.13 211.28,-86.13 211.28,-98.13 211.28,-98.13 211.28,-104.13 205.28,-110.13 199.28,-110.13 199.28,-110.13 169.28,-110.13 169.28,-110.13 163.28,-110.13 157.28,-104.13 157.28,-98.13 157.28,-98.13 157.28,-86.13 157.28,-86.13 157.28,-80.13 163.28,-74.13 169.28,-74.13"/>
<text text-anchor="middle" x="184.28" y="-88.43" font-family="Arial" font-size="14.00" fill="#000000">R 1</text>
</g>
<!-- board.cache_hierarchy.ruby_system.network.routers1&#45;&#45;board.cache_hierarchy.ruby_system.network.routers4 -->
<g id="edge2" class="edge">
<title>board.cache_hierarchy.ruby_system.network.routers1&#45;&#45;board.cache_hierarchy.ruby_system.network.routers4</title>
<path fill="none" stroke="#042d50" d="M189.05,-110.18C191.67,-120.07 194.98,-132.55 197.92,-143.68"/>
<polygon fill="#042d50" stroke="#042d50" points="194.55,-144.64 200.5,-153.41 201.32,-142.85 194.55,-144.64"/>
</g>
<!-- board.cache_hierarchy.ruby_system.network.routers2 -->
<g id="node3" class="node">
<title>board.cache_hierarchy.ruby_system.network.routers2</title>
<path fill="#cce6fc" stroke="#000000" d="M269.84,-132.62C269.84,-132.62 299.84,-132.62 299.84,-132.62 305.84,-132.62 311.84,-138.62 311.84,-144.62 311.84,-144.62 311.84,-156.62 311.84,-156.62 311.84,-162.62 305.84,-168.62 299.84,-168.62 299.84,-168.62 269.84,-168.62 269.84,-168.62 263.84,-168.62 257.84,-162.62 257.84,-156.62 257.84,-156.62 257.84,-144.62 257.84,-144.62 257.84,-138.62 263.84,-132.62 269.84,-132.62"/>
<text text-anchor="middle" x="284.84" y="-146.92" font-family="Arial" font-size="14.00" fill="#000000">R 2</text>
</g>
<!-- board.cache_hierarchy.ruby_system.network.routers2&#45;&#45;board.cache_hierarchy.ruby_system.network.routers4 -->
<g id="edge3" class="edge">
<title>board.cache_hierarchy.ruby_system.network.routers2&#45;&#45;board.cache_hierarchy.ruby_system.network.routers4</title>
<path fill="none" stroke="#042d50" d="M257.48,-157.86C252.55,-159.16 247.34,-160.54 242.2,-161.9"/>
<polygon fill="#042d50" stroke="#042d50" points="241.24,-158.53 232.47,-164.48 243.04,-165.3 241.24,-158.53"/>
</g>
<!-- board.cache_hierarchy.ruby_system.network.routers3 -->
<g id="node4" class="node">
<title>board.cache_hierarchy.ruby_system.network.routers3</title>
<path fill="#cce6fc" stroke="#000000" d="M211.65,-233.1C211.65,-233.1 241.65,-233.1 241.65,-233.1 247.65,-233.1 253.65,-239.1 253.65,-245.1 253.65,-245.1 253.65,-257.1 253.65,-257.1 253.65,-263.1 247.65,-269.1 241.65,-269.1 241.65,-269.1 211.65,-269.1 211.65,-269.1 205.65,-269.1 199.65,-263.1 199.65,-257.1 199.65,-257.1 199.65,-245.1 199.65,-245.1 199.65,-239.1 205.65,-233.1 211.65,-233.1"/>
<text text-anchor="middle" x="226.65" y="-247.4" font-family="Arial" font-size="14.00" fill="#000000">R 3</text>
</g>
<!-- board.cache_hierarchy.ruby_system.network.routers3&#45;&#45;board.cache_hierarchy.ruby_system.network.routers4 -->
<g id="edge4" class="edge">
<title>board.cache_hierarchy.ruby_system.network.routers3&#45;&#45;board.cache_hierarchy.ruby_system.network.routers4</title>
<path fill="none" stroke="#042d50" d="M221.81,-233.07C219.16,-223.19 215.81,-210.72 212.83,-199.6"/>
<polygon fill="#042d50" stroke="#042d50" points="216.19,-198.64 210.22,-189.89 209.43,-200.46 216.19,-198.64"/>
</g>
<!-- board.cache_hierarchy.ruby_system.l1_controllers0 -->
<g id="node6" class="node">
<title>board.cache_hierarchy.ruby_system.l1_controllers0</title>
<path fill="#e5bcd0" stroke="#000000" d="M12,-195.18C12,-195.18 92,-195.18 92,-195.18 98,-195.18 104,-201.18 104,-207.18 104,-207.18 104,-219.18 104,-219.18 104,-225.18 98,-231.18 92,-231.18 92,-231.18 12,-231.18 12,-231.18 6,-231.18 0,-225.18 0,-219.18 0,-219.18 0,-207.18 0,-207.18 0,-201.18 6,-195.18 12,-195.18"/>
<text text-anchor="middle" x="52" y="-209.48" font-family="Arial" font-size="14.00" fill="#000000">l1_controllers0</text>
</g>
<!-- board.cache_hierarchy.ruby_system.l1_controllers0&#45;&#45;board.cache_hierarchy.ruby_system.network.routers0 -->
<g id="edge5" class="edge">
<title>board.cache_hierarchy.ruby_system.l1_controllers0&#45;&#45;board.cache_hierarchy.ruby_system.network.routers0</title>
<path fill="none" stroke="#381526" d="M104.18,-198.59C104.21,-198.59 104.23,-198.58 104.25,-198.57"/>
<polygon fill="#381526" stroke="#381526" points="112.73,-192.56 104.04,-198.63 114.61,-199.31 112.73,-192.56"/>
<polygon fill="#381526" stroke="#381526" points="95.64,-204.63 104.32,-198.55 93.75,-197.89 95.64,-204.63"/>
</g>
<!-- board.cache_hierarchy.ruby_system.l1_controllers1 -->
<g id="node7" class="node">
<title>board.cache_hierarchy.ruby_system.l1_controllers1</title>
<path fill="#e5bcd0" stroke="#000000" d="M123.24,-0.5C123.24,-0.5 203.24,-0.5 203.24,-0.5 209.24,-0.5 215.24,-6.5 215.24,-12.5 215.24,-12.5 215.24,-24.5 215.24,-24.5 215.24,-30.5 209.24,-36.5 203.24,-36.5 203.24,-36.5 123.24,-36.5 123.24,-36.5 117.24,-36.5 111.24,-30.5 111.24,-24.5 111.24,-24.5 111.24,-12.5 111.24,-12.5 111.24,-6.5 117.24,-0.5 123.24,-0.5"/>
<text text-anchor="middle" x="163.24" y="-14.8" font-family="Arial" font-size="14.00" fill="#000000">l1_controllers1</text>
</g>
<!-- board.cache_hierarchy.ruby_system.l1_controllers1&#45;&#45;board.cache_hierarchy.ruby_system.network.routers1 -->
<g id="edge6" class="edge">
<title>board.cache_hierarchy.ruby_system.l1_controllers1&#45;&#45;board.cache_hierarchy.ruby_system.network.routers1</title>
<path fill="none" stroke="#381526" d="M171.26,-46.58C172.9,-52.3 174.62,-58.32 176.25,-64.04"/>
<polygon fill="#381526" stroke="#381526" points="174.55,-45.35 168.44,-36.7 167.82,-47.28 174.55,-45.35"/>
<polygon fill="#381526" stroke="#381526" points="172.95,-65.23 179.06,-73.88 179.68,-63.31 172.95,-65.23"/>
</g>
<!-- board.cache_hierarchy.ruby_system.l2_controllers -->
<g id="node8" class="node">
<title>board.cache_hierarchy.ruby_system.l2_controllers</title>
<path fill="#e5bcd0" stroke="#000000" d="M322.36,-113.07C322.36,-113.07 395.36,-113.07 395.36,-113.07 401.36,-113.07 407.36,-119.07 407.36,-125.07 407.36,-125.07 407.36,-137.07 407.36,-137.07 407.36,-143.07 401.36,-149.07 395.36,-149.07 395.36,-149.07 322.36,-149.07 322.36,-149.07 316.36,-149.07 310.36,-143.07 310.36,-137.07 310.36,-137.07 310.36,-125.07 310.36,-125.07 310.36,-119.07 316.36,-113.07 322.36,-113.07"/>
<text text-anchor="middle" x="358.86" y="-127.37" font-family="Arial" font-size="14.00" fill="#000000">l2_controllers</text>
</g>
<!-- board.cache_hierarchy.ruby_system.l2_controllers&#45;&#45;board.cache_hierarchy.ruby_system.network.routers2 -->
<g id="edge7" class="edge">
<title>board.cache_hierarchy.ruby_system.l2_controllers&#45;&#45;board.cache_hierarchy.ruby_system.network.routers2</title>
<path fill="none" stroke="#381526" d="M310.15,-143.93C310.13,-143.94 310.1,-143.95 310.07,-143.95"/>
<polygon fill="#381526" stroke="#381526" points="301.54,-149.83 310.32,-143.89 299.75,-143.06 301.54,-149.83"/>
<polygon fill="#381526" stroke="#381526" points="318.76,-138.03 309.99,-143.98 320.56,-144.8 318.76,-138.03"/>
</g>
<!-- board.cache_hierarchy.ruby_system.directory_controllers -->
<g id="node9" class="node">
<title>board.cache_hierarchy.ruby_system.directory_controllers</title>
<path fill="#e5bcd0" stroke="#000000" d="M186.51,-307.81C186.51,-307.81 300.51,-307.81 300.51,-307.81 306.51,-307.81 312.51,-313.81 312.51,-319.81 312.51,-319.81 312.51,-331.81 312.51,-331.81 312.51,-337.81 306.51,-343.81 300.51,-343.81 300.51,-343.81 186.51,-343.81 186.51,-343.81 180.51,-343.81 174.51,-337.81 174.51,-331.81 174.51,-331.81 174.51,-319.81 174.51,-319.81 174.51,-313.81 180.51,-307.81 186.51,-307.81"/>
<text text-anchor="middle" x="243.51" y="-322.11" font-family="Arial" font-size="14.00" fill="#000000">directory_controllers</text>
</g>
<!-- board.cache_hierarchy.ruby_system.directory_controllers&#45;&#45;board.cache_hierarchy.ruby_system.network.routers3 -->
<g id="edge8" class="edge">
<title>board.cache_hierarchy.ruby_system.directory_controllers&#45;&#45;board.cache_hierarchy.ruby_system.network.routers3</title>
<path fill="none" stroke="#381526" d="M237.2,-297.83C235.82,-291.71 234.35,-285.24 232.97,-279.11"/>
<polygon fill="#381526" stroke="#381526" points="233.81,-298.74 239.43,-307.73 240.64,-297.2 233.81,-298.74"/>
<polygon fill="#381526" stroke="#381526" points="236.37,-278.26 230.75,-269.28 229.54,-279.8 236.37,-278.26"/>
</g>
</g>
</svg>
