<?xml version="1.0" encoding="UTF-8" standalone="no"?>
<!DOCTYPE svg PUBLIC "-//W3C//DTD SVG 1.1//EN"
 "http://www.w3.org/Graphics/SVG/1.1/DTD/svg11.dtd">
<!-- Generated by graphviz version 2.43.0 (0)
 -->
<!-- Title: G Pages: 1 -->
<svg width="326pt" height="392pt"
 viewBox="0.00 0.00 326.25 391.51" xmlns="http://www.w3.org/2000/svg" xmlns:xlink="http://www.w3.org/1999/xlink">
<g id="graph0" class="graph" transform="scale(1 1) rotate(0) translate(4 387.51)">
<title>G</title>
<polygon fill="white" stroke="transparent" points="-4,4 -4,-387.51 322.25,-387.51 322.25,4 -4,4"/>
<!-- system.ruby.network.ext_links00.int_node -->
<g id="node1" class="node">
<title>system.ruby.network.ext_links00.int_node</title>
<path fill="#cce6fc" stroke="#000000" d="M128.17,-195.72C128.17,-195.72 158.17,-195.72 158.17,-195.72 164.17,-195.72 170.17,-201.72 170.17,-207.72 170.17,-207.72 170.17,-219.72 170.17,-219.72 170.17,-225.72 164.17,-231.72 158.17,-231.72 158.17,-231.72 128.17,-231.72 128.17,-231.72 122.17,-231.72 116.17,-225.72 116.17,-219.72 116.17,-219.72 116.17,-207.72 116.17,-207.72 116.17,-201.72 122.17,-195.72 128.17,-195.72"/>
<text text-anchor="middle" x="143.17" y="-210.02" font-family="Arial" font-size="14.00" fill="#000000">R 0</text>
</g>
<!-- system.ruby.network.ext_links01.int_node -->
<g id="node2" class="node">
<title>system.ruby.network.ext_links01.int_node</title>
<path fill="#cce6fc" stroke="#000000" d="M178.01,-268.6C178.01,-268.6 208.01,-268.6 208.01,-268.6 214.01,-268.6 220.01,-274.6 220.01,-280.6 220.01,-280.6 220.01,-292.6 220.01,-292.6 220.01,-298.6 214.01,-304.6 208.01,-304.6 208.01,-304.6 178.01,-304.6 178.01,-304.6 172.01,-304.6 166.01,-298.6 166.01,-292.6 166.01,-292.6 166.01,-280.6 166.01,-280.6 166.01,-274.6 172.01,-268.6 178.01,-268.6"/>
<text text-anchor="middle" x="193.01" y="-282.9" font-family="Arial" font-size="14.00" fill="#000000">R 1</text>
</g>
<!-- system.ruby.network.ext_links00.int_node&#45;&#45;system.ruby.network.ext_links01.int_node -->
<g id="edge1" class="edge">
<title>system.ruby.network.ext_links00.int_node&#45;&#45;system.ruby.network.ext_links01.int_node</title>
<path fill="none" stroke="#042d50" d="M155.49,-231.73C161.36,-240.32 168.5,-250.75 174.96,-260.21"/>
<polygon fill="#042d50" stroke="#042d50" points="172.12,-262.26 180.66,-268.53 177.9,-258.3 172.12,-262.26"/>
</g>
<!-- system.ruby.network.ext_links03.int_node -->
<g id="node3" class="node">
<title>system.ruby.network.ext_links03.int_node</title>
<path fill="#cce6fc" stroke="#000000" d="M127.62,-88.76C127.62,-88.76 157.62,-88.76 157.62,-88.76 163.62,-88.76 169.62,-94.76 169.62,-100.76 169.62,-100.76 169.62,-112.76 169.62,-112.76 169.62,-118.76 163.62,-124.76 157.62,-124.76 157.62,-124.76 127.62,-124.76 127.62,-124.76 121.62,-124.76 115.62,-118.76 115.62,-112.76 115.62,-112.76 115.62,-100.76 115.62,-100.76 115.62,-94.76 121.62,-88.76 127.62,-88.76"/>
<text text-anchor="middle" x="142.62" y="-103.06" font-family="Arial" font-size="14.00" fill="#000000">R 2</text>
</g>
<!-- system.ruby.network.ext_links00.int_node&#45;&#45;system.ruby.network.ext_links03.int_node -->
<g id="edge2" class="edge">
<title>system.ruby.network.ext_links00.int_node&#45;&#45;system.ruby.network.ext_links03.int_node</title>
<path fill="none" stroke="#042d50" d="M143.08,-195.57C142.99,-179.05 142.87,-154.4 142.77,-135.25"/>
<polygon fill="#042d50" stroke="#042d50" points="146.27,-134.97 142.72,-124.99 139.27,-135.01 146.27,-134.97"/>
</g>
<!-- system.ruby.dir_cntrl0 -->
<g id="node4" class="node">
<title>system.ruby.dir_cntrl0</title>
<path fill="#e5bcd0" stroke="#000000" d="M35.51,-251.4C35.51,-251.4 112.51,-251.4 112.51,-251.4 118.51,-251.4 124.51,-257.4 124.51,-263.4 124.51,-263.4 124.51,-275.4 124.51,-275.4 124.51,-281.4 118.51,-287.4 112.51,-287.4 112.51,-287.4 35.51,-287.4 35.51,-287.4 29.51,-287.4 23.51,-281.4 23.51,-275.4 23.51,-275.4 23.51,-263.4 23.51,-263.4 23.51,-257.4 29.51,-251.4 35.51,-251.4"/>
<text text-anchor="middle" x="74.01" y="-265.7" font-family="Arial" font-size="14.00" fill="#000000">ruby.dir_cntrl0</text>
</g>
<!-- system.ruby.dir_cntrl0&#45;&#45;system.ruby.network.ext_links00.int_node -->
<g id="edge3" class="edge">
<title>system.ruby.dir_cntrl0&#45;&#45;system.ruby.network.ext_links00.int_node</title>
<path fill="none" stroke="#381526" d="M104.49,-244.86C107.21,-242.67 109.97,-240.44 112.7,-238.25"/>
<polygon fill="#381526" stroke="#381526" points="102.25,-242.17 96.66,-251.17 106.64,-247.62 102.25,-242.17"/>
<polygon fill="#381526" stroke="#381526" points="115.12,-240.8 120.71,-231.8 110.73,-235.35 115.12,-240.8"/>
</g>
<!-- system.ruby.cp_cntrl0 -->
<g id="node5" class="node">
<title>system.ruby.cp_cntrl0</title>
<path fill="#e5bcd0" stroke="#000000" d="M229.25,-305.77C229.25,-305.77 306.25,-305.77 306.25,-305.77 312.25,-305.77 318.25,-311.77 318.25,-317.77 318.25,-317.77 318.25,-329.77 318.25,-329.77 318.25,-335.77 312.25,-341.77 306.25,-341.77 306.25,-341.77 229.25,-341.77 229.25,-341.77 223.25,-341.77 217.25,-335.77 217.25,-329.77 217.25,-329.77 217.25,-317.77 217.25,-317.77 217.25,-311.77 223.25,-305.77 229.25,-305.77"/>
<text text-anchor="middle" x="267.75" y="-320.07" font-family="Arial" font-size="14.00" fill="#000000">ruby.cp_cntrl0</text>
</g>
<!-- system.ruby.cp_cntrl0&#45;&#45;system.ruby.network.ext_links01.int_node -->
<g id="edge4" class="edge">
<title>system.ruby.cp_cntrl0&#45;&#45;system.ruby.network.ext_links01.int_node</title>
<path fill="none" stroke="#381526" d="M222.28,-301.16C222.19,-301.11 222.11,-301.07 222.02,-301.03"/>
<polygon fill="#381526" stroke="#381526" points="220.74,-304.3 231.26,-305.62 223.86,-298.03 220.74,-304.3"/>
<polygon fill="#381526" stroke="#381526" points="230.76,-301.47 220.25,-300.15 227.64,-307.73 230.76,-301.47"/>
</g>
<!-- system.ruby.cp_cntrl1 -->
<g id="node6" class="node">
<title>system.ruby.cp_cntrl1</title>
<path fill="#e5bcd0" stroke="#000000" d="M132.1,-347.01C132.1,-347.01 209.1,-347.01 209.1,-347.01 215.1,-347.01 221.1,-353.01 221.1,-359.01 221.1,-359.01 221.1,-371.01 221.1,-371.01 221.1,-377.01 215.1,-383.01 209.1,-383.01 209.1,-383.01 132.1,-383.01 132.1,-383.01 126.1,-383.01 120.1,-377.01 120.1,-371.01 120.1,-371.01 120.1,-359.01 120.1,-359.01 120.1,-353.01 126.1,-347.01 132.1,-347.01"/>
<text text-anchor="middle" x="170.6" y="-361.31" font-family="Arial" font-size="14.00" fill="#000000">ruby.cp_cntrl1</text>
</g>
<!-- system.ruby.cp_cntrl1&#45;&#45;system.ruby.network.ext_links01.int_node -->
<g id="edge5" class="edge">
<title>system.ruby.cp_cntrl1&#45;&#45;system.ruby.network.ext_links01.int_node</title>
<path fill="none" stroke="#381526" d="M178.6,-337.01C180.69,-329.7 182.94,-321.82 185.03,-314.51"/>
<polygon fill="#381526" stroke="#381526" points="175.18,-336.25 175.8,-346.82 181.91,-338.17 175.18,-336.25"/>
<polygon fill="#381526" stroke="#381526" points="188.46,-315.26 187.84,-304.68 181.73,-313.34 188.46,-315.26"/>
</g>
<!-- system.ruby.tcp_cntrl0 -->
<g id="node7" class="node">
<title>system.ruby.tcp_cntrl0</title>
<path fill="#e5bcd0" stroke="#000000" d="M34.29,-20.77C34.29,-20.77 114.29,-20.77 114.29,-20.77 120.29,-20.77 126.29,-26.77 126.29,-32.77 126.29,-32.77 126.29,-44.77 126.29,-44.77 126.29,-50.77 120.29,-56.77 114.29,-56.77 114.29,-56.77 34.29,-56.77 34.29,-56.77 28.29,-56.77 22.29,-50.77 22.29,-44.77 22.29,-44.77 22.29,-32.77 22.29,-32.77 22.29,-26.77 28.29,-20.77 34.29,-20.77"/>
<text text-anchor="middle" x="74.29" y="-35.07" font-family="Arial" font-size="14.00" fill="#000000">ruby.tcp_cntrl0</text>
</g>
<!-- system.ruby.tcp_cntrl0&#45;&#45;system.ruby.network.ext_links03.int_node -->
<g id="edge6" class="edge">
<title>system.ruby.tcp_cntrl0&#45;&#45;system.ruby.network.ext_links03.int_node</title>
<path fill="none" stroke="#381526" d="M99.81,-64.16C105.39,-69.71 111.3,-75.6 116.9,-81.16"/>
<polygon fill="#381526" stroke="#381526" points="102.16,-61.56 92.6,-56.99 97.22,-66.52 102.16,-61.56"/>
<polygon fill="#381526" stroke="#381526" points="114.7,-83.92 124.26,-88.49 119.64,-78.95 114.7,-83.92"/>
</g>
<!-- system.ruby.tcp_cntrl1 -->
<g id="node8" class="node">
<title>system.ruby.tcp_cntrl1</title>
<path fill="#e5bcd0" stroke="#000000" d="M192.8,-52.16C192.8,-52.16 272.8,-52.16 272.8,-52.16 278.8,-52.16 284.8,-58.16 284.8,-64.16 284.8,-64.16 284.8,-76.16 284.8,-76.16 284.8,-82.16 278.8,-88.16 272.8,-88.16 272.8,-88.16 192.8,-88.16 192.8,-88.16 186.8,-88.16 180.8,-82.16 180.8,-76.16 180.8,-76.16 180.8,-64.16 180.8,-64.16 180.8,-58.16 186.8,-52.16 192.8,-52.16"/>
<text text-anchor="middle" x="232.8" y="-66.46" font-family="Arial" font-size="14.00" fill="#000000">ruby.tcp_cntrl1</text>
</g>
<!-- system.ruby.tcp_cntrl1&#45;&#45;system.ruby.network.ext_links03.int_node -->
<g id="edge7" class="edge">
<title>system.ruby.tcp_cntrl1&#45;&#45;system.ruby.network.ext_links03.int_node</title>
<path fill="none" stroke="#381526" d="M178.97,-92.01C178.87,-92.04 178.78,-92.08 178.68,-92.12"/>
<polygon fill="#381526" stroke="#381526" points="180.29,-95.25 188.24,-88.24 177.66,-88.76 180.29,-95.25"/>
<polygon fill="#381526" stroke="#381526" points="177.98,-88.63 170.03,-95.63 180.62,-95.11 177.98,-88.63"/>
</g>
<!-- system.ruby.tcp_cntrl2 -->
<g id="node9" class="node">
<title>system.ruby.tcp_cntrl2</title>
<path fill="#e5bcd0" stroke="#000000" d="M60.74,-43.55C60.74,-43.55 140.74,-43.55 140.74,-43.55 146.74,-43.55 152.74,-49.55 152.74,-55.55 152.74,-55.55 152.74,-67.55 152.74,-67.55 152.74,-73.55 146.74,-79.55 140.74,-79.55 140.74,-79.55 60.74,-79.55 60.74,-79.55 54.74,-79.55 48.74,-73.55 48.74,-67.55 48.74,-67.55 48.74,-55.55 48.74,-55.55 48.74,-49.55 54.74,-43.55 60.74,-43.55"/>
<text text-anchor="middle" x="100.74" y="-57.85" font-family="Arial" font-size="14.00" fill="#000000">ruby.tcp_cntrl2</text>
</g>
<!-- system.ruby.tcp_cntrl2&#45;&#45;system.ruby.network.ext_links03.int_node -->
<g id="edge8" class="edge">
<title>system.ruby.tcp_cntrl2&#45;&#45;system.ruby.network.ext_links03.int_node</title>
<path fill="none" stroke="#381526" d="M124.54,-87.24C124.65,-87.35 124.76,-87.47 124.86,-87.59"/>
<polygon fill="#381526" stroke="#381526" points="126.9,-84.63 117.54,-79.68 121.76,-89.39 126.9,-84.63"/>
<polygon fill="#381526" stroke="#381526" points="116.46,-83.67 125.83,-88.63 121.6,-78.91 116.46,-83.67"/>
</g>
<!-- system.ruby.tcp_cntrl3 -->
<g id="node10" class="node">
<title>system.ruby.tcp_cntrl3</title>
<path fill="#e5bcd0" stroke="#000000" d="M118.56,-3.21C118.56,-3.21 198.56,-3.21 198.56,-3.21 204.56,-3.21 210.56,-9.21 210.56,-15.21 210.56,-15.21 210.56,-27.21 210.56,-27.21 210.56,-33.21 204.56,-39.21 198.56,-39.21 198.56,-39.21 118.56,-39.21 118.56,-39.21 112.56,-39.21 106.56,-33.21 106.56,-27.21 106.56,-27.21 106.56,-15.21 106.56,-15.21 106.56,-9.21 112.56,-3.21 118.56,-3.21"/>
<text text-anchor="middle" x="158.56" y="-17.51" font-family="Arial" font-size="14.00" fill="#000000">ruby.tcp_cntrl3</text>
</g>
<!-- system.ruby.tcp_cntrl3&#45;&#45;system.ruby.network.ext_links03.int_node -->
<g id="edge9" class="edge">
<title>system.ruby.tcp_cntrl3&#45;&#45;system.ruby.network.ext_links03.int_node</title>
<path fill="none" stroke="#381526" d="M153.34,-49.2C151.59,-58.62 149.63,-69.13 147.87,-78.56"/>
<polygon fill="#381526" stroke="#381526" points="156.79,-49.83 155.18,-39.36 149.9,-48.55 156.79,-49.83"/>
<polygon fill="#381526" stroke="#381526" points="144.39,-78.17 146,-88.64 151.27,-79.45 144.39,-78.17"/>
</g>
<!-- system.ruby.tcp_cntrl4 -->
<g id="node11" class="node">
<title>system.ruby.tcp_cntrl4</title>
<path fill="#e5bcd0" stroke="#000000" d="M81.45,-0.5C81.45,-0.5 161.45,-0.5 161.45,-0.5 167.45,-0.5 173.45,-6.5 173.45,-12.5 173.45,-12.5 173.45,-24.5 173.45,-24.5 173.45,-30.5 167.45,-36.5 161.45,-36.5 161.45,-36.5 81.45,-36.5 81.45,-36.5 75.45,-36.5 69.45,-30.5 69.45,-24.5 69.45,-24.5 69.45,-12.5 69.45,-12.5 69.45,-6.5 75.45,-0.5 81.45,-0.5"/>
<text text-anchor="middle" x="121.45" y="-14.8" font-family="Arial" font-size="14.00" fill="#000000">ruby.tcp_cntrl4</text>
</g>
<!-- system.ruby.tcp_cntrl4&#45;&#45;system.ruby.network.ext_links03.int_node -->
<g id="edge10" class="edge">
<title>system.ruby.tcp_cntrl4&#45;&#45;system.ruby.network.ext_links03.int_node</title>
<path fill="none" stroke="#381526" d="M128.21,-46.69C130.65,-56.85 133.4,-68.31 135.84,-78.48"/>
<polygon fill="#381526" stroke="#381526" points="131.57,-45.69 125.83,-36.79 124.76,-47.33 131.57,-45.69"/>
<polygon fill="#381526" stroke="#381526" points="132.5,-79.59 138.24,-88.5 139.31,-77.95 132.5,-79.59"/>
</g>
<!-- system.ruby.tcp_cntrl5 -->
<g id="node12" class="node">
<title>system.ruby.tcp_cntrl5</title>
<path fill="#e5bcd0" stroke="#000000" d="M14.06,-63.17C14.06,-63.17 94.06,-63.17 94.06,-63.17 100.06,-63.17 106.06,-69.17 106.06,-75.17 106.06,-75.17 106.06,-87.17 106.06,-87.17 106.06,-93.17 100.06,-99.17 94.06,-99.17 94.06,-99.17 14.06,-99.17 14.06,-99.17 8.06,-99.17 2.06,-93.17 2.06,-87.17 2.06,-87.17 2.06,-75.17 2.06,-75.17 2.06,-69.17 8.06,-63.17 14.06,-63.17"/>
<text text-anchor="middle" x="54.06" y="-77.47" font-family="Arial" font-size="14.00" fill="#000000">ruby.tcp_cntrl5</text>
</g>
<!-- system.ruby.tcp_cntrl5&#45;&#45;system.ruby.network.ext_links03.int_node -->
<g id="edge11" class="edge">
<title>system.ruby.tcp_cntrl5&#45;&#45;system.ruby.network.ext_links03.int_node</title>
<path fill="none" stroke="#381526" d="M115.07,-98.8C115.12,-98.81 115.16,-98.82 115.21,-98.84"/>
<polygon fill="#381526" stroke="#381526" points="116.67,-95.62 106.09,-96.2 114.73,-102.34 116.67,-95.62"/>
<polygon fill="#381526" stroke="#381526" points="104.77,-99.46 115.35,-98.88 106.71,-92.73 104.77,-99.46"/>
</g>
<!-- system.ruby.tcp_cntrl6 -->
<g id="node13" class="node">
<title>system.ruby.tcp_cntrl6</title>
<path fill="#e5bcd0" stroke="#000000" d="M194.8,-93.23C194.8,-93.23 274.8,-93.23 274.8,-93.23 280.8,-93.23 286.8,-99.23 286.8,-105.23 286.8,-105.23 286.8,-117.23 286.8,-117.23 286.8,-123.23 280.8,-129.23 274.8,-129.23 274.8,-129.23 194.8,-129.23 194.8,-129.23 188.8,-129.23 182.8,-123.23 182.8,-117.23 182.8,-117.23 182.8,-105.23 182.8,-105.23 182.8,-99.23 188.8,-93.23 194.8,-93.23"/>
<text text-anchor="middle" x="234.8" y="-107.53" font-family="Arial" font-size="14.00" fill="#000000">ruby.tcp_cntrl6</text>
</g>
<!-- system.ruby.tcp_cntrl6&#45;&#45;system.ruby.network.ext_links03.int_node -->
<g id="edge12" class="edge">
<title>system.ruby.tcp_cntrl6&#45;&#45;system.ruby.network.ext_links03.int_node</title>
<path fill="none" stroke="#381526" d="M172.66,-108.22C172.55,-108.21 172.43,-108.21 172.32,-108.2"/>
<polygon fill="#381526" stroke="#381526" points="172.63,-111.72 182.79,-108.71 172.97,-104.73 172.63,-111.72"/>
<polygon fill="#381526" stroke="#381526" points="180.1,-105.07 169.94,-108.09 179.76,-112.07 180.1,-105.07"/>
</g>
<!-- system.ruby.tcp_cntrl7 -->
<g id="node14" class="node">
<title>system.ruby.tcp_cntrl7</title>
<path fill="#e5bcd0" stroke="#000000" d="M182.52,-126.21C182.52,-126.21 262.52,-126.21 262.52,-126.21 268.52,-126.21 274.52,-132.21 274.52,-138.21 274.52,-138.21 274.52,-150.21 274.52,-150.21 274.52,-156.21 268.52,-162.21 262.52,-162.21 262.52,-162.21 182.52,-162.21 182.52,-162.21 176.52,-162.21 170.52,-156.21 170.52,-150.21 170.52,-150.21 170.52,-138.21 170.52,-138.21 170.52,-132.21 176.52,-126.21 182.52,-126.21"/>
<text text-anchor="middle" x="222.52" y="-140.51" font-family="Arial" font-size="14.00" fill="#000000">ruby.tcp_cntrl7</text>
</g>
<!-- system.ruby.tcp_cntrl7&#45;&#45;system.ruby.network.ext_links03.int_node -->
<g id="edge13" class="edge">
<title>system.ruby.tcp_cntrl7&#45;&#45;system.ruby.network.ext_links03.int_node</title>
<path fill="none" stroke="#381526" d="M174.59,-121.75C174.49,-121.7 174.39,-121.65 174.29,-121.6"/>
<polygon fill="#381526" stroke="#381526" points="173.43,-125.07 183.97,-126.14 176.41,-118.73 173.43,-125.07"/>
<polygon fill="#381526" stroke="#381526" points="180.34,-120.58 169.8,-119.5 177.37,-126.92 180.34,-120.58"/>
</g>
<!-- system.ruby.sqc_cntrl0 -->
<g id="node15" class="node">
<title>system.ruby.sqc_cntrl0</title>
<path fill="#e5bcd0" stroke="#000000" d="M151.5,-147.67C151.5,-147.67 234.5,-147.67 234.5,-147.67 240.5,-147.67 246.5,-153.67 246.5,-159.67 246.5,-159.67 246.5,-171.67 246.5,-171.67 246.5,-177.67 240.5,-183.67 234.5,-183.67 234.5,-183.67 151.5,-183.67 151.5,-183.67 145.5,-183.67 139.5,-177.67 139.5,-171.67 139.5,-171.67 139.5,-159.67 139.5,-159.67 139.5,-153.67 145.5,-147.67 151.5,-147.67"/>
<text text-anchor="middle" x="193" y="-161.97" font-family="Arial" font-size="14.00" fill="#000000">ruby.sqc_cntrl0</text>
</g>
<!-- system.ruby.sqc_cntrl0&#45;&#45;system.ruby.network.ext_links03.int_node -->
<g id="edge14" class="edge">
<title>system.ruby.sqc_cntrl0&#45;&#45;system.ruby.network.ext_links03.int_node</title>
<path fill="none" stroke="#381526" d="M170.78,-139.69C168.78,-137.34 166.75,-134.97 164.74,-132.63"/>
<polygon fill="#381526" stroke="#381526" points="168.18,-142.03 177.34,-147.36 173.5,-137.48 168.18,-142.03"/>
<polygon fill="#381526" stroke="#381526" points="167.26,-130.19 158.11,-124.86 161.94,-134.74 167.26,-130.19"/>
</g>
<!-- system.ruby.sqc_cntrl1 -->
<g id="node16" class="node">
<title>system.ruby.sqc_cntrl1</title>
<path fill="#e5bcd0" stroke="#000000" d="M153.25,-52.86C153.25,-52.86 236.25,-52.86 236.25,-52.86 242.25,-52.86 248.25,-58.86 248.25,-64.86 248.25,-64.86 248.25,-76.86 248.25,-76.86 248.25,-82.86 242.25,-88.86 236.25,-88.86 236.25,-88.86 153.25,-88.86 153.25,-88.86 147.25,-88.86 141.25,-82.86 141.25,-76.86 141.25,-76.86 141.25,-64.86 141.25,-64.86 141.25,-58.86 147.25,-52.86 153.25,-52.86"/>
<text text-anchor="middle" x="194.75" y="-67.16" font-family="Arial" font-size="14.00" fill="#000000">ruby.sqc_cntrl1</text>
</g>
<!-- system.ruby.sqc_cntrl1&#45;&#45;system.ruby.network.ext_links03.int_node -->
<g id="edge15" class="edge">
<title>system.ruby.sqc_cntrl1&#45;&#45;system.ruby.network.ext_links03.int_node</title>
<path fill="none" stroke="#381526" d="M168.23,-89.12C168.2,-89.14 168.18,-89.16 168.15,-89.18"/>
<polygon fill="#381526" stroke="#381526" points="162.13,-97.58 168.38,-89.02 158.16,-91.81 162.13,-97.58"/>
<polygon fill="#381526" stroke="#381526" points="174.33,-80.67 168.08,-89.23 178.3,-86.44 174.33,-80.67"/>
</g>
<!-- system.ruby.scalar_cntrl0 -->
<g id="node17" class="node">
<title>system.ruby.scalar_cntrl0</title>
<path fill="#e5bcd0" stroke="#000000" d="M147.99,-11.67C147.99,-11.67 245.99,-11.67 245.99,-11.67 251.99,-11.67 257.99,-17.67 257.99,-23.67 257.99,-23.67 257.99,-35.67 257.99,-35.67 257.99,-41.67 251.99,-47.67 245.99,-47.67 245.99,-47.67 147.99,-47.67 147.99,-47.67 141.99,-47.67 135.99,-41.67 135.99,-35.67 135.99,-35.67 135.99,-23.67 135.99,-23.67 135.99,-17.67 141.99,-11.67 147.99,-11.67"/>
<text text-anchor="middle" x="196.99" y="-25.97" font-family="Arial" font-size="14.00" fill="#000000">ruby.scalar_cntrl0</text>
</g>
<!-- system.ruby.scalar_cntrl0&#45;&#45;system.ruby.network.ext_links03.int_node -->
<g id="edge16" class="edge">
<title>system.ruby.scalar_cntrl0&#45;&#45;system.ruby.network.ext_links03.int_node</title>
<path fill="none" stroke="#381526" d="M178.31,-56.16C172.82,-63.93 166.83,-72.44 161.34,-80.22"/>
<polygon fill="#381526" stroke="#381526" points="181.2,-58.13 184.1,-47.94 175.48,-54.09 181.2,-58.13"/>
<polygon fill="#381526" stroke="#381526" points="158.32,-78.43 155.41,-88.62 164.04,-82.47 158.32,-78.43"/>
</g>
<!-- system.ruby.scalar_cntrl1 -->
<g id="node18" class="node">
<title>system.ruby.scalar_cntrl1</title>
<path fill="#e5bcd0" stroke="#000000" d="M12,-134.16C12,-134.16 110,-134.16 110,-134.16 116,-134.16 122,-140.16 122,-146.16 122,-146.16 122,-158.16 122,-158.16 122,-164.16 116,-170.16 110,-170.16 110,-170.16 12,-170.16 12,-170.16 6,-170.16 0,-164.16 0,-158.16 0,-158.16 0,-146.16 0,-146.16 0,-140.16 6,-134.16 12,-134.16"/>
<text text-anchor="middle" x="61" y="-148.46" font-family="Arial" font-size="14.00" fill="#000000">ruby.scalar_cntrl1</text>
</g>
<!-- system.ruby.scalar_cntrl1&#45;&#45;system.ruby.network.ext_links03.int_node -->
<g id="edge17" class="edge">
<title>system.ruby.scalar_cntrl1&#45;&#45;system.ruby.network.ext_links03.int_node</title>
<path fill="none" stroke="#381526" d="M102.6,-129.02C103.82,-128.35 105.04,-127.67 106.25,-126.99"/>
<polygon fill="#381526" stroke="#381526" points="100.77,-126.04 93.73,-133.96 104.17,-132.15 100.77,-126.04"/>
<polygon fill="#381526" stroke="#381526" points="108.35,-129.83 115.39,-121.91 104.95,-123.71 108.35,-129.83"/>
</g>
<!-- system.ruby.tcc_cntrl0 -->
<g id="node19" class="node">
<title>system.ruby.tcc_cntrl0</title>
<path fill="#e5bcd0" stroke="#000000" d="M12.66,-98.39C12.66,-98.39 92.66,-98.39 92.66,-98.39 98.66,-98.39 104.66,-104.39 104.66,-110.39 104.66,-110.39 104.66,-122.39 104.66,-122.39 104.66,-128.39 98.66,-134.39 92.66,-134.39 92.66,-134.39 12.66,-134.39 12.66,-134.39 6.66,-134.39 0.66,-128.39 0.66,-122.39 0.66,-122.39 0.66,-110.39 0.66,-110.39 0.66,-104.39 6.66,-98.39 12.66,-98.39"/>
<text text-anchor="middle" x="52.66" y="-112.69" font-family="Arial" font-size="14.00" fill="#000000">ruby.tcc_cntrl0</text>
</g>
<!-- system.ruby.tcc_cntrl0&#45;&#45;system.ruby.network.ext_links03.int_node -->
<g id="edge18" class="edge">
<title>system.ruby.tcc_cntrl0&#45;&#45;system.ruby.network.ext_links03.int_node</title>
<path fill="none" stroke="#381526" d="M114.96,-109.72C115.07,-109.71 115.18,-109.7 115.29,-109.69"/>
<polygon fill="#381526" stroke="#381526" points="114.3,-106.27 104.73,-110.82 115.05,-113.23 114.3,-106.27"/>
<polygon fill="#381526" stroke="#381526" points="106.05,-114.2 115.62,-109.65 105.3,-107.24 106.05,-114.2"/>
</g>
<!-- system.dma_cntrl0 -->
<g id="node20" class="node">
<title>system.dma_cntrl0</title>
<path fill="#e5bcd0" stroke="#000000" d="M64.32,-144.52C64.32,-144.52 124.32,-144.52 124.32,-144.52 130.32,-144.52 136.32,-150.52 136.32,-156.52 136.32,-156.52 136.32,-168.52 136.32,-168.52 136.32,-174.52 130.32,-180.52 124.32,-180.52 124.32,-180.52 64.32,-180.52 64.32,-180.52 58.32,-180.52 52.32,-174.52 52.32,-168.52 52.32,-168.52 52.32,-156.52 52.32,-156.52 52.32,-150.52 58.32,-144.52 64.32,-144.52"/>
<text text-anchor="middle" x="94.32" y="-158.82" font-family="Arial" font-size="14.00" fill="#000000">dma_cntrl0</text>
</g>
<!-- system.dma_cntrl0&#45;&#45;system.ruby.network.ext_links03.int_node -->
<g id="edge19" class="edge">
<title>system.dma_cntrl0&#45;&#45;system.ruby.network.ext_links03.int_node</title>
<path fill="none" stroke="#381526" d="M116.94,-136.41C117.99,-135.19 119.05,-133.97 120.11,-132.75"/>
<polygon fill="#381526" stroke="#381526" points="114.04,-134.41 110.14,-144.26 119.33,-138.99 114.04,-134.41"/>
<polygon fill="#381526" stroke="#381526" points="123.03,-134.72 126.94,-124.87 117.74,-130.13 123.03,-134.72"/>
</g>
<!-- system.dma_cntrl1 -->
<g id="node21" class="node">
<title>system.dma_cntrl1</title>
<path fill="#e5bcd0" stroke="#000000" d="M113.47,-146.49C113.47,-146.49 173.47,-146.49 173.47,-146.49 179.47,-146.49 185.47,-152.49 185.47,-158.49 185.47,-158.49 185.47,-170.49 185.47,-170.49 185.47,-176.49 179.47,-182.49 173.47,-182.49 173.47,-182.49 113.47,-182.49 113.47,-182.49 107.47,-182.49 101.47,-176.49 101.47,-170.49 101.47,-170.49 101.47,-158.49 101.47,-158.49 101.47,-152.49 107.47,-146.49 113.47,-146.49"/>
<text text-anchor="middle" x="143.47" y="-160.79" font-family="Arial" font-size="14.00" fill="#000000">dma_cntrl1</text>
</g>
<!-- system.dma_cntrl1&#45;&#45;system.ruby.network.ext_links03.int_node -->
<g id="edge20" class="edge">
<title>system.dma_cntrl1&#45;&#45;system.ruby.network.ext_links03.int_node</title>
<path fill="none" stroke="#381526" d="M143.05,-136C143.05,-135.77 143.05,-135.54 143.04,-135.31"/>
<polygon fill="#381526" stroke="#381526" points="139.56,-136.28 143.2,-146.22 146.56,-136.17 139.56,-136.28"/>
<polygon fill="#381526" stroke="#381526" points="146.54,-135.05 142.89,-125.11 139.54,-135.16 146.54,-135.05"/>
</g>
</g>
</svg>
