<?xml version="1.0" encoding="UTF-8" standalone="no"?>
<!DOCTYPE svg PUBLIC "-//W3C//DTD SVG 1.1//EN"
 "http://www.w3.org/Graphics/SVG/1.1/DTD/svg11.dtd">
<!-- Generated by graphviz version 2.43.0 (0)
 -->
<!-- Title: G Pages: 1 -->
<svg width="480pt" height="403pt"
 viewBox="0.00 0.00 479.51 402.65" xmlns="http://www.w3.org/2000/svg" xmlns:xlink="http://www.w3.org/1999/xlink">
<g id="graph0" class="graph" transform="scale(1 1) rotate(0) translate(4 398.65)">
<title>G</title>
<polygon fill="white" stroke="transparent" points="-4,4 -4,-398.65 475.51,-398.65 475.51,4 -4,4"/>
<!-- board.cache_hierarchy.ruby_system.network.routers00 -->
<g id="node1" class="node">
<title>board.cache_hierarchy.ruby_system.network.routers00</title>
<path fill="#cce6fc" stroke="#000000" d="M137.48,-197.39C137.48,-197.39 167.48,-197.39 167.48,-197.39 173.48,-197.39 179.48,-203.39 179.48,-209.39 179.48,-209.39 179.48,-221.39 179.48,-221.39 179.48,-227.39 173.48,-233.39 167.48,-233.39 167.48,-233.39 137.48,-233.39 137.48,-233.39 131.48,-233.39 125.48,-227.39 125.48,-221.39 125.48,-221.39 125.48,-209.39 125.48,-209.39 125.48,-203.39 131.48,-197.39 137.48,-197.39"/>
<text text-anchor="middle" x="152.48" y="-211.69" font-family="Arial" font-size="14.00" fill="#000000">R 0</text>
</g>
<!-- board.cache_hierarchy.ruby_system.network.routers18 -->
<g id="node19" class="node">
<title>board.cache_hierarchy.ruby_system.network.routers18</title>
<path fill="#cce6fc" stroke="#000000" d="M221.78,-177.38C221.78,-177.38 251.78,-177.38 251.78,-177.38 257.78,-177.38 263.78,-183.38 263.78,-189.38 263.78,-189.38 263.78,-201.38 263.78,-201.38 263.78,-207.38 257.78,-213.38 251.78,-213.38 251.78,-213.38 221.78,-213.38 221.78,-213.38 215.78,-213.38 209.78,-207.38 209.78,-201.38 209.78,-201.38 209.78,-189.38 209.78,-189.38 209.78,-183.38 215.78,-177.38 221.78,-177.38"/>
<text text-anchor="middle" x="236.78" y="-191.68" font-family="Arial" font-size="14.00" fill="#000000">R 18</text>
</g>
<!-- board.cache_hierarchy.ruby_system.network.routers00&#45;&#45;board.cache_hierarchy.ruby_system.network.routers18 -->
<g id="edge1" class="edge">
<title>board.cache_hierarchy.ruby_system.network.routers00&#45;&#45;board.cache_hierarchy.ruby_system.network.routers18</title>
<path fill="none" stroke="#042d50" d="M179.61,-208.95C186.08,-207.42 193.09,-205.75 199.92,-204.13"/>
<polygon fill="#042d50" stroke="#042d50" points="200.77,-207.53 209.69,-201.81 199.16,-200.72 200.77,-207.53"/>
</g>
<!-- board.cache_hierarchy.ruby_system.network.routers01 -->
<g id="node2" class="node">
<title>board.cache_hierarchy.ruby_system.network.routers01</title>
<path fill="#cce6fc" stroke="#000000" d="M150.64,-140.3C150.64,-140.3 180.64,-140.3 180.64,-140.3 186.64,-140.3 192.64,-146.3 192.64,-152.3 192.64,-152.3 192.64,-164.3 192.64,-164.3 192.64,-170.3 186.64,-176.3 180.64,-176.3 180.64,-176.3 150.64,-176.3 150.64,-176.3 144.64,-176.3 138.64,-170.3 138.64,-164.3 138.64,-164.3 138.64,-152.3 138.64,-152.3 138.64,-146.3 144.64,-140.3 150.64,-140.3"/>
<text text-anchor="middle" x="165.64" y="-154.6" font-family="Arial" font-size="14.00" fill="#000000">R 1</text>
</g>
<!-- board.cache_hierarchy.ruby_system.network.routers01&#45;&#45;board.cache_hierarchy.ruby_system.network.routers18 -->
<g id="edge2" class="edge">
<title>board.cache_hierarchy.ruby_system.network.routers01&#45;&#45;board.cache_hierarchy.ruby_system.network.routers18</title>
<path fill="none" stroke="#042d50" d="M192.94,-172.53C195.51,-173.87 198.14,-175.25 200.78,-176.62"/>
<polygon fill="#042d50" stroke="#042d50" points="199.18,-179.74 209.67,-181.25 202.42,-173.53 199.18,-179.74"/>
</g>
<!-- board.cache_hierarchy.ruby_system.network.routers02 -->
<g id="node3" class="node">
<title>board.cache_hierarchy.ruby_system.network.routers02</title>
<path fill="#cce6fc" stroke="#000000" d="M163.34,-114.01C163.34,-114.01 193.34,-114.01 193.34,-114.01 199.34,-114.01 205.34,-120.01 205.34,-126.01 205.34,-126.01 205.34,-138.01 205.34,-138.01 205.34,-144.01 199.34,-150.01 193.34,-150.01 193.34,-150.01 163.34,-150.01 163.34,-150.01 157.34,-150.01 151.34,-144.01 151.34,-138.01 151.34,-138.01 151.34,-126.01 151.34,-126.01 151.34,-120.01 157.34,-114.01 163.34,-114.01"/>
<text text-anchor="middle" x="178.34" y="-128.31" font-family="Arial" font-size="14.00" fill="#000000">R 2</text>
</g>
<!-- board.cache_hierarchy.ruby_system.network.routers02&#45;&#45;board.cache_hierarchy.ruby_system.network.routers18 -->
<g id="edge3" class="edge">
<title>board.cache_hierarchy.ruby_system.network.routers02&#45;&#45;board.cache_hierarchy.ruby_system.network.routers18</title>
<path fill="none" stroke="#042d50" d="M195.24,-150.34C200.86,-156.44 207.23,-163.34 213.26,-169.88"/>
<polygon fill="#042d50" stroke="#042d50" points="210.76,-172.34 220.12,-177.32 215.91,-167.59 210.76,-172.34"/>
</g>
<!-- board.cache_hierarchy.ruby_system.network.routers03 -->
<g id="node4" class="node">
<title>board.cache_hierarchy.ruby_system.network.routers03</title>
<path fill="#cce6fc" stroke="#000000" d="M253.09,-254.8C253.09,-254.8 283.09,-254.8 283.09,-254.8 289.09,-254.8 295.09,-260.8 295.09,-266.8 295.09,-266.8 295.09,-278.8 295.09,-278.8 295.09,-284.8 289.09,-290.8 283.09,-290.8 283.09,-290.8 253.09,-290.8 253.09,-290.8 247.09,-290.8 241.09,-284.8 241.09,-278.8 241.09,-278.8 241.09,-266.8 241.09,-266.8 241.09,-260.8 247.09,-254.8 253.09,-254.8"/>
<text text-anchor="middle" x="268.09" y="-269.1" font-family="Arial" font-size="14.00" fill="#000000">R 3</text>
</g>
<!-- board.cache_hierarchy.ruby_system.network.routers03&#45;&#45;board.cache_hierarchy.ruby_system.network.routers18 -->
<g id="edge4" class="edge">
<title>board.cache_hierarchy.ruby_system.network.routers03&#45;&#45;board.cache_hierarchy.ruby_system.network.routers18</title>
<path fill="none" stroke="#042d50" d="M260.67,-254.46C256.89,-245.1 252.21,-233.53 248,-223.12"/>
<polygon fill="#042d50" stroke="#042d50" points="251.14,-221.56 244.15,-213.6 244.65,-224.18 251.14,-221.56"/>
</g>
<!-- board.cache_hierarchy.ruby_system.network.routers04 -->
<g id="node5" class="node">
<title>board.cache_hierarchy.ruby_system.network.routers04</title>
<path fill="#cce6fc" stroke="#000000" d="M277.4,-238.84C277.4,-238.84 307.4,-238.84 307.4,-238.84 313.4,-238.84 319.4,-244.84 319.4,-250.84 319.4,-250.84 319.4,-262.84 319.4,-262.84 319.4,-268.84 313.4,-274.84 307.4,-274.84 307.4,-274.84 277.4,-274.84 277.4,-274.84 271.4,-274.84 265.4,-268.84 265.4,-262.84 265.4,-262.84 265.4,-250.84 265.4,-250.84 265.4,-244.84 271.4,-238.84 277.4,-238.84"/>
<text text-anchor="middle" x="292.4" y="-253.14" font-family="Arial" font-size="14.00" fill="#000000">R 4</text>
</g>
<!-- board.cache_hierarchy.ruby_system.network.routers04&#45;&#45;board.cache_hierarchy.ruby_system.network.routers18 -->
<g id="edge5" class="edge">
<title>board.cache_hierarchy.ruby_system.network.routers04&#45;&#45;board.cache_hierarchy.ruby_system.network.routers18</title>
<path fill="none" stroke="#042d50" d="M276.01,-238.74C271.08,-233.28 265.56,-227.19 260.26,-221.33"/>
<polygon fill="#042d50" stroke="#042d50" points="262.55,-218.64 253.24,-213.57 257.36,-223.34 262.55,-218.64"/>
</g>
<!-- board.cache_hierarchy.ruby_system.network.routers05 -->
<g id="node6" class="node">
<title>board.cache_hierarchy.ruby_system.network.routers05</title>
<path fill="#cce6fc" stroke="#000000" d="M163.03,-244.59C163.03,-244.59 193.03,-244.59 193.03,-244.59 199.03,-244.59 205.03,-250.59 205.03,-256.59 205.03,-256.59 205.03,-268.59 205.03,-268.59 205.03,-274.59 199.03,-280.59 193.03,-280.59 193.03,-280.59 163.03,-280.59 163.03,-280.59 157.03,-280.59 151.03,-274.59 151.03,-268.59 151.03,-268.59 151.03,-256.59 151.03,-256.59 151.03,-250.59 157.03,-244.59 163.03,-244.59"/>
<text text-anchor="middle" x="178.03" y="-258.89" font-family="Arial" font-size="14.00" fill="#000000">R 5</text>
</g>
<!-- board.cache_hierarchy.ruby_system.network.routers05&#45;&#45;board.cache_hierarchy.ruby_system.network.routers18 -->
<g id="edge6" class="edge">
<title>board.cache_hierarchy.ruby_system.network.routers05&#45;&#45;board.cache_hierarchy.ruby_system.network.routers18</title>
<path fill="none" stroke="#042d50" d="M193.77,-244.58C200.1,-237.35 207.5,-228.88 214.37,-221.02"/>
<polygon fill="#042d50" stroke="#042d50" points="217.05,-223.28 220.99,-213.44 211.78,-218.67 217.05,-223.28"/>
</g>
<!-- board.cache_hierarchy.ruby_system.network.routers06 -->
<g id="node7" class="node">
<title>board.cache_hierarchy.ruby_system.network.routers06</title>
<path fill="#cce6fc" stroke="#000000" d="M244.78,-91.76C244.78,-91.76 274.78,-91.76 274.78,-91.76 280.78,-91.76 286.78,-97.76 286.78,-103.76 286.78,-103.76 286.78,-115.76 286.78,-115.76 286.78,-121.76 280.78,-127.76 274.78,-127.76 274.78,-127.76 244.78,-127.76 244.78,-127.76 238.78,-127.76 232.78,-121.76 232.78,-115.76 232.78,-115.76 232.78,-103.76 232.78,-103.76 232.78,-97.76 238.78,-91.76 244.78,-91.76"/>
<text text-anchor="middle" x="259.78" y="-106.06" font-family="Arial" font-size="14.00" fill="#000000">R 6</text>
</g>
<!-- board.cache_hierarchy.ruby_system.network.routers06&#45;&#45;board.cache_hierarchy.ruby_system.network.routers18 -->
<g id="edge7" class="edge">
<title>board.cache_hierarchy.ruby_system.network.routers06&#45;&#45;board.cache_hierarchy.ruby_system.network.routers18</title>
<path fill="none" stroke="#042d50" d="M254.9,-127.92C251.82,-139.39 247.78,-154.43 244.3,-167.4"/>
<polygon fill="#042d50" stroke="#042d50" points="240.86,-166.69 241.65,-177.25 247.62,-168.5 240.86,-166.69"/>
</g>
<!-- board.cache_hierarchy.ruby_system.network.routers07 -->
<g id="node8" class="node">
<title>board.cache_hierarchy.ruby_system.network.routers07</title>
<path fill="#cce6fc" stroke="#000000" d="M304.15,-158.94C304.15,-158.94 334.15,-158.94 334.15,-158.94 340.15,-158.94 346.15,-164.94 346.15,-170.94 346.15,-170.94 346.15,-182.94 346.15,-182.94 346.15,-188.94 340.15,-194.94 334.15,-194.94 334.15,-194.94 304.15,-194.94 304.15,-194.94 298.15,-194.94 292.15,-188.94 292.15,-182.94 292.15,-182.94 292.15,-170.94 292.15,-170.94 292.15,-164.94 298.15,-158.94 304.15,-158.94"/>
<text text-anchor="middle" x="319.15" y="-173.24" font-family="Arial" font-size="14.00" fill="#000000">R 7</text>
</g>
<!-- board.cache_hierarchy.ruby_system.network.routers07&#45;&#45;board.cache_hierarchy.ruby_system.network.routers18 -->
<g id="edge8" class="edge">
<title>board.cache_hierarchy.ruby_system.network.routers07&#45;&#45;board.cache_hierarchy.ruby_system.network.routers18</title>
<path fill="none" stroke="#042d50" d="M291.72,-183.08C285.97,-184.37 279.8,-185.75 273.76,-187.1"/>
<polygon fill="#042d50" stroke="#042d50" points="272.8,-183.73 263.81,-189.33 274.33,-190.56 272.8,-183.73"/>
</g>
<!-- board.cache_hierarchy.ruby_system.network.routers08 -->
<g id="node9" class="node">
<title>board.cache_hierarchy.ruby_system.network.routers08</title>
<path fill="#cce6fc" stroke="#000000" d="M136.38,-165.84C136.38,-165.84 166.38,-165.84 166.38,-165.84 172.38,-165.84 178.38,-171.84 178.38,-177.84 178.38,-177.84 178.38,-189.84 178.38,-189.84 178.38,-195.84 172.38,-201.84 166.38,-201.84 166.38,-201.84 136.38,-201.84 136.38,-201.84 130.38,-201.84 124.38,-195.84 124.38,-189.84 124.38,-189.84 124.38,-177.84 124.38,-177.84 124.38,-171.84 130.38,-165.84 136.38,-165.84"/>
<text text-anchor="middle" x="151.38" y="-180.14" font-family="Arial" font-size="14.00" fill="#000000">R 8</text>
</g>
<!-- board.cache_hierarchy.ruby_system.network.routers08&#45;&#45;board.cache_hierarchy.ruby_system.network.routers18 -->
<g id="edge9" class="edge">
<title>board.cache_hierarchy.ruby_system.network.routers08&#45;&#45;board.cache_hierarchy.ruby_system.network.routers18</title>
<path fill="none" stroke="#042d50" d="M178.4,-187.49C185.1,-188.4 192.4,-189.38 199.49,-190.34"/>
<polygon fill="#042d50" stroke="#042d50" points="199.26,-193.84 209.64,-191.71 200.2,-186.91 199.26,-193.84"/>
</g>
<!-- board.cache_hierarchy.ruby_system.network.routers09 -->
<g id="node10" class="node">
<title>board.cache_hierarchy.ruby_system.network.routers09</title>
<path fill="#cce6fc" stroke="#000000" d="M219.47,-105.18C219.47,-105.18 249.47,-105.18 249.47,-105.18 255.47,-105.18 261.47,-111.18 261.47,-117.18 261.47,-117.18 261.47,-129.18 261.47,-129.18 261.47,-135.18 255.47,-141.18 249.47,-141.18 249.47,-141.18 219.47,-141.18 219.47,-141.18 213.47,-141.18 207.47,-135.18 207.47,-129.18 207.47,-129.18 207.47,-117.18 207.47,-117.18 207.47,-111.18 213.47,-105.18 219.47,-105.18"/>
<text text-anchor="middle" x="234.47" y="-119.48" font-family="Arial" font-size="14.00" fill="#000000">R 9</text>
</g>
<!-- board.cache_hierarchy.ruby_system.network.routers09&#45;&#45;board.cache_hierarchy.ruby_system.network.routers18 -->
<g id="edge10" class="edge">
<title>board.cache_hierarchy.ruby_system.network.routers09&#45;&#45;board.cache_hierarchy.ruby_system.network.routers18</title>
<path fill="none" stroke="#042d50" d="M235.05,-141.4C235.3,-149.18 235.6,-158.45 235.88,-167.09"/>
<polygon fill="#042d50" stroke="#042d50" points="232.38,-167.29 236.2,-177.17 239.38,-167.06 232.38,-167.29"/>
</g>
<!-- board.cache_hierarchy.ruby_system.network.routers10 -->
<g id="node11" class="node">
<title>board.cache_hierarchy.ruby_system.network.routers10</title>
<path fill="#cce6fc" stroke="#000000" d="M290.91,-132.9C290.91,-132.9 320.91,-132.9 320.91,-132.9 326.91,-132.9 332.91,-138.9 332.91,-144.9 332.91,-144.9 332.91,-156.9 332.91,-156.9 332.91,-162.9 326.91,-168.9 320.91,-168.9 320.91,-168.9 290.91,-168.9 290.91,-168.9 284.91,-168.9 278.91,-162.9 278.91,-156.9 278.91,-156.9 278.91,-144.9 278.91,-144.9 278.91,-138.9 284.91,-132.9 290.91,-132.9"/>
<text text-anchor="middle" x="305.91" y="-147.2" font-family="Arial" font-size="14.00" fill="#000000">R 10</text>
</g>
<!-- board.cache_hierarchy.ruby_system.network.routers10&#45;&#45;board.cache_hierarchy.ruby_system.network.routers18 -->
<g id="edge11" class="edge">
<title>board.cache_hierarchy.ruby_system.network.routers10&#45;&#45;board.cache_hierarchy.ruby_system.network.routers18</title>
<path fill="none" stroke="#042d50" d="M278.59,-168.48C276.63,-169.74 274.63,-171.03 272.63,-172.31"/>
<polygon fill="#042d50" stroke="#042d50" points="270.42,-169.57 263.9,-177.93 274.21,-175.46 270.42,-169.57"/>
</g>
<!-- board.cache_hierarchy.ruby_system.network.routers11 -->
<g id="node12" class="node">
<title>board.cache_hierarchy.ruby_system.network.routers11</title>
<path fill="#cce6fc" stroke="#000000" d="M195.18,-257.43C195.18,-257.43 225.18,-257.43 225.18,-257.43 231.18,-257.43 237.18,-263.43 237.18,-269.43 237.18,-269.43 237.18,-281.43 237.18,-281.43 237.18,-287.43 231.18,-293.43 225.18,-293.43 225.18,-293.43 195.18,-293.43 195.18,-293.43 189.18,-293.43 183.18,-287.43 183.18,-281.43 183.18,-281.43 183.18,-269.43 183.18,-269.43 183.18,-263.43 189.18,-257.43 195.18,-257.43"/>
<text text-anchor="middle" x="210.18" y="-271.73" font-family="Arial" font-size="14.00" fill="#000000">R 11</text>
</g>
<!-- board.cache_hierarchy.ruby_system.network.routers11&#45;&#45;board.cache_hierarchy.ruby_system.network.routers18 -->
<g id="edge12" class="edge">
<title>board.cache_hierarchy.ruby_system.network.routers11&#45;&#45;board.cache_hierarchy.ruby_system.network.routers18</title>
<path fill="none" stroke="#042d50" d="M216.22,-257.26C219.55,-247.23 223.76,-234.56 227.5,-223.3"/>
<polygon fill="#042d50" stroke="#042d50" points="230.94,-224.07 230.77,-213.48 224.29,-221.86 230.94,-224.07"/>
</g>
<!-- board.cache_hierarchy.ruby_system.network.routers12 -->
<g id="node13" class="node">
<title>board.cache_hierarchy.ruby_system.network.routers12</title>
<path fill="#cce6fc" stroke="#000000" d="M296.02,-216.33C296.02,-216.33 326.02,-216.33 326.02,-216.33 332.02,-216.33 338.02,-222.33 338.02,-228.33 338.02,-228.33 338.02,-240.33 338.02,-240.33 338.02,-246.33 332.02,-252.33 326.02,-252.33 326.02,-252.33 296.02,-252.33 296.02,-252.33 290.02,-252.33 284.02,-246.33 284.02,-240.33 284.02,-240.33 284.02,-228.33 284.02,-228.33 284.02,-222.33 290.02,-216.33 296.02,-216.33"/>
<text text-anchor="middle" x="311.02" y="-230.63" font-family="Arial" font-size="14.00" fill="#000000">R 12</text>
</g>
<!-- board.cache_hierarchy.ruby_system.network.routers12&#45;&#45;board.cache_hierarchy.ruby_system.network.routers18 -->
<g id="edge13" class="edge">
<title>board.cache_hierarchy.ruby_system.network.routers12&#45;&#45;board.cache_hierarchy.ruby_system.network.routers18</title>
<path fill="none" stroke="#042d50" d="M283.8,-220.05C280.27,-218.19 276.61,-216.28 272.96,-214.36"/>
<polygon fill="#042d50" stroke="#042d50" points="274.48,-211.21 264,-209.66 271.23,-217.41 274.48,-211.21"/>
</g>
<!-- board.cache_hierarchy.ruby_system.network.routers13 -->
<g id="node14" class="node">
<title>board.cache_hierarchy.ruby_system.network.routers13</title>
<path fill="#cce6fc" stroke="#000000" d="M189.83,-96.99C189.83,-96.99 219.83,-96.99 219.83,-96.99 225.83,-96.99 231.83,-102.99 231.83,-108.99 231.83,-108.99 231.83,-120.99 231.83,-120.99 231.83,-126.99 225.83,-132.99 219.83,-132.99 219.83,-132.99 189.83,-132.99 189.83,-132.99 183.83,-132.99 177.83,-126.99 177.83,-120.99 177.83,-120.99 177.83,-108.99 177.83,-108.99 177.83,-102.99 183.83,-96.99 189.83,-96.99"/>
<text text-anchor="middle" x="204.83" y="-111.29" font-family="Arial" font-size="14.00" fill="#000000">R 13</text>
</g>
<!-- board.cache_hierarchy.ruby_system.network.routers13&#45;&#45;board.cache_hierarchy.ruby_system.network.routers18 -->
<g id="edge14" class="edge">
<title>board.cache_hierarchy.ruby_system.network.routers13&#45;&#45;board.cache_hierarchy.ruby_system.network.routers18</title>
<path fill="none" stroke="#042d50" d="M212.08,-133.23C216.12,-143.41 221.24,-156.29 225.77,-167.69"/>
<polygon fill="#042d50" stroke="#042d50" points="222.61,-169.21 229.56,-177.21 229.12,-166.63 222.61,-169.21"/>
</g>
<!-- board.cache_hierarchy.ruby_system.network.routers14 -->
<g id="node15" class="node">
<title>board.cache_hierarchy.ruby_system.network.routers14</title>
<path fill="#cce6fc" stroke="#000000" d="M163.44,-216.38C163.44,-216.38 193.44,-216.38 193.44,-216.38 199.44,-216.38 205.44,-222.38 205.44,-228.38 205.44,-228.38 205.44,-240.38 205.44,-240.38 205.44,-246.38 199.44,-252.38 193.44,-252.38 193.44,-252.38 163.44,-252.38 163.44,-252.38 157.44,-252.38 151.44,-246.38 151.44,-240.38 151.44,-240.38 151.44,-228.38 151.44,-228.38 151.44,-222.38 157.44,-216.38 163.44,-216.38"/>
<text text-anchor="middle" x="178.44" y="-230.68" font-family="Arial" font-size="14.00" fill="#000000">R 14</text>
</g>
<!-- board.cache_hierarchy.ruby_system.network.routers14&#45;&#45;board.cache_hierarchy.ruby_system.network.routers18 -->
<g id="edge15" class="edge">
<title>board.cache_hierarchy.ruby_system.network.routers14&#45;&#45;board.cache_hierarchy.ruby_system.network.routers18</title>
<path fill="none" stroke="#042d50" d="M205.56,-216.25C205.72,-216.14 205.89,-216.03 206.05,-215.92"/>
<polygon fill="#042d50" stroke="#042d50" points="203.13,-222.09 209.49,-213.62 199.24,-216.27 203.13,-222.09"/>
</g>
<!-- board.cache_hierarchy.ruby_system.network.routers15 -->
<g id="node16" class="node">
<title>board.cache_hierarchy.ruby_system.network.routers15</title>
<path fill="#cce6fc" stroke="#000000" d="M303.22,-188.16C303.22,-188.16 333.22,-188.16 333.22,-188.16 339.22,-188.16 345.22,-194.16 345.22,-200.16 345.22,-200.16 345.22,-212.16 345.22,-212.16 345.22,-218.16 339.22,-224.16 333.22,-224.16 333.22,-224.16 303.22,-224.16 303.22,-224.16 297.22,-224.16 291.22,-218.16 291.22,-212.16 291.22,-212.16 291.22,-200.16 291.22,-200.16 291.22,-194.16 297.22,-188.16 303.22,-188.16"/>
<text text-anchor="middle" x="318.22" y="-202.46" font-family="Arial" font-size="14.00" fill="#000000">R 15</text>
</g>
<!-- board.cache_hierarchy.ruby_system.network.routers15&#45;&#45;board.cache_hierarchy.ruby_system.network.routers18 -->
<g id="edge16" class="edge">
<title>board.cache_hierarchy.ruby_system.network.routers15&#45;&#45;board.cache_hierarchy.ruby_system.network.routers18</title>
<path fill="none" stroke="#042d50" d="M291.1,-202.57C285.66,-201.85 279.86,-201.08 274.15,-200.33"/>
<polygon fill="#042d50" stroke="#042d50" points="274.43,-196.84 264.06,-198.99 273.51,-203.78 274.43,-196.84"/>
</g>
<!-- board.cache_hierarchy.ruby_system.network.routers16 -->
<g id="node17" class="node">
<title>board.cache_hierarchy.ruby_system.network.routers16</title>
<path fill="#cce6fc" stroke="#000000" d="M272.43,-110.31C272.43,-110.31 302.43,-110.31 302.43,-110.31 308.43,-110.31 314.43,-116.31 314.43,-122.31 314.43,-122.31 314.43,-134.31 314.43,-134.31 314.43,-140.31 308.43,-146.31 302.43,-146.31 302.43,-146.31 272.43,-146.31 272.43,-146.31 266.43,-146.31 260.43,-140.31 260.43,-134.31 260.43,-134.31 260.43,-122.31 260.43,-122.31 260.43,-116.31 266.43,-110.31 272.43,-110.31"/>
<text text-anchor="middle" x="287.43" y="-124.61" font-family="Arial" font-size="14.00" fill="#000000">R 16</text>
</g>
<!-- board.cache_hierarchy.ruby_system.network.routers16&#45;&#45;board.cache_hierarchy.ruby_system.network.routers18 -->
<g id="edge17" class="edge">
<title>board.cache_hierarchy.ruby_system.network.routers16&#45;&#45;board.cache_hierarchy.ruby_system.network.routers18</title>
<path fill="none" stroke="#042d50" d="M273.59,-146.64C268.45,-153.44 262.52,-161.3 256.93,-168.7"/>
<polygon fill="#042d50" stroke="#042d50" points="253.84,-166.99 250.6,-177.08 259.42,-171.21 253.84,-166.99"/>
</g>
<!-- board.cache_hierarchy.ruby_system.network.routers17 -->
<g id="node18" class="node">
<title>board.cache_hierarchy.ruby_system.network.routers17</title>
<path fill="#cce6fc" stroke="#000000" d="M224.54,-260.54C224.54,-260.54 254.54,-260.54 254.54,-260.54 260.54,-260.54 266.54,-266.54 266.54,-272.54 266.54,-272.54 266.54,-284.54 266.54,-284.54 266.54,-290.54 260.54,-296.54 254.54,-296.54 254.54,-296.54 224.54,-296.54 224.54,-296.54 218.54,-296.54 212.54,-290.54 212.54,-284.54 212.54,-284.54 212.54,-272.54 212.54,-272.54 212.54,-266.54 218.54,-260.54 224.54,-260.54"/>
<text text-anchor="middle" x="239.54" y="-274.84" font-family="Arial" font-size="14.00" fill="#000000">R 17</text>
</g>
<!-- board.cache_hierarchy.ruby_system.network.routers17&#45;&#45;board.cache_hierarchy.ruby_system.network.routers18 -->
<g id="edge18" class="edge">
<title>board.cache_hierarchy.ruby_system.network.routers17&#45;&#45;board.cache_hierarchy.ruby_system.network.routers18</title>
<path fill="none" stroke="#042d50" d="M238.94,-260.5C238.58,-249.71 238.12,-235.77 237.72,-223.56"/>
<polygon fill="#042d50" stroke="#042d50" points="241.21,-223.27 237.38,-213.39 234.21,-223.5 241.21,-223.27"/>
</g>
<!-- board.cache_hierarchy.ruby_system.l1_controllers00 -->
<g id="node20" class="node">
<title>board.cache_hierarchy.ruby_system.l1_controllers00</title>
<path fill="#e5bcd0" stroke="#000000" d="M14.61,-217.3C14.61,-217.3 102.61,-217.3 102.61,-217.3 108.61,-217.3 114.61,-223.3 114.61,-229.3 114.61,-229.3 114.61,-241.3 114.61,-241.3 114.61,-247.3 108.61,-253.3 102.61,-253.3 102.61,-253.3 14.61,-253.3 14.61,-253.3 8.61,-253.3 2.61,-247.3 2.61,-241.3 2.61,-241.3 2.61,-229.3 2.61,-229.3 2.61,-223.3 8.61,-217.3 14.61,-217.3"/>
<text text-anchor="middle" x="58.61" y="-231.6" font-family="Arial" font-size="14.00" fill="#000000">l1_controllers00</text>
</g>
<!-- board.cache_hierarchy.ruby_system.l1_controllers00&#45;&#45;board.cache_hierarchy.ruby_system.network.routers00 -->
<g id="edge19" class="edge">
<title>board.cache_hierarchy.ruby_system.l1_controllers00&#45;&#45;board.cache_hierarchy.ruby_system.network.routers00</title>
<path fill="none" stroke="#381526" d="M124.67,-221.29C124.77,-221.27 124.88,-221.25 124.98,-221.22"/>
<polygon fill="#381526" stroke="#381526" points="123.89,-217.88 114.84,-223.38 125.35,-224.73 123.89,-217.88"/>
<polygon fill="#381526" stroke="#381526" points="116.24,-226.66 125.3,-221.16 114.79,-219.81 116.24,-226.66"/>
</g>
<!-- board.cache_hierarchy.ruby_system.l1_controllers01 -->
<g id="node21" class="node">
<title>board.cache_hierarchy.ruby_system.l1_controllers01</title>
<path fill="#e5bcd0" stroke="#000000" d="M32.91,-94.33C32.91,-94.33 120.91,-94.33 120.91,-94.33 126.91,-94.33 132.91,-100.33 132.91,-106.33 132.91,-106.33 132.91,-118.33 132.91,-118.33 132.91,-124.33 126.91,-130.33 120.91,-130.33 120.91,-130.33 32.91,-130.33 32.91,-130.33 26.91,-130.33 20.91,-124.33 20.91,-118.33 20.91,-118.33 20.91,-106.33 20.91,-106.33 20.91,-100.33 26.91,-94.33 32.91,-94.33"/>
<text text-anchor="middle" x="76.91" y="-108.63" font-family="Arial" font-size="14.00" fill="#000000">l1_controllers01</text>
</g>
<!-- board.cache_hierarchy.ruby_system.l1_controllers01&#45;&#45;board.cache_hierarchy.ruby_system.network.routers01 -->
<g id="edge20" class="edge">
<title>board.cache_hierarchy.ruby_system.l1_controllers01&#45;&#45;board.cache_hierarchy.ruby_system.network.routers01</title>
<path fill="none" stroke="#381526" d="M120.64,-134.99C123.6,-136.52 126.58,-138.06 129.5,-139.58"/>
<polygon fill="#381526" stroke="#381526" points="122.21,-131.86 111.72,-130.37 118.99,-138.08 122.21,-131.86"/>
<polygon fill="#381526" stroke="#381526" points="128.12,-142.8 138.6,-144.3 131.34,-136.59 128.12,-142.8"/>
</g>
<!-- board.cache_hierarchy.ruby_system.l1_controllers02 -->
<g id="node22" class="node">
<title>board.cache_hierarchy.ruby_system.l1_controllers02</title>
<path fill="#e5bcd0" stroke="#000000" d="M68.98,-43.46C68.98,-43.46 156.98,-43.46 156.98,-43.46 162.98,-43.46 168.98,-49.46 168.98,-55.46 168.98,-55.46 168.98,-67.46 168.98,-67.46 168.98,-73.46 162.98,-79.46 156.98,-79.46 156.98,-79.46 68.98,-79.46 68.98,-79.46 62.98,-79.46 56.98,-73.46 56.98,-67.46 56.98,-67.46 56.98,-55.46 56.98,-55.46 56.98,-49.46 62.98,-43.46 68.98,-43.46"/>
<text text-anchor="middle" x="112.98" y="-57.76" font-family="Arial" font-size="14.00" fill="#000000">l1_controllers02</text>
</g>
<!-- board.cache_hierarchy.ruby_system.l1_controllers02&#45;&#45;board.cache_hierarchy.ruby_system.network.routers02 -->
<g id="edge21" class="edge">
<title>board.cache_hierarchy.ruby_system.l1_controllers02&#45;&#45;board.cache_hierarchy.ruby_system.network.routers02</title>
<path fill="none" stroke="#381526" d="M136.71,-87.08C142.44,-93.27 148.58,-99.89 154.32,-106.09"/>
<polygon fill="#381526" stroke="#381526" points="139.17,-84.59 129.81,-79.63 134.04,-89.35 139.17,-84.59"/>
<polygon fill="#381526" stroke="#381526" points="151.97,-108.71 161.34,-113.66 157.11,-103.95 151.97,-108.71"/>
</g>
<!-- board.cache_hierarchy.ruby_system.l1_controllers03 -->
<g id="node23" class="node">
<title>board.cache_hierarchy.ruby_system.l1_controllers03</title>
<path fill="#e5bcd0" stroke="#000000" d="M260.91,-344.98C260.91,-344.98 348.91,-344.98 348.91,-344.98 354.91,-344.98 360.91,-350.98 360.91,-356.98 360.91,-356.98 360.91,-368.98 360.91,-368.98 360.91,-374.98 354.91,-380.98 348.91,-380.98 348.91,-380.98 260.91,-380.98 260.91,-380.98 254.91,-380.98 248.91,-374.98 248.91,-368.98 248.91,-368.98 248.91,-356.98 248.91,-356.98 248.91,-350.98 254.91,-344.98 260.91,-344.98"/>
<text text-anchor="middle" x="304.91" y="-359.28" font-family="Arial" font-size="14.00" fill="#000000">l1_controllers03</text>
</g>
<!-- board.cache_hierarchy.ruby_system.l1_controllers03&#45;&#45;board.cache_hierarchy.ruby_system.network.routers03 -->
<g id="edge22" class="edge">
<title>board.cache_hierarchy.ruby_system.l1_controllers03&#45;&#45;board.cache_hierarchy.ruby_system.network.routers03</title>
<path fill="none" stroke="#381526" d="M293.61,-335.31C289.11,-324.29 283.94,-311.63 279.44,-300.6"/>
<polygon fill="#381526" stroke="#381526" points="290.44,-336.8 297.46,-344.73 296.92,-334.15 290.44,-336.8"/>
<polygon fill="#381526" stroke="#381526" points="282.55,-298.96 275.53,-291.03 276.07,-301.61 282.55,-298.96"/>
</g>
<!-- board.cache_hierarchy.ruby_system.l1_controllers04 -->
<g id="node24" class="node">
<title>board.cache_hierarchy.ruby_system.l1_controllers04</title>
<path fill="#e5bcd0" stroke="#000000" d="M314.05,-311.25C314.05,-311.25 402.05,-311.25 402.05,-311.25 408.05,-311.25 414.05,-317.25 414.05,-323.25 414.05,-323.25 414.05,-335.25 414.05,-335.25 414.05,-341.25 408.05,-347.25 402.05,-347.25 402.05,-347.25 314.05,-347.25 314.05,-347.25 308.05,-347.25 302.05,-341.25 302.05,-335.25 302.05,-335.25 302.05,-323.25 302.05,-323.25 302.05,-317.25 308.05,-311.25 314.05,-311.25"/>
<text text-anchor="middle" x="358.05" y="-325.55" font-family="Arial" font-size="14.00" fill="#000000">l1_controllers04</text>
</g>
<!-- board.cache_hierarchy.ruby_system.l1_controllers04&#45;&#45;board.cache_hierarchy.ruby_system.network.routers04 -->
<g id="edge23" class="edge">
<title>board.cache_hierarchy.ruby_system.l1_controllers04&#45;&#45;board.cache_hierarchy.ruby_system.network.routers04</title>
<path fill="none" stroke="#381526" d="M334.57,-303.36C328.42,-296.57 321.79,-289.26 315.65,-282.49"/>
<polygon fill="#381526" stroke="#381526" points="332.18,-305.92 341.49,-310.98 337.36,-301.22 332.18,-305.92"/>
<polygon fill="#381526" stroke="#381526" points="318.04,-279.92 308.73,-274.86 312.86,-284.62 318.04,-279.92"/>
</g>
<!-- board.cache_hierarchy.ruby_system.l1_controllers05 -->
<g id="node25" class="node">
<title>board.cache_hierarchy.ruby_system.l1_controllers05</title>
<path fill="#e5bcd0" stroke="#000000" d="M76.49,-319.31C76.49,-319.31 164.49,-319.31 164.49,-319.31 170.49,-319.31 176.49,-325.31 176.49,-331.31 176.49,-331.31 176.49,-343.31 176.49,-343.31 176.49,-349.31 170.49,-355.31 164.49,-355.31 164.49,-355.31 76.49,-355.31 76.49,-355.31 70.49,-355.31 64.49,-349.31 64.49,-343.31 64.49,-343.31 64.49,-331.31 64.49,-331.31 64.49,-325.31 70.49,-319.31 76.49,-319.31"/>
<text text-anchor="middle" x="120.49" y="-333.61" font-family="Arial" font-size="14.00" fill="#000000">l1_controllers05</text>
</g>
<!-- board.cache_hierarchy.ruby_system.l1_controllers05&#45;&#45;board.cache_hierarchy.ruby_system.network.routers05 -->
<g id="edge24" class="edge">
<title>board.cache_hierarchy.ruby_system.l1_controllers05&#45;&#45;board.cache_hierarchy.ruby_system.network.routers05</title>
<path fill="none" stroke="#381526" d="M140.64,-311.15C146.19,-303.94 152.22,-296.11 157.77,-288.89"/>
<polygon fill="#381526" stroke="#381526" points="137.75,-309.17 134.42,-319.23 143.29,-313.44 137.75,-309.17"/>
<polygon fill="#381526" stroke="#381526" points="160.7,-290.83 164.03,-280.77 155.16,-286.56 160.7,-290.83"/>
</g>
<!-- board.cache_hierarchy.ruby_system.l1_controllers06 -->
<g id="node26" class="node">
<title>board.cache_hierarchy.ruby_system.l1_controllers06</title>
<path fill="#e5bcd0" stroke="#000000" d="M243.77,-1.5C243.77,-1.5 331.77,-1.5 331.77,-1.5 337.77,-1.5 343.77,-7.5 343.77,-13.5 343.77,-13.5 343.77,-25.5 343.77,-25.5 343.77,-31.5 337.77,-37.5 331.77,-37.5 331.77,-37.5 243.77,-37.5 243.77,-37.5 237.77,-37.5 231.77,-31.5 231.77,-25.5 231.77,-25.5 231.77,-13.5 231.77,-13.5 231.77,-7.5 237.77,-1.5 243.77,-1.5"/>
<text text-anchor="middle" x="287.77" y="-15.8" font-family="Arial" font-size="14.00" fill="#000000">l1_controllers06</text>
</g>
<!-- board.cache_hierarchy.ruby_system.l1_controllers06&#45;&#45;board.cache_hierarchy.ruby_system.network.routers06 -->
<g id="edge25" class="edge">
<title>board.cache_hierarchy.ruby_system.l1_controllers06&#45;&#45;board.cache_hierarchy.ruby_system.network.routers06</title>
<path fill="none" stroke="#381526" d="M279.05,-47.62C275.69,-58.47 271.84,-70.86 268.48,-81.7"/>
<polygon fill="#381526" stroke="#381526" points="282.49,-48.36 282.11,-37.77 275.8,-46.28 282.49,-48.36"/>
<polygon fill="#381526" stroke="#381526" points="265.05,-80.94 265.43,-91.53 271.74,-83.01 265.05,-80.94"/>
</g>
<!-- board.cache_hierarchy.ruby_system.l1_controllers07 -->
<g id="node27" class="node">
<title>board.cache_hierarchy.ruby_system.l1_controllers07</title>
<path fill="#e5bcd0" stroke="#000000" d="M369.66,-138.17C369.66,-138.17 457.66,-138.17 457.66,-138.17 463.66,-138.17 469.66,-144.17 469.66,-150.17 469.66,-150.17 469.66,-162.17 469.66,-162.17 469.66,-168.17 463.66,-174.17 457.66,-174.17 457.66,-174.17 369.66,-174.17 369.66,-174.17 363.66,-174.17 357.66,-168.17 357.66,-162.17 357.66,-162.17 357.66,-150.17 357.66,-150.17 357.66,-144.17 363.66,-138.17 369.66,-138.17"/>
<text text-anchor="middle" x="413.66" y="-152.47" font-family="Arial" font-size="14.00" fill="#000000">l1_controllers07</text>
</g>
<!-- board.cache_hierarchy.ruby_system.l1_controllers07&#45;&#45;board.cache_hierarchy.ruby_system.network.routers07 -->
<g id="edge26" class="edge">
<title>board.cache_hierarchy.ruby_system.l1_controllers07&#45;&#45;board.cache_hierarchy.ruby_system.network.routers07</title>
<path fill="none" stroke="#381526" d="M347.49,-170.71C347.41,-170.73 347.32,-170.75 347.24,-170.77"/>
<polygon fill="#381526" stroke="#381526" points="348.58,-174.06 357.59,-168.49 347.07,-167.22 348.58,-174.06"/>
<polygon fill="#381526" stroke="#381526" points="355.5,-165.37 346.49,-170.93 357.01,-172.2 355.5,-165.37"/>
</g>
<!-- board.cache_hierarchy.ruby_system.l1_controllers08 -->
<g id="node28" class="node">
<title>board.cache_hierarchy.ruby_system.l1_controllers08</title>
<path fill="#e5bcd0" stroke="#000000" d="M12,-153.15C12,-153.15 100,-153.15 100,-153.15 106,-153.15 112,-159.15 112,-165.15 112,-165.15 112,-177.15 112,-177.15 112,-183.15 106,-189.15 100,-189.15 100,-189.15 12,-189.15 12,-189.15 6,-189.15 0,-183.15 0,-177.15 0,-177.15 0,-165.15 0,-165.15 0,-159.15 6,-153.15 12,-153.15"/>
<text text-anchor="middle" x="56" y="-167.45" font-family="Arial" font-size="14.00" fill="#000000">l1_controllers08</text>
</g>
<!-- board.cache_hierarchy.ruby_system.l1_controllers08&#45;&#45;board.cache_hierarchy.ruby_system.network.routers08 -->
<g id="edge27" class="edge">
<title>board.cache_hierarchy.ruby_system.l1_controllers08&#45;&#45;board.cache_hierarchy.ruby_system.network.routers08</title>
<path fill="none" stroke="#381526" d="M122.06,-179.94C122.16,-179.95 122.25,-179.96 122.34,-179.97"/>
<polygon fill="#381526" stroke="#381526" points="122.41,-176.45 112.04,-178.6 121.49,-183.39 122.41,-176.45"/>
<polygon fill="#381526" stroke="#381526" points="113.91,-182.38 124.28,-180.23 114.83,-175.44 113.91,-182.38"/>
</g>
<!-- board.cache_hierarchy.ruby_system.l1_controllers09 -->
<g id="node29" class="node">
<title>board.cache_hierarchy.ruby_system.l1_controllers09</title>
<path fill="#e5bcd0" stroke="#000000" d="M185.77,-0.5C185.77,-0.5 273.77,-0.5 273.77,-0.5 279.77,-0.5 285.77,-6.5 285.77,-12.5 285.77,-12.5 285.77,-24.5 285.77,-24.5 285.77,-30.5 279.77,-36.5 273.77,-36.5 273.77,-36.5 185.77,-36.5 185.77,-36.5 179.77,-36.5 173.77,-30.5 173.77,-24.5 173.77,-24.5 173.77,-12.5 173.77,-12.5 173.77,-6.5 179.77,-0.5 185.77,-0.5"/>
<text text-anchor="middle" x="229.77" y="-14.8" font-family="Arial" font-size="14.00" fill="#000000">l1_controllers09</text>
</g>
<!-- board.cache_hierarchy.ruby_system.l1_controllers09&#45;&#45;board.cache_hierarchy.ruby_system.network.routers09 -->
<g id="edge28" class="edge">
<title>board.cache_hierarchy.ruby_system.l1_controllers09&#45;&#45;board.cache_hierarchy.ruby_system.network.routers09</title>
<path fill="none" stroke="#381526" d="M231.05,-46.97C231.72,-61.9 232.54,-80.12 233.21,-95"/>
<polygon fill="#381526" stroke="#381526" points="234.54,-46.57 230.59,-36.73 227.54,-46.88 234.54,-46.57"/>
<polygon fill="#381526" stroke="#381526" points="229.72,-95.32 233.66,-105.16 236.71,-95.01 229.72,-95.32"/>
</g>
<!-- board.cache_hierarchy.ruby_system.l1_controllers10 -->
<g id="node30" class="node">
<title>board.cache_hierarchy.ruby_system.l1_controllers10</title>
<path fill="#e5bcd0" stroke="#000000" d="M344.8,-80.22C344.8,-80.22 432.8,-80.22 432.8,-80.22 438.8,-80.22 444.8,-86.22 444.8,-92.22 444.8,-92.22 444.8,-104.22 444.8,-104.22 444.8,-110.22 438.8,-116.22 432.8,-116.22 432.8,-116.22 344.8,-116.22 344.8,-116.22 338.8,-116.22 332.8,-110.22 332.8,-104.22 332.8,-104.22 332.8,-92.22 332.8,-92.22 332.8,-86.22 338.8,-80.22 344.8,-80.22"/>
<text text-anchor="middle" x="388.8" y="-94.52" font-family="Arial" font-size="14.00" fill="#000000">l1_controllers10</text>
</g>
<!-- board.cache_hierarchy.ruby_system.l1_controllers10&#45;&#45;board.cache_hierarchy.ruby_system.network.routers10 -->
<g id="edge29" class="edge">
<title>board.cache_hierarchy.ruby_system.l1_controllers10&#45;&#45;board.cache_hierarchy.ruby_system.network.routers10</title>
<path fill="none" stroke="#381526" d="M351.82,-121.72C348.48,-123.85 345.09,-126 341.75,-128.12"/>
<polygon fill="#381526" stroke="#381526" points="353.71,-124.67 360.28,-116.35 349.96,-118.76 353.71,-124.67"/>
<polygon fill="#381526" stroke="#381526" points="339.65,-125.31 333.09,-133.62 343.41,-131.22 339.65,-125.31"/>
</g>
<!-- board.cache_hierarchy.ruby_system.l1_controllers11 -->
<g id="node31" class="node">
<title>board.cache_hierarchy.ruby_system.l1_controllers11</title>
<path fill="#e5bcd0" stroke="#000000" d="M137.02,-349.88C137.02,-349.88 224.02,-349.88 224.02,-349.88 230.02,-349.88 236.02,-355.88 236.02,-361.88 236.02,-361.88 236.02,-373.88 236.02,-373.88 236.02,-379.88 230.02,-385.88 224.02,-385.88 224.02,-385.88 137.02,-385.88 137.02,-385.88 131.02,-385.88 125.02,-379.88 125.02,-373.88 125.02,-373.88 125.02,-361.88 125.02,-361.88 125.02,-355.88 131.02,-349.88 137.02,-349.88"/>
<text text-anchor="middle" x="180.52" y="-364.18" font-family="Arial" font-size="14.00" fill="#000000">l1_controllers11</text>
</g>
<!-- board.cache_hierarchy.ruby_system.l1_controllers11&#45;&#45;board.cache_hierarchy.ruby_system.network.routers11 -->
<g id="edge30" class="edge">
<title>board.cache_hierarchy.ruby_system.l1_controllers11&#45;&#45;board.cache_hierarchy.ruby_system.network.routers11</title>
<path fill="none" stroke="#381526" d="M189.52,-339.82C193.24,-328.23 197.54,-314.82 201.26,-303.25"/>
<polygon fill="#381526" stroke="#381526" points="186.1,-339.02 186.38,-349.61 192.77,-341.16 186.1,-339.02"/>
<polygon fill="#381526" stroke="#381526" points="204.61,-304.25 204.34,-293.65 197.95,-302.11 204.61,-304.25"/>
</g>
<!-- board.cache_hierarchy.ruby_system.l1_controllers12 -->
<g id="node32" class="node">
<title>board.cache_hierarchy.ruby_system.l1_controllers12</title>
<path fill="#e5bcd0" stroke="#000000" d="M352.97,-261.53C352.97,-261.53 440.97,-261.53 440.97,-261.53 446.97,-261.53 452.97,-267.53 452.97,-273.53 452.97,-273.53 452.97,-285.53 452.97,-285.53 452.97,-291.53 446.97,-297.53 440.97,-297.53 440.97,-297.53 352.97,-297.53 352.97,-297.53 346.97,-297.53 340.97,-291.53 340.97,-285.53 340.97,-285.53 340.97,-273.53 340.97,-273.53 340.97,-267.53 346.97,-261.53 352.97,-261.53"/>
<text text-anchor="middle" x="396.97" y="-275.83" font-family="Arial" font-size="14.00" fill="#000000">l1_controllers12</text>
</g>
<!-- board.cache_hierarchy.ruby_system.l1_controllers12&#45;&#45;board.cache_hierarchy.ruby_system.network.routers12 -->
<g id="edge31" class="edge">
<title>board.cache_hierarchy.ruby_system.l1_controllers12&#45;&#45;board.cache_hierarchy.ruby_system.network.routers12</title>
<path fill="none" stroke="#381526" d="M353.64,-256.74C351.48,-255.61 349.33,-254.48 347.2,-253.36"/>
<polygon fill="#381526" stroke="#381526" points="352.02,-259.85 362.5,-261.41 355.28,-253.65 352.02,-259.85"/>
<polygon fill="#381526" stroke="#381526" points="348.56,-250.12 338.08,-248.56 345.3,-256.31 348.56,-250.12"/>
</g>
<!-- board.cache_hierarchy.ruby_system.l1_controllers13 -->
<g id="node33" class="node">
<title>board.cache_hierarchy.ruby_system.l1_controllers13</title>
<path fill="#e5bcd0" stroke="#000000" d="M123.16,-8.75C123.16,-8.75 211.16,-8.75 211.16,-8.75 217.16,-8.75 223.16,-14.75 223.16,-20.75 223.16,-20.75 223.16,-32.75 223.16,-32.75 223.16,-38.75 217.16,-44.75 211.16,-44.75 211.16,-44.75 123.16,-44.75 123.16,-44.75 117.16,-44.75 111.16,-38.75 111.16,-32.75 111.16,-32.75 111.16,-20.75 111.16,-20.75 111.16,-14.75 117.16,-8.75 123.16,-8.75"/>
<text text-anchor="middle" x="167.16" y="-23.05" font-family="Arial" font-size="14.00" fill="#000000">l1_controllers13</text>
</g>
<!-- board.cache_hierarchy.ruby_system.l1_controllers13&#45;&#45;board.cache_hierarchy.ruby_system.network.routers13 -->
<g id="edge32" class="edge">
<title>board.cache_hierarchy.ruby_system.l1_controllers13&#45;&#45;board.cache_hierarchy.ruby_system.network.routers13</title>
<path fill="none" stroke="#381526" d="M179.02,-54.53C183.47,-64.97 188.53,-76.83 192.99,-87.26"/>
<polygon fill="#381526" stroke="#381526" points="182.11,-52.86 174.96,-45.04 175.67,-55.61 182.11,-52.86"/>
<polygon fill="#381526" stroke="#381526" points="189.89,-88.91 197.03,-96.73 196.32,-86.16 189.89,-88.91"/>
</g>
<!-- board.cache_hierarchy.ruby_system.l1_controllers14 -->
<g id="node34" class="node">
<title>board.cache_hierarchy.ruby_system.l1_controllers14</title>
<path fill="#e5bcd0" stroke="#000000" d="M44.85,-273.35C44.85,-273.35 132.85,-273.35 132.85,-273.35 138.85,-273.35 144.85,-279.35 144.85,-285.35 144.85,-285.35 144.85,-297.35 144.85,-297.35 144.85,-303.35 138.85,-309.35 132.85,-309.35 132.85,-309.35 44.85,-309.35 44.85,-309.35 38.85,-309.35 32.85,-303.35 32.85,-297.35 32.85,-297.35 32.85,-285.35 32.85,-285.35 32.85,-279.35 38.85,-273.35 44.85,-273.35"/>
<text text-anchor="middle" x="88.85" y="-287.65" font-family="Arial" font-size="14.00" fill="#000000">l1_controllers14</text>
</g>
<!-- board.cache_hierarchy.ruby_system.l1_controllers14&#45;&#45;board.cache_hierarchy.ruby_system.network.routers14 -->
<g id="edge33" class="edge">
<title>board.cache_hierarchy.ruby_system.l1_controllers14&#45;&#45;board.cache_hierarchy.ruby_system.network.routers14</title>
<path fill="none" stroke="#381526" d="M125.85,-267.82C131.42,-264.28 137.15,-260.63 142.69,-257.11"/>
<polygon fill="#381526" stroke="#381526" points="123.76,-265 117.2,-273.32 127.51,-270.91 123.76,-265"/>
<polygon fill="#381526" stroke="#381526" points="144.63,-260.02 151.19,-251.7 140.88,-254.12 144.63,-260.02"/>
</g>
<!-- board.cache_hierarchy.ruby_system.l1_controllers15 -->
<g id="node35" class="node">
<title>board.cache_hierarchy.ruby_system.l1_controllers15</title>
<path fill="#e5bcd0" stroke="#000000" d="M371.51,-201.28C371.51,-201.28 459.51,-201.28 459.51,-201.28 465.51,-201.28 471.51,-207.28 471.51,-213.28 471.51,-213.28 471.51,-225.28 471.51,-225.28 471.51,-231.28 465.51,-237.28 459.51,-237.28 459.51,-237.28 371.51,-237.28 371.51,-237.28 365.51,-237.28 359.51,-231.28 359.51,-225.28 359.51,-225.28 359.51,-213.28 359.51,-213.28 359.51,-207.28 365.51,-201.28 371.51,-201.28"/>
<text text-anchor="middle" x="415.51" y="-215.58" font-family="Arial" font-size="14.00" fill="#000000">l1_controllers15</text>
</g>
<!-- board.cache_hierarchy.ruby_system.l1_controllers15&#45;&#45;board.cache_hierarchy.ruby_system.network.routers15 -->
<g id="edge34" class="edge">
<title>board.cache_hierarchy.ruby_system.l1_controllers15&#45;&#45;board.cache_hierarchy.ruby_system.network.routers15</title>
<path fill="none" stroke="#381526" d="M349.14,-210.33C348.98,-210.31 348.82,-210.29 348.66,-210.26"/>
<polygon fill="#381526" stroke="#381526" points="349.1,-213.86 359.48,-211.72 350.03,-206.92 349.1,-213.86"/>
<polygon fill="#381526" stroke="#381526" points="355.67,-207.68 345.29,-209.81 354.73,-214.61 355.67,-207.68"/>
</g>
<!-- board.cache_hierarchy.ruby_system.l2_controllers -->
<g id="node36" class="node">
<title>board.cache_hierarchy.ruby_system.l2_controllers</title>
<path fill="#e5bcd0" stroke="#000000" d="M310.19,-33.3C310.19,-33.3 383.19,-33.3 383.19,-33.3 389.19,-33.3 395.19,-39.3 395.19,-45.3 395.19,-45.3 395.19,-57.3 395.19,-57.3 395.19,-63.3 389.19,-69.3 383.19,-69.3 383.19,-69.3 310.19,-69.3 310.19,-69.3 304.19,-69.3 298.19,-63.3 298.19,-57.3 298.19,-57.3 298.19,-45.3 298.19,-45.3 298.19,-39.3 304.19,-33.3 310.19,-33.3"/>
<text text-anchor="middle" x="346.69" y="-47.6" font-family="Arial" font-size="14.00" fill="#000000">l2_controllers</text>
</g>
<!-- board.cache_hierarchy.ruby_system.l2_controllers&#45;&#45;board.cache_hierarchy.ruby_system.network.routers16 -->
<g id="edge35" class="edge">
<title>board.cache_hierarchy.ruby_system.l2_controllers&#45;&#45;board.cache_hierarchy.ruby_system.network.routers16</title>
<path fill="none" stroke="#381526" d="M326.33,-77.76C320.29,-85.61 313.67,-94.21 307.64,-102.05"/>
<polygon fill="#381526" stroke="#381526" points="329.32,-79.61 332.65,-69.55 323.77,-75.34 329.32,-79.61"/>
<polygon fill="#381526" stroke="#381526" points="304.7,-100.13 301.37,-110.19 310.25,-104.4 304.7,-100.13"/>
</g>
<!-- board.cache_hierarchy.ruby_system.directory_controllers -->
<g id="node37" class="node">
<title>board.cache_hierarchy.ruby_system.directory_controllers</title>
<path fill="#e5bcd0" stroke="#000000" d="M186.42,-358.15C186.42,-358.15 300.42,-358.15 300.42,-358.15 306.42,-358.15 312.42,-364.15 312.42,-370.15 312.42,-370.15 312.42,-382.15 312.42,-382.15 312.42,-388.15 306.42,-394.15 300.42,-394.15 300.42,-394.15 186.42,-394.15 186.42,-394.15 180.42,-394.15 174.42,-388.15 174.42,-382.15 174.42,-382.15 174.42,-370.15 174.42,-370.15 174.42,-364.15 180.42,-358.15 186.42,-358.15"/>
<text text-anchor="middle" x="243.42" y="-372.45" font-family="Arial" font-size="14.00" fill="#000000">directory_controllers</text>
</g>
<!-- board.cache_hierarchy.ruby_system.directory_controllers&#45;&#45;board.cache_hierarchy.ruby_system.network.routers17 -->
<g id="edge36" class="edge">
<title>board.cache_hierarchy.ruby_system.directory_controllers&#45;&#45;board.cache_hierarchy.ruby_system.network.routers17</title>
<path fill="none" stroke="#381526" d="M242.29,-347.65C241.78,-334.83 241.18,-319.74 240.67,-306.94"/>
<polygon fill="#381526" stroke="#381526" points="238.79,-347.94 242.69,-357.79 245.79,-347.66 238.79,-347.94"/>
<polygon fill="#381526" stroke="#381526" points="244.16,-306.67 240.27,-296.82 237.17,-306.95 244.16,-306.67"/>
</g>
</g>
</svg>
