<?xml version="1.0" encoding="UTF-8" standalone="no"?>
<!DOCTYPE svg PUBLIC "-//W3C//DTD SVG 1.1//EN"
 "http://www.w3.org/Graphics/SVG/1.1/DTD/svg11.dtd">
<!-- Generated by graphviz version 2.43.0 (0)
 -->
<!-- Title: G Pages: 1 -->
<svg width="418pt" height="371pt"
 viewBox="0.00 0.00 418.21 371.39" xmlns="http://www.w3.org/2000/svg" xmlns:xlink="http://www.w3.org/1999/xlink">
<g id="graph0" class="graph" transform="scale(1 1) rotate(0) translate(4 367.39)">
<title>G</title>
<polygon fill="white" stroke="transparent" points="-4,4 -4,-367.39 414.21,-367.39 414.21,4 -4,4"/>
<!-- board.cache_hierarchy.ruby_system.network.routers0 -->
<g id="node1" class="node">
<title>board.cache_hierarchy.ruby_system.network.routers0</title>
<path fill="#cce6fc" stroke="#000000" d="M123.49,-109.73C123.49,-109.73 153.49,-109.73 153.49,-109.73 159.49,-109.73 165.49,-115.73 165.49,-121.73 165.49,-121.73 165.49,-133.73 165.49,-133.73 165.49,-139.73 159.49,-145.73 153.49,-145.73 153.49,-145.73 123.49,-145.73 123.49,-145.73 117.49,-145.73 111.49,-139.73 111.49,-133.73 111.49,-133.73 111.49,-121.73 111.49,-121.73 111.49,-115.73 117.49,-109.73 123.49,-109.73"/>
<text text-anchor="middle" x="138.49" y="-124.03" font-family="Arial" font-size="14.00" fill="#000000">R 0</text>
</g>
<!-- board.cache_hierarchy.ruby_system.network.routers6 -->
<g id="node7" class="node">
<title>board.cache_hierarchy.ruby_system.network.routers6</title>
<path fill="#cce6fc" stroke="#000000" d="M188.67,-163.47C188.67,-163.47 218.67,-163.47 218.67,-163.47 224.67,-163.47 230.67,-169.47 230.67,-175.47 230.67,-175.47 230.67,-187.47 230.67,-187.47 230.67,-193.47 224.67,-199.47 218.67,-199.47 218.67,-199.47 188.67,-199.47 188.67,-199.47 182.67,-199.47 176.67,-193.47 176.67,-187.47 176.67,-187.47 176.67,-175.47 176.67,-175.47 176.67,-169.47 182.67,-163.47 188.67,-163.47"/>
<text text-anchor="middle" x="203.67" y="-177.77" font-family="Arial" font-size="14.00" fill="#000000">R 6</text>
</g>
<!-- board.cache_hierarchy.ruby_system.network.routers0&#45;&#45;board.cache_hierarchy.ruby_system.network.routers6 -->
<g id="edge1" class="edge">
<title>board.cache_hierarchy.ruby_system.network.routers0&#45;&#45;board.cache_hierarchy.ruby_system.network.routers6</title>
<path fill="none" stroke="#042d50" d="M160.56,-145.92C164.8,-149.43 169.32,-153.15 173.76,-156.81"/>
<polygon fill="#042d50" stroke="#042d50" points="171.68,-159.63 181.62,-163.29 176.14,-154.23 171.68,-159.63"/>
</g>
<!-- board.cache_hierarchy.ruby_system.network.routers1 -->
<g id="node2" class="node">
<title>board.cache_hierarchy.ruby_system.network.routers1</title>
<path fill="#cce6fc" stroke="#000000" d="M267.73,-133.77C267.73,-133.77 297.73,-133.77 297.73,-133.77 303.73,-133.77 309.73,-139.77 309.73,-145.77 309.73,-145.77 309.73,-157.77 309.73,-157.77 309.73,-163.77 303.73,-169.77 297.73,-169.77 297.73,-169.77 267.73,-169.77 267.73,-169.77 261.73,-169.77 255.73,-163.77 255.73,-157.77 255.73,-157.77 255.73,-145.77 255.73,-145.77 255.73,-139.77 261.73,-133.77 267.73,-133.77"/>
<text text-anchor="middle" x="282.73" y="-148.07" font-family="Arial" font-size="14.00" fill="#000000">R 1</text>
</g>
<!-- board.cache_hierarchy.ruby_system.network.routers1&#45;&#45;board.cache_hierarchy.ruby_system.network.routers6 -->
<g id="edge2" class="edge">
<title>board.cache_hierarchy.ruby_system.network.routers1&#45;&#45;board.cache_hierarchy.ruby_system.network.routers6</title>
<path fill="none" stroke="#042d50" d="M255.52,-161.99C250.68,-163.81 245.56,-165.73 240.5,-167.63"/>
<polygon fill="#042d50" stroke="#042d50" points="239.06,-164.43 230.93,-171.23 241.52,-170.99 239.06,-164.43"/>
</g>
<!-- board.cache_hierarchy.ruby_system.network.routers2 -->
<g id="node3" class="node">
<title>board.cache_hierarchy.ruby_system.network.routers2</title>
<path fill="#cce6fc" stroke="#000000" d="M202.66,-80.29C202.66,-80.29 232.66,-80.29 232.66,-80.29 238.66,-80.29 244.66,-86.29 244.66,-92.29 244.66,-92.29 244.66,-104.29 244.66,-104.29 244.66,-110.29 238.66,-116.29 232.66,-116.29 232.66,-116.29 202.66,-116.29 202.66,-116.29 196.66,-116.29 190.66,-110.29 190.66,-104.29 190.66,-104.29 190.66,-92.29 190.66,-92.29 190.66,-86.29 196.66,-80.29 202.66,-80.29"/>
<text text-anchor="middle" x="217.66" y="-94.59" font-family="Arial" font-size="14.00" fill="#000000">R 2</text>
</g>
<!-- board.cache_hierarchy.ruby_system.network.routers2&#45;&#45;board.cache_hierarchy.ruby_system.network.routers6 -->
<g id="edge3" class="edge">
<title>board.cache_hierarchy.ruby_system.network.routers2&#45;&#45;board.cache_hierarchy.ruby_system.network.routers6</title>
<path fill="none" stroke="#042d50" d="M214.62,-116.33C212.81,-127.13 210.46,-141.07 208.41,-153.29"/>
<polygon fill="#042d50" stroke="#042d50" points="204.91,-153.01 206.7,-163.45 211.81,-154.17 204.91,-153.01"/>
</g>
<!-- board.cache_hierarchy.ruby_system.network.routers3 -->
<g id="node4" class="node">
<title>board.cache_hierarchy.ruby_system.network.routers3</title>
<path fill="#cce6fc" stroke="#000000" d="M174.91,-246.75C174.91,-246.75 204.91,-246.75 204.91,-246.75 210.91,-246.75 216.91,-252.75 216.91,-258.75 216.91,-258.75 216.91,-270.75 216.91,-270.75 216.91,-276.75 210.91,-282.75 204.91,-282.75 204.91,-282.75 174.91,-282.75 174.91,-282.75 168.91,-282.75 162.91,-276.75 162.91,-270.75 162.91,-270.75 162.91,-258.75 162.91,-258.75 162.91,-252.75 168.91,-246.75 174.91,-246.75"/>
<text text-anchor="middle" x="189.91" y="-261.05" font-family="Arial" font-size="14.00" fill="#000000">R 3</text>
</g>
<!-- board.cache_hierarchy.ruby_system.network.routers3&#45;&#45;board.cache_hierarchy.ruby_system.network.routers6 -->
<g id="edge4" class="edge">
<title>board.cache_hierarchy.ruby_system.network.routers3&#45;&#45;board.cache_hierarchy.ruby_system.network.routers6</title>
<path fill="none" stroke="#042d50" d="M192.89,-246.68C194.68,-235.87 196.98,-221.91 199.01,-209.68"/>
<polygon fill="#042d50" stroke="#042d50" points="202.51,-209.94 200.69,-199.5 195.6,-208.8 202.51,-209.94"/>
</g>
<!-- board.cache_hierarchy.ruby_system.network.routers4 -->
<g id="node5" class="node">
<title>board.cache_hierarchy.ruby_system.network.routers4</title>
<path fill="#cce6fc" stroke="#000000" d="M109.48,-193.02C109.48,-193.02 139.48,-193.02 139.48,-193.02 145.48,-193.02 151.48,-199.02 151.48,-205.02 151.48,-205.02 151.48,-217.02 151.48,-217.02 151.48,-223.02 145.48,-229.02 139.48,-229.02 139.48,-229.02 109.48,-229.02 109.48,-229.02 103.48,-229.02 97.48,-223.02 97.48,-217.02 97.48,-217.02 97.48,-205.02 97.48,-205.02 97.48,-199.02 103.48,-193.02 109.48,-193.02"/>
<text text-anchor="middle" x="124.48" y="-207.32" font-family="Arial" font-size="14.00" fill="#000000">R 4</text>
</g>
<!-- board.cache_hierarchy.ruby_system.network.routers4&#45;&#45;board.cache_hierarchy.ruby_system.network.routers6 -->
<g id="edge5" class="edge">
<title>board.cache_hierarchy.ruby_system.network.routers4&#45;&#45;board.cache_hierarchy.ruby_system.network.routers6</title>
<path fill="none" stroke="#042d50" d="M151.73,-200.85C156.64,-199.02 161.83,-197.08 166.95,-195.17"/>
<polygon fill="#042d50" stroke="#042d50" points="168.49,-198.33 176.64,-191.56 166.04,-191.77 168.49,-198.33"/>
</g>
<!-- board.cache_hierarchy.ruby_system.network.routers5 -->
<g id="node6" class="node">
<title>board.cache_hierarchy.ruby_system.network.routers5</title>
<path fill="#cce6fc" stroke="#000000" d="M254.05,-216.89C254.05,-216.89 284.05,-216.89 284.05,-216.89 290.05,-216.89 296.05,-222.89 296.05,-228.89 296.05,-228.89 296.05,-240.89 296.05,-240.89 296.05,-246.89 290.05,-252.89 284.05,-252.89 284.05,-252.89 254.05,-252.89 254.05,-252.89 248.05,-252.89 242.05,-246.89 242.05,-240.89 242.05,-240.89 242.05,-228.89 242.05,-228.89 242.05,-222.89 248.05,-216.89 254.05,-216.89"/>
<text text-anchor="middle" x="269.05" y="-231.19" font-family="Arial" font-size="14.00" fill="#000000">R 5</text>
</g>
<!-- board.cache_hierarchy.ruby_system.network.routers5&#45;&#45;board.cache_hierarchy.ruby_system.network.routers6 -->
<g id="edge6" class="edge">
<title>board.cache_hierarchy.ruby_system.network.routers5&#45;&#45;board.cache_hierarchy.ruby_system.network.routers6</title>
<path fill="none" stroke="#042d50" d="M246.92,-216.8C242.66,-213.32 238.13,-209.62 233.67,-205.98"/>
<polygon fill="#042d50" stroke="#042d50" points="235.74,-203.15 225.78,-199.53 231.31,-208.57 235.74,-203.15"/>
</g>
<!-- board.cache_hierarchy.ruby_system.l1_controllers0 -->
<g id="node8" class="node">
<title>board.cache_hierarchy.ruby_system.l1_controllers0</title>
<path fill="#e5bcd0" stroke="#000000" d="M38.22,-55.6C38.22,-55.6 118.22,-55.6 118.22,-55.6 124.22,-55.6 130.22,-61.6 130.22,-67.6 130.22,-67.6 130.22,-79.6 130.22,-79.6 130.22,-85.6 124.22,-91.6 118.22,-91.6 118.22,-91.6 38.22,-91.6 38.22,-91.6 32.22,-91.6 26.22,-85.6 26.22,-79.6 26.22,-79.6 26.22,-67.6 26.22,-67.6 26.22,-61.6 32.22,-55.6 38.22,-55.6"/>
<text text-anchor="middle" x="78.22" y="-69.9" font-family="Arial" font-size="14.00" fill="#000000">l1_controllers0</text>
</g>
<!-- board.cache_hierarchy.ruby_system.l1_controllers0&#45;&#45;board.cache_hierarchy.ruby_system.network.routers0 -->
<g id="edge7" class="edge">
<title>board.cache_hierarchy.ruby_system.l1_controllers0&#45;&#45;board.cache_hierarchy.ruby_system.network.routers0</title>
<path fill="none" stroke="#381526" d="M105.75,-98.33C107.34,-99.75 108.93,-101.18 110.52,-102.61"/>
<polygon fill="#381526" stroke="#381526" points="108.07,-95.7 98.29,-91.62 103.39,-100.91 108.07,-95.7"/>
<polygon fill="#381526" stroke="#381526" points="108.52,-105.52 118.3,-109.6 113.2,-100.31 108.52,-105.52"/>
</g>
<!-- board.cache_hierarchy.ruby_system.l1_controllers1 -->
<g id="node9" class="node">
<title>board.cache_hierarchy.ruby_system.l1_controllers1</title>
<path fill="#e5bcd0" stroke="#000000" d="M318.21,-104.09C318.21,-104.09 398.21,-104.09 398.21,-104.09 404.21,-104.09 410.21,-110.09 410.21,-116.09 410.21,-116.09 410.21,-128.09 410.21,-128.09 410.21,-134.09 404.21,-140.09 398.21,-140.09 398.21,-140.09 318.21,-140.09 318.21,-140.09 312.21,-140.09 306.21,-134.09 306.21,-128.09 306.21,-128.09 306.21,-116.09 306.21,-116.09 306.21,-110.09 312.21,-104.09 318.21,-104.09"/>
<text text-anchor="middle" x="358.21" y="-118.39" font-family="Arial" font-size="14.00" fill="#000000">l1_controllers1</text>
</g>
<!-- board.cache_hierarchy.ruby_system.l1_controllers1&#45;&#45;board.cache_hierarchy.ruby_system.network.routers1 -->
<g id="edge8" class="edge">
<title>board.cache_hierarchy.ruby_system.l1_controllers1&#45;&#45;board.cache_hierarchy.ruby_system.network.routers1</title>
<path fill="none" stroke="#381526" d="M310.21,-140.96C310.16,-140.98 310.11,-141 310.07,-141.02"/>
<polygon fill="#381526" stroke="#381526" points="304.1,-147.13 312.13,-140.21 301.54,-140.61 304.1,-147.13"/>
<polygon fill="#381526" stroke="#381526" points="317.96,-134.15 309.93,-141.07 320.52,-140.67 317.96,-134.15"/>
</g>
<!-- board.cache_hierarchy.ruby_system.l1_controllers2 -->
<g id="node10" class="node">
<title>board.cache_hierarchy.ruby_system.l1_controllers2</title>
<path fill="#e5bcd0" stroke="#000000" d="M192.19,-0.5C192.19,-0.5 272.19,-0.5 272.19,-0.5 278.19,-0.5 284.19,-6.5 284.19,-12.5 284.19,-12.5 284.19,-24.5 284.19,-24.5 284.19,-30.5 278.19,-36.5 272.19,-36.5 272.19,-36.5 192.19,-36.5 192.19,-36.5 186.19,-36.5 180.19,-30.5 180.19,-24.5 180.19,-24.5 180.19,-12.5 180.19,-12.5 180.19,-6.5 186.19,-0.5 192.19,-0.5"/>
<text text-anchor="middle" x="232.19" y="-14.8" font-family="Arial" font-size="14.00" fill="#000000">l1_controllers2</text>
</g>
<!-- board.cache_hierarchy.ruby_system.l1_controllers2&#45;&#45;board.cache_hierarchy.ruby_system.network.routers2 -->
<g id="edge9" class="edge">
<title>board.cache_hierarchy.ruby_system.l1_controllers2&#45;&#45;board.cache_hierarchy.ruby_system.network.routers2</title>
<path fill="none" stroke="#381526" d="M227.04,-46.75C225.65,-54.42 224.14,-62.7 222.75,-70.35"/>
<polygon fill="#381526" stroke="#381526" points="230.54,-47.07 228.89,-36.6 223.66,-45.82 230.54,-47.07"/>
<polygon fill="#381526" stroke="#381526" points="219.29,-69.79 220.94,-80.25 226.18,-71.04 219.29,-69.79"/>
</g>
<!-- board.cache_hierarchy.ruby_system.l1_controllers3 -->
<g id="node11" class="node">
<title>board.cache_hierarchy.ruby_system.l1_controllers3</title>
<path fill="#e5bcd0" stroke="#000000" d="M138.42,-326.89C138.42,-326.89 218.42,-326.89 218.42,-326.89 224.42,-326.89 230.42,-332.89 230.42,-338.89 230.42,-338.89 230.42,-350.89 230.42,-350.89 230.42,-356.89 224.42,-362.89 218.42,-362.89 218.42,-362.89 138.42,-362.89 138.42,-362.89 132.42,-362.89 126.42,-356.89 126.42,-350.89 126.42,-350.89 126.42,-338.89 126.42,-338.89 126.42,-332.89 132.42,-326.89 138.42,-326.89"/>
<text text-anchor="middle" x="178.42" y="-341.19" font-family="Arial" font-size="14.00" fill="#000000">l1_controllers3</text>
</g>
<!-- board.cache_hierarchy.ruby_system.l1_controllers3&#45;&#45;board.cache_hierarchy.ruby_system.network.routers3 -->
<g id="edge10" class="edge">
<title>board.cache_hierarchy.ruby_system.l1_controllers3&#45;&#45;board.cache_hierarchy.ruby_system.network.routers3</title>
<path fill="none" stroke="#381526" d="M182.49,-316.51C183.59,-308.81 184.79,-300.49 185.89,-292.81"/>
<polygon fill="#381526" stroke="#381526" points="178.98,-316.31 181.03,-326.7 185.91,-317.3 178.98,-316.31"/>
<polygon fill="#381526" stroke="#381526" points="189.36,-293.26 187.31,-282.86 182.43,-292.26 189.36,-293.26"/>
</g>
<!-- board.cache_hierarchy.ruby_system.l2_controllers -->
<g id="node12" class="node">
<title>board.cache_hierarchy.ruby_system.l2_controllers</title>
<path fill="#e5bcd0" stroke="#000000" d="M12,-220.88C12,-220.88 85,-220.88 85,-220.88 91,-220.88 97,-226.88 97,-232.88 97,-232.88 97,-244.88 97,-244.88 97,-250.88 91,-256.88 85,-256.88 85,-256.88 12,-256.88 12,-256.88 6,-256.88 0,-250.88 0,-244.88 0,-244.88 0,-232.88 0,-232.88 0,-226.88 6,-220.88 12,-220.88"/>
<text text-anchor="middle" x="48.5" y="-235.18" font-family="Arial" font-size="14.00" fill="#000000">l2_controllers</text>
</g>
<!-- board.cache_hierarchy.ruby_system.l2_controllers&#45;&#45;board.cache_hierarchy.ruby_system.network.routers4 -->
<g id="edge11" class="edge">
<title>board.cache_hierarchy.ruby_system.l2_controllers&#45;&#45;board.cache_hierarchy.ruby_system.network.routers4</title>
<path fill="none" stroke="#381526" d="M97.22,-221.01C97.25,-221 97.28,-220.99 97.31,-220.98"/>
<polygon fill="#381526" stroke="#381526" points="105.23,-214.35 97.05,-221.08 107.65,-220.92 105.23,-214.35"/>
<polygon fill="#381526" stroke="#381526" points="89.22,-227.69 97.4,-220.95 86.8,-221.11 89.22,-227.69"/>
</g>
<!-- board.cache_hierarchy.ruby_system.directory_controllers -->
<g id="node13" class="node">
<title>board.cache_hierarchy.ruby_system.directory_controllers</title>
<path fill="#e5bcd0" stroke="#000000" d="M275.86,-266.85C275.86,-266.85 389.86,-266.85 389.86,-266.85 395.86,-266.85 401.86,-272.85 401.86,-278.85 401.86,-278.85 401.86,-290.85 401.86,-290.85 401.86,-296.85 395.86,-302.85 389.86,-302.85 389.86,-302.85 275.86,-302.85 275.86,-302.85 269.86,-302.85 263.86,-296.85 263.86,-290.85 263.86,-290.85 263.86,-278.85 263.86,-278.85 263.86,-272.85 269.86,-266.85 275.86,-266.85"/>
<text text-anchor="middle" x="332.86" y="-281.15" font-family="Arial" font-size="14.00" fill="#000000">directory_controllers</text>
</g>
<!-- board.cache_hierarchy.ruby_system.directory_controllers&#45;&#45;board.cache_hierarchy.ruby_system.network.routers5 -->
<g id="edge12" class="edge">
<title>board.cache_hierarchy.ruby_system.directory_controllers&#45;&#45;board.cache_hierarchy.ruby_system.network.routers5</title>
<path fill="none" stroke="#381526" d="M301.88,-260.59C301.38,-260.2 300.87,-259.8 300.36,-259.41"/>
<polygon fill="#381526" stroke="#381526" points="299.79,-263.4 309.82,-266.81 304.11,-257.89 299.79,-263.4"/>
<polygon fill="#381526" stroke="#381526" points="302.3,-256.48 292.27,-253.07 297.98,-261.99 302.3,-256.48"/>
</g>
</g>
</svg>
