<?xml version="1.0" encoding="UTF-8" standalone="no"?>
<!DOCTYPE svg PUBLIC "-//W3C//DTD SVG 1.1//EN"
 "http://www.w3.org/Graphics/SVG/1.1/DTD/svg11.dtd">
<!-- Generated by graphviz version 2.43.0 (0)
 -->
<!-- Title: G Pages: 1 -->
<svg width="358pt" height="273pt"
 viewBox="0.00 0.00 357.60 273.49" xmlns="http://www.w3.org/2000/svg" xmlns:xlink="http://www.w3.org/1999/xlink">
<g id="graph0" class="graph" transform="scale(1 1) rotate(0) translate(4 269.49)">
<title>G</title>
<polygon fill="white" stroke="transparent" points="-4,4 -4,-269.49 353.6,-269.49 353.6,4 -4,4"/>
<!-- board.cache_hierarchy.ruby_system.network.routers0 -->
<g id="node1" class="node">
<title>board.cache_hierarchy.ruby_system.network.routers0</title>
<path fill="#cce6fc" stroke="#000000" d="M182.18,-163.56C182.18,-163.56 212.18,-163.56 212.18,-163.56 218.18,-163.56 224.18,-169.56 224.18,-175.56 224.18,-175.56 224.18,-187.56 224.18,-187.56 224.18,-193.56 218.18,-199.56 212.18,-199.56 212.18,-199.56 182.18,-199.56 182.18,-199.56 176.18,-199.56 170.18,-193.56 170.18,-187.56 170.18,-187.56 170.18,-175.56 170.18,-175.56 170.18,-169.56 176.18,-163.56 182.18,-163.56"/>
<text text-anchor="middle" x="197.18" y="-177.86" font-family="Arial" font-size="14.00" fill="#000000">R 0</text>
</g>
<!-- board.cache_hierarchy.ruby_system.network.routers1 -->
<g id="node2" class="node">
<title>board.cache_hierarchy.ruby_system.network.routers1</title>
<path fill="#cce6fc" stroke="#000000" d="M101.96,-145.81C101.96,-145.81 131.96,-145.81 131.96,-145.81 137.96,-145.81 143.96,-151.81 143.96,-157.81 143.96,-157.81 143.96,-169.81 143.96,-169.81 143.96,-175.81 137.96,-181.81 131.96,-181.81 131.96,-181.81 101.96,-181.81 101.96,-181.81 95.96,-181.81 89.96,-175.81 89.96,-169.81 89.96,-169.81 89.96,-157.81 89.96,-157.81 89.96,-151.81 95.96,-145.81 101.96,-145.81"/>
<text text-anchor="middle" x="116.96" y="-160.11" font-family="Arial" font-size="14.00" fill="#000000">R 1</text>
</g>
<!-- board.cache_hierarchy.ruby_system.network.routers0&#45;&#45;board.cache_hierarchy.ruby_system.network.routers1 -->
<g id="edge1" class="edge">
<title>board.cache_hierarchy.ruby_system.network.routers0&#45;&#45;board.cache_hierarchy.ruby_system.network.routers1</title>
<path fill="none" stroke="#042d50" d="M170.02,-175.55C164.92,-174.42 159.52,-173.22 154.17,-172.04"/>
<polygon fill="#042d50" stroke="#042d50" points="154.61,-168.55 144.09,-169.81 153.1,-175.39 154.61,-168.55"/>
</g>
<!-- board.cache_hierarchy.ruby_system.network.routers2 -->
<g id="node3" class="node">
<title>board.cache_hierarchy.ruby_system.network.routers2</title>
<path fill="#cce6fc" stroke="#000000" d="M119.74,-65.61C119.74,-65.61 149.74,-65.61 149.74,-65.61 155.74,-65.61 161.74,-71.61 161.74,-77.61 161.74,-77.61 161.74,-89.61 161.74,-89.61 161.74,-95.61 155.74,-101.61 149.74,-101.61 149.74,-101.61 119.74,-101.61 119.74,-101.61 113.74,-101.61 107.74,-95.61 107.74,-89.61 107.74,-89.61 107.74,-77.61 107.74,-77.61 107.74,-71.61 113.74,-65.61 119.74,-65.61"/>
<text text-anchor="middle" x="134.74" y="-79.91" font-family="Arial" font-size="14.00" fill="#000000">R 2</text>
</g>
<!-- board.cache_hierarchy.ruby_system.network.routers1&#45;&#45;board.cache_hierarchy.ruby_system.network.routers2 -->
<g id="edge2" class="edge">
<title>board.cache_hierarchy.ruby_system.network.routers1&#45;&#45;board.cache_hierarchy.ruby_system.network.routers2</title>
<path fill="none" stroke="#042d50" d="M120.99,-145.61C123.22,-135.56 126.04,-122.86 128.54,-111.58"/>
<polygon fill="#042d50" stroke="#042d50" points="131.97,-112.26 130.72,-101.73 125.14,-110.74 131.97,-112.26"/>
</g>
<!-- board.cache_hierarchy.ruby_system.network.routers3 -->
<g id="node4" class="node">
<title>board.cache_hierarchy.ruby_system.network.routers3</title>
<path fill="#cce6fc" stroke="#000000" d="M199.9,-83.34C199.9,-83.34 229.9,-83.34 229.9,-83.34 235.9,-83.34 241.9,-89.34 241.9,-95.34 241.9,-95.34 241.9,-107.34 241.9,-107.34 241.9,-113.34 235.9,-119.34 229.9,-119.34 229.9,-119.34 199.9,-119.34 199.9,-119.34 193.9,-119.34 187.9,-113.34 187.9,-107.34 187.9,-107.34 187.9,-95.34 187.9,-95.34 187.9,-89.34 193.9,-83.34 199.9,-83.34"/>
<text text-anchor="middle" x="214.9" y="-97.64" font-family="Arial" font-size="14.00" fill="#000000">R 3</text>
</g>
<!-- board.cache_hierarchy.ruby_system.network.routers2&#45;&#45;board.cache_hierarchy.ruby_system.network.routers3 -->
<g id="edge3" class="edge">
<title>board.cache_hierarchy.ruby_system.network.routers2&#45;&#45;board.cache_hierarchy.ruby_system.network.routers3</title>
<path fill="none" stroke="#042d50" d="M161.88,-89.61C166.97,-90.74 172.38,-91.93 177.71,-93.12"/>
<polygon fill="#042d50" stroke="#042d50" points="177.27,-96.6 187.79,-95.34 178.78,-89.77 177.27,-96.6"/>
</g>
<!-- board.cache_hierarchy.ruby_system.network.routers3&#45;&#45;board.cache_hierarchy.ruby_system.network.routers0 -->
<g id="edge4" class="edge">
<title>board.cache_hierarchy.ruby_system.network.routers3&#45;&#45;board.cache_hierarchy.ruby_system.network.routers0</title>
<path fill="none" stroke="#042d50" d="M210.88,-119.54C208.66,-129.6 205.85,-142.29 203.36,-153.58"/>
<polygon fill="#042d50" stroke="#042d50" points="199.93,-152.91 201.19,-163.43 206.76,-154.42 199.93,-152.91"/>
</g>
<!-- board.cache_hierarchy.ruby_system.l1_controllers0 -->
<g id="node5" class="node">
<title>board.cache_hierarchy.ruby_system.l1_controllers0</title>
<path fill="#e5bcd0" stroke="#000000" d="M198.98,-228.99C198.98,-228.99 278.98,-228.99 278.98,-228.99 284.98,-228.99 290.98,-234.99 290.98,-240.99 290.98,-240.99 290.98,-252.99 290.98,-252.99 290.98,-258.99 284.98,-264.99 278.98,-264.99 278.98,-264.99 198.98,-264.99 198.98,-264.99 192.98,-264.99 186.98,-258.99 186.98,-252.99 186.98,-252.99 186.98,-240.99 186.98,-240.99 186.98,-234.99 192.98,-228.99 198.98,-228.99"/>
<text text-anchor="middle" x="238.98" y="-243.29" font-family="Arial" font-size="14.00" fill="#000000">l1_controllers0</text>
</g>
<!-- board.cache_hierarchy.ruby_system.l1_controllers0&#45;&#45;board.cache_hierarchy.ruby_system.network.routers0 -->
<g id="edge5" class="edge">
<title>board.cache_hierarchy.ruby_system.l1_controllers0&#45;&#45;board.cache_hierarchy.ruby_system.network.routers0</title>
<path fill="none" stroke="#381526" d="M221.92,-220.29C219.36,-216.28 216.72,-212.15 214.17,-208.15"/>
<polygon fill="#381526" stroke="#381526" points="219,-222.22 227.33,-228.76 224.9,-218.45 219,-222.22"/>
<polygon fill="#381526" stroke="#381526" points="217.09,-206.23 208.76,-199.69 211.2,-210 217.09,-206.23"/>
</g>
<!-- board.cache_hierarchy.ruby_system.l1_controllers1 -->
<g id="node6" class="node">
<title>board.cache_hierarchy.ruby_system.l1_controllers1</title>
<path fill="#e5bcd0" stroke="#000000" d="M12,-188.32C12,-188.32 92,-188.32 92,-188.32 98,-188.32 104,-194.32 104,-200.32 104,-200.32 104,-212.32 104,-212.32 104,-218.32 98,-224.32 92,-224.32 92,-224.32 12,-224.32 12,-224.32 6,-224.32 0,-218.32 0,-212.32 0,-212.32 0,-200.32 0,-200.32 0,-194.32 6,-188.32 12,-188.32"/>
<text text-anchor="middle" x="52" y="-202.62" font-family="Arial" font-size="14.00" fill="#000000">l1_controllers1</text>
</g>
<!-- board.cache_hierarchy.ruby_system.l1_controllers1&#45;&#45;board.cache_hierarchy.ruby_system.network.routers1 -->
<g id="edge6" class="edge">
<title>board.cache_hierarchy.ruby_system.l1_controllers1&#45;&#45;board.cache_hierarchy.ruby_system.network.routers1</title>
<path fill="none" stroke="#381526" d="M88.01,-182.75C88.15,-182.67 88.28,-182.58 88.41,-182.49"/>
<polygon fill="#381526" stroke="#381526" points="86,-179.89 79.55,-188.29 89.83,-185.74 86,-179.89"/>
<polygon fill="#381526" stroke="#381526" points="83.12,-190.13 89.57,-181.73 79.29,-184.28 83.12,-190.13"/>
</g>
<!-- board.cache_hierarchy.ruby_system.l2_controllers -->
<g id="node7" class="node">
<title>board.cache_hierarchy.ruby_system.l2_controllers</title>
<path fill="#e5bcd0" stroke="#000000" d="M55.99,-0.5C55.99,-0.5 128.99,-0.5 128.99,-0.5 134.99,-0.5 140.99,-6.5 140.99,-12.5 140.99,-12.5 140.99,-24.5 140.99,-24.5 140.99,-30.5 134.99,-36.5 128.99,-36.5 128.99,-36.5 55.99,-36.5 55.99,-36.5 49.99,-36.5 43.99,-30.5 43.99,-24.5 43.99,-24.5 43.99,-12.5 43.99,-12.5 43.99,-6.5 49.99,-0.5 55.99,-0.5"/>
<text text-anchor="middle" x="92.49" y="-14.8" font-family="Arial" font-size="14.00" fill="#000000">l2_controllers</text>
</g>
<!-- board.cache_hierarchy.ruby_system.l2_controllers&#45;&#45;board.cache_hierarchy.ruby_system.network.routers2 -->
<g id="edge7" class="edge">
<title>board.cache_hierarchy.ruby_system.l2_controllers&#45;&#45;board.cache_hierarchy.ruby_system.network.routers2</title>
<path fill="none" stroke="#381526" d="M109.73,-45.07C112.32,-49.06 114.98,-53.17 117.57,-57.15"/>
<polygon fill="#381526" stroke="#381526" points="112.64,-43.12 104.26,-36.64 106.77,-46.93 112.64,-43.12"/>
<polygon fill="#381526" stroke="#381526" points="114.65,-59.09 123.03,-65.57 120.53,-55.28 114.65,-59.09"/>
</g>
<!-- board.cache_hierarchy.ruby_system.directory_controllers -->
<g id="node8" class="node">
<title>board.cache_hierarchy.ruby_system.directory_controllers</title>
<path fill="#e5bcd0" stroke="#000000" d="M223.6,-42.03C223.6,-42.03 337.6,-42.03 337.6,-42.03 343.6,-42.03 349.6,-48.03 349.6,-54.03 349.6,-54.03 349.6,-66.03 349.6,-66.03 349.6,-72.03 343.6,-78.03 337.6,-78.03 337.6,-78.03 223.6,-78.03 223.6,-78.03 217.6,-78.03 211.6,-72.03 211.6,-66.03 211.6,-66.03 211.6,-54.03 211.6,-54.03 211.6,-48.03 217.6,-42.03 223.6,-42.03"/>
<text text-anchor="middle" x="280.6" y="-56.33" font-family="Arial" font-size="14.00" fill="#000000">directory_controllers</text>
</g>
<!-- board.cache_hierarchy.ruby_system.directory_controllers&#45;&#45;board.cache_hierarchy.ruby_system.network.routers3 -->
<g id="edge8" class="edge">
<title>board.cache_hierarchy.ruby_system.directory_controllers&#45;&#45;board.cache_hierarchy.ruby_system.network.routers3</title>
<path fill="none" stroke="#381526" d="M243.22,-83.54C243.12,-83.6 243.01,-83.67 242.91,-83.73"/>
<polygon fill="#381526" stroke="#381526" points="245.37,-86.32 251.98,-78.03 241.65,-80.39 245.37,-86.32"/>
<polygon fill="#381526" stroke="#381526" points="248.58,-76.03 241.98,-84.32 252.31,-81.95 248.58,-76.03"/>
</g>
</g>
</svg>
