<?xml version="1.0" encoding="utf-8" standalone="no"?>
<!DOCTYPE svg PUBLIC "-//W3C//DTD SVG 1.1//EN"
  "http://www.w3.org/Graphics/SVG/1.1/DTD/svg11.dtd">
<svg xmlns:xlink="http://www.w3.org/1999/xlink" width="469.19952pt" height="353.99952pt" viewBox="0 0 469.19952 353.99952" xmlns="http://www.w3.org/2000/svg" version="1.1">
 <metadata>
  <rdf:RDF xmlns:dc="http://purl.org/dc/elements/1.1/" xmlns:cc="http://creativecommons.org/ns#" xmlns:rdf="http://www.w3.org/1999/02/22-rdf-syntax-ns#">
   <cc:Work>
    <dc:type rdf:resource="http://purl.org/dc/dcmitype/StillImage"/>
    <dc:date>2025-04-16T21:05:14.540242</dc:date>
    <dc:format>image/svg+xml</dc:format>
    <dc:creator>
     <cc:Agent>
      <dc:title>Matplotlib v3.10.1, https://matplotlib.org/</dc:title>
     </cc:Agent>
    </dc:creator>
   </cc:Work>
  </rdf:RDF>
 </metadata>
 <defs>
  <style type="text/css">*{stroke-linejoin: round; stroke-linecap: butt}</style>
 </defs>
 <g id="figure_1">
  <g id="patch_1">
   <path d="M 0 353.99952 
L 469.19952 353.99952 
L 469.19952 0 
L 0 0 
z
" style="fill: #ffffff"/>
  </g>
  <g id="axes_1">
   <g id="patch_2">
    <path d="M 43.78125 316.44327 
L 461.99952 316.44327 
L 461.99952 30.318125 
L 43.78125 30.318125 
z
" style="fill: #ffffff"/>
   </g>
   <g id="matplotlib.axis_1">
    <g id="xtick_1">
     <g id="line2d_1">
      <defs>
       <path id="m6ff9242d81" d="M 0 0 
L 0 3.5 
" style="stroke: #000000; stroke-width: 0.8"/>
      </defs>
      <g>
       <use xlink:href="#m6ff9242d81" x="67.015598" y="316.44327" style="stroke: #000000; stroke-width: 0.8"/>
      </g>
     </g>
     <g id="text_1">
      <!-- 1 -->
      <g transform="translate(63.834348 331.041707) scale(0.1 -0.1)">
       <defs>
        <path id="DejaVuSans-31" d="M 794 531 
L 1825 531 
L 1825 4091 
L 703 3866 
L 703 4441 
L 1819 4666 
L 2450 4666 
L 2450 531 
L 3481 531 
L 3481 0 
L 794 0 
L 794 531 
z
" transform="scale(0.015625)"/>
       </defs>
       <use xlink:href="#DejaVuSans-31"/>
      </g>
     </g>
    </g>
    <g id="xtick_2">
     <g id="line2d_2">
      <g>
       <use xlink:href="#m6ff9242d81" x="90.249947" y="316.44327" style="stroke: #000000; stroke-width: 0.8"/>
      </g>
     </g>
     <g id="text_2">
      <!-- 2 -->
      <g transform="translate(87.068697 331.041707) scale(0.1 -0.1)">
       <defs>
        <path id="DejaVuSans-32" d="M 1228 531 
L 3431 531 
L 3431 0 
L 469 0 
L 469 531 
Q 828 903 1448 1529 
Q 2069 2156 2228 2338 
Q 2531 2678 2651 2914 
Q 2772 3150 2772 3378 
Q 2772 3750 2511 3984 
Q 2250 4219 1831 4219 
Q 1534 4219 1204 4116 
Q 875 4013 500 3803 
L 500 4441 
Q 881 4594 1212 4672 
Q 1544 4750 1819 4750 
Q 2544 4750 2975 4387 
Q 3406 4025 3406 3419 
Q 3406 3131 3298 2873 
Q 3191 2616 2906 2266 
Q 2828 2175 2409 1742 
Q 1991 1309 1228 531 
z
" transform="scale(0.015625)"/>
       </defs>
       <use xlink:href="#DejaVuSans-32"/>
      </g>
     </g>
    </g>
    <g id="xtick_3">
     <g id="line2d_3">
      <g>
       <use xlink:href="#m6ff9242d81" x="113.484295" y="316.44327" style="stroke: #000000; stroke-width: 0.8"/>
      </g>
     </g>
     <g id="text_3">
      <!-- 3 -->
      <g transform="translate(110.303045 331.041707) scale(0.1 -0.1)">
       <defs>
        <path id="DejaVuSans-33" d="M 2597 2516 
Q 3050 2419 3304 2112 
Q 3559 1806 3559 1356 
Q 3559 666 3084 287 
Q 2609 -91 1734 -91 
Q 1441 -91 1130 -33 
Q 819 25 488 141 
L 488 750 
Q 750 597 1062 519 
Q 1375 441 1716 441 
Q 2309 441 2620 675 
Q 2931 909 2931 1356 
Q 2931 1769 2642 2001 
Q 2353 2234 1838 2234 
L 1294 2234 
L 1294 2753 
L 1863 2753 
Q 2328 2753 2575 2939 
Q 2822 3125 2822 3475 
Q 2822 3834 2567 4026 
Q 2313 4219 1838 4219 
Q 1578 4219 1281 4162 
Q 984 4106 628 3988 
L 628 4550 
Q 988 4650 1302 4700 
Q 1616 4750 1894 4750 
Q 2613 4750 3031 4423 
Q 3450 4097 3450 3541 
Q 3450 3153 3228 2886 
Q 3006 2619 2597 2516 
z
" transform="scale(0.015625)"/>
       </defs>
       <use xlink:href="#DejaVuSans-33"/>
      </g>
     </g>
    </g>
    <g id="xtick_4">
     <g id="line2d_4">
      <g>
       <use xlink:href="#m6ff9242d81" x="136.718643" y="316.44327" style="stroke: #000000; stroke-width: 0.8"/>
      </g>
     </g>
     <g id="text_4">
      <!-- 4 -->
      <g transform="translate(133.537393 331.041707) scale(0.1 -0.1)">
       <defs>
        <path id="DejaVuSans-34" d="M 2419 4116 
L 825 1625 
L 2419 1625 
L 2419 4116 
z
M 2253 4666 
L 3047 4666 
L 3047 1625 
L 3713 1625 
L 3713 1100 
L 3047 1100 
L 3047 0 
L 2419 0 
L 2419 1100 
L 313 1100 
L 313 1709 
L 2253 4666 
z
" transform="scale(0.015625)"/>
       </defs>
       <use xlink:href="#DejaVuSans-34"/>
      </g>
     </g>
    </g>
    <g id="xtick_5">
     <g id="line2d_5">
      <g>
       <use xlink:href="#m6ff9242d81" x="159.952992" y="316.44327" style="stroke: #000000; stroke-width: 0.8"/>
      </g>
     </g>
     <g id="text_5">
      <!-- 5 -->
      <g transform="translate(156.771742 331.041707) scale(0.1 -0.1)">
       <defs>
        <path id="DejaVuSans-35" d="M 691 4666 
L 3169 4666 
L 3169 4134 
L 1269 4134 
L 1269 2991 
Q 1406 3038 1543 3061 
Q 1681 3084 1819 3084 
Q 2600 3084 3056 2656 
Q 3513 2228 3513 1497 
Q 3513 744 3044 326 
Q 2575 -91 1722 -91 
Q 1428 -91 1123 -41 
Q 819 9 494 109 
L 494 744 
Q 775 591 1075 516 
Q 1375 441 1709 441 
Q 2250 441 2565 725 
Q 2881 1009 2881 1497 
Q 2881 1984 2565 2268 
Q 2250 2553 1709 2553 
Q 1456 2553 1204 2497 
Q 953 2441 691 2322 
L 691 4666 
z
" transform="scale(0.015625)"/>
       </defs>
       <use xlink:href="#DejaVuSans-35"/>
      </g>
     </g>
    </g>
    <g id="xtick_6">
     <g id="line2d_6">
      <g>
       <use xlink:href="#m6ff9242d81" x="183.18734" y="316.44327" style="stroke: #000000; stroke-width: 0.8"/>
      </g>
     </g>
     <g id="text_6">
      <!-- 6 -->
      <g transform="translate(180.00609 331.041707) scale(0.1 -0.1)">
       <defs>
        <path id="DejaVuSans-36" d="M 2113 2584 
Q 1688 2584 1439 2293 
Q 1191 2003 1191 1497 
Q 1191 994 1439 701 
Q 1688 409 2113 409 
Q 2538 409 2786 701 
Q 3034 994 3034 1497 
Q 3034 2003 2786 2293 
Q 2538 2584 2113 2584 
z
M 3366 4563 
L 3366 3988 
Q 3128 4100 2886 4159 
Q 2644 4219 2406 4219 
Q 1781 4219 1451 3797 
Q 1122 3375 1075 2522 
Q 1259 2794 1537 2939 
Q 1816 3084 2150 3084 
Q 2853 3084 3261 2657 
Q 3669 2231 3669 1497 
Q 3669 778 3244 343 
Q 2819 -91 2113 -91 
Q 1303 -91 875 529 
Q 447 1150 447 2328 
Q 447 3434 972 4092 
Q 1497 4750 2381 4750 
Q 2619 4750 2861 4703 
Q 3103 4656 3366 4563 
z
" transform="scale(0.015625)"/>
       </defs>
       <use xlink:href="#DejaVuSans-36"/>
      </g>
     </g>
    </g>
    <g id="xtick_7">
     <g id="line2d_7">
      <g>
       <use xlink:href="#m6ff9242d81" x="206.421688" y="316.44327" style="stroke: #000000; stroke-width: 0.8"/>
      </g>
     </g>
     <g id="text_7">
      <!-- 7 -->
      <g transform="translate(203.240438 331.041707) scale(0.1 -0.1)">
       <defs>
        <path id="DejaVuSans-37" d="M 525 4666 
L 3525 4666 
L 3525 4397 
L 1831 0 
L 1172 0 
L 2766 4134 
L 525 4134 
L 525 4666 
z
" transform="scale(0.015625)"/>
       </defs>
       <use xlink:href="#DejaVuSans-37"/>
      </g>
     </g>
    </g>
    <g id="xtick_8">
     <g id="line2d_8">
      <g>
       <use xlink:href="#m6ff9242d81" x="229.656037" y="316.44327" style="stroke: #000000; stroke-width: 0.8"/>
      </g>
     </g>
     <g id="text_8">
      <!-- 8 -->
      <g transform="translate(226.474787 331.041707) scale(0.1 -0.1)">
       <defs>
        <path id="DejaVuSans-38" d="M 2034 2216 
Q 1584 2216 1326 1975 
Q 1069 1734 1069 1313 
Q 1069 891 1326 650 
Q 1584 409 2034 409 
Q 2484 409 2743 651 
Q 3003 894 3003 1313 
Q 3003 1734 2745 1975 
Q 2488 2216 2034 2216 
z
M 1403 2484 
Q 997 2584 770 2862 
Q 544 3141 544 3541 
Q 544 4100 942 4425 
Q 1341 4750 2034 4750 
Q 2731 4750 3128 4425 
Q 3525 4100 3525 3541 
Q 3525 3141 3298 2862 
Q 3072 2584 2669 2484 
Q 3125 2378 3379 2068 
Q 3634 1759 3634 1313 
Q 3634 634 3220 271 
Q 2806 -91 2034 -91 
Q 1263 -91 848 271 
Q 434 634 434 1313 
Q 434 1759 690 2068 
Q 947 2378 1403 2484 
z
M 1172 3481 
Q 1172 3119 1398 2916 
Q 1625 2713 2034 2713 
Q 2441 2713 2670 2916 
Q 2900 3119 2900 3481 
Q 2900 3844 2670 4047 
Q 2441 4250 2034 4250 
Q 1625 4250 1398 4047 
Q 1172 3844 1172 3481 
z
" transform="scale(0.015625)"/>
       </defs>
       <use xlink:href="#DejaVuSans-38"/>
      </g>
     </g>
    </g>
    <g id="xtick_9">
     <g id="line2d_9">
      <g>
       <use xlink:href="#m6ff9242d81" x="252.890385" y="316.44327" style="stroke: #000000; stroke-width: 0.8"/>
      </g>
     </g>
     <g id="text_9">
      <!-- 9 -->
      <g transform="translate(249.709135 331.041707) scale(0.1 -0.1)">
       <defs>
        <path id="DejaVuSans-39" d="M 703 97 
L 703 672 
Q 941 559 1184 500 
Q 1428 441 1663 441 
Q 2288 441 2617 861 
Q 2947 1281 2994 2138 
Q 2813 1869 2534 1725 
Q 2256 1581 1919 1581 
Q 1219 1581 811 2004 
Q 403 2428 403 3163 
Q 403 3881 828 4315 
Q 1253 4750 1959 4750 
Q 2769 4750 3195 4129 
Q 3622 3509 3622 2328 
Q 3622 1225 3098 567 
Q 2575 -91 1691 -91 
Q 1453 -91 1209 -44 
Q 966 3 703 97 
z
M 1959 2075 
Q 2384 2075 2632 2365 
Q 2881 2656 2881 3163 
Q 2881 3666 2632 3958 
Q 2384 4250 1959 4250 
Q 1534 4250 1286 3958 
Q 1038 3666 1038 3163 
Q 1038 2656 1286 2365 
Q 1534 2075 1959 2075 
z
" transform="scale(0.015625)"/>
       </defs>
       <use xlink:href="#DejaVuSans-39"/>
      </g>
     </g>
    </g>
    <g id="xtick_10">
     <g id="line2d_10">
      <g>
       <use xlink:href="#m6ff9242d81" x="276.124733" y="316.44327" style="stroke: #000000; stroke-width: 0.8"/>
      </g>
     </g>
     <g id="text_10">
      <!-- 10 -->
      <g transform="translate(269.762233 331.041707) scale(0.1 -0.1)">
       <defs>
        <path id="DejaVuSans-30" d="M 2034 4250 
Q 1547 4250 1301 3770 
Q 1056 3291 1056 2328 
Q 1056 1369 1301 889 
Q 1547 409 2034 409 
Q 2525 409 2770 889 
Q 3016 1369 3016 2328 
Q 3016 3291 2770 3770 
Q 2525 4250 2034 4250 
z
M 2034 4750 
Q 2819 4750 3233 4129 
Q 3647 3509 3647 2328 
Q 3647 1150 3233 529 
Q 2819 -91 2034 -91 
Q 1250 -91 836 529 
Q 422 1150 422 2328 
Q 422 3509 836 4129 
Q 1250 4750 2034 4750 
z
" transform="scale(0.015625)"/>
       </defs>
       <use xlink:href="#DejaVuSans-31"/>
       <use xlink:href="#DejaVuSans-30" transform="translate(63.623047 0)"/>
      </g>
     </g>
    </g>
    <g id="xtick_11">
     <g id="line2d_11">
      <g>
       <use xlink:href="#m6ff9242d81" x="299.359082" y="316.44327" style="stroke: #000000; stroke-width: 0.8"/>
      </g>
     </g>
     <g id="text_11">
      <!-- 11 -->
      <g transform="translate(292.996582 331.041707) scale(0.1 -0.1)">
       <use xlink:href="#DejaVuSans-31"/>
       <use xlink:href="#DejaVuSans-31" transform="translate(63.623047 0)"/>
      </g>
     </g>
    </g>
    <g id="xtick_12">
     <g id="line2d_12">
      <g>
       <use xlink:href="#m6ff9242d81" x="322.59343" y="316.44327" style="stroke: #000000; stroke-width: 0.8"/>
      </g>
     </g>
     <g id="text_12">
      <!-- 12 -->
      <g transform="translate(316.23093 331.041707) scale(0.1 -0.1)">
       <use xlink:href="#DejaVuSans-31"/>
       <use xlink:href="#DejaVuSans-32" transform="translate(63.623047 0)"/>
      </g>
     </g>
    </g>
    <g id="xtick_13">
     <g id="line2d_13">
      <g>
       <use xlink:href="#m6ff9242d81" x="345.827778" y="316.44327" style="stroke: #000000; stroke-width: 0.8"/>
      </g>
     </g>
     <g id="text_13">
      <!-- 13 -->
      <g transform="translate(339.465278 331.041707) scale(0.1 -0.1)">
       <use xlink:href="#DejaVuSans-31"/>
       <use xlink:href="#DejaVuSans-33" transform="translate(63.623047 0)"/>
      </g>
     </g>
    </g>
    <g id="xtick_14">
     <g id="line2d_14">
      <g>
       <use xlink:href="#m6ff9242d81" x="369.062127" y="316.44327" style="stroke: #000000; stroke-width: 0.8"/>
      </g>
     </g>
     <g id="text_14">
      <!-- 14 -->
      <g transform="translate(362.699627 331.041707) scale(0.1 -0.1)">
       <use xlink:href="#DejaVuSans-31"/>
       <use xlink:href="#DejaVuSans-34" transform="translate(63.623047 0)"/>
      </g>
     </g>
    </g>
    <g id="xtick_15">
     <g id="line2d_15">
      <g>
       <use xlink:href="#m6ff9242d81" x="392.296475" y="316.44327" style="stroke: #000000; stroke-width: 0.8"/>
      </g>
     </g>
     <g id="text_15">
      <!-- 15 -->
      <g transform="translate(385.933975 331.041707) scale(0.1 -0.1)">
       <use xlink:href="#DejaVuSans-31"/>
       <use xlink:href="#DejaVuSans-35" transform="translate(63.623047 0)"/>
      </g>
     </g>
    </g>
    <g id="xtick_16">
     <g id="line2d_16">
      <g>
       <use xlink:href="#m6ff9242d81" x="415.530823" y="316.44327" style="stroke: #000000; stroke-width: 0.8"/>
      </g>
     </g>
     <g id="text_16">
      <!-- 16 -->
      <g transform="translate(409.168323 331.041707) scale(0.1 -0.1)">
       <use xlink:href="#DejaVuSans-31"/>
       <use xlink:href="#DejaVuSans-36" transform="translate(63.623047 0)"/>
      </g>
     </g>
    </g>
    <g id="text_17">
     <!-- Core on system -->
     <g transform="translate(213.838041 344.719832) scale(0.1 -0.1)">
      <defs>
       <path id="DejaVuSans-43" d="M 4122 4306 
L 4122 3641 
Q 3803 3938 3442 4084 
Q 3081 4231 2675 4231 
Q 1875 4231 1450 3742 
Q 1025 3253 1025 2328 
Q 1025 1406 1450 917 
Q 1875 428 2675 428 
Q 3081 428 3442 575 
Q 3803 722 4122 1019 
L 4122 359 
Q 3791 134 3420 21 
Q 3050 -91 2638 -91 
Q 1578 -91 968 557 
Q 359 1206 359 2328 
Q 359 3453 968 4101 
Q 1578 4750 2638 4750 
Q 3056 4750 3426 4639 
Q 3797 4528 4122 4306 
z
" transform="scale(0.015625)"/>
       <path id="DejaVuSans-6f" d="M 1959 3097 
Q 1497 3097 1228 2736 
Q 959 2375 959 1747 
Q 959 1119 1226 758 
Q 1494 397 1959 397 
Q 2419 397 2687 759 
Q 2956 1122 2956 1747 
Q 2956 2369 2687 2733 
Q 2419 3097 1959 3097 
z
M 1959 3584 
Q 2709 3584 3137 3096 
Q 3566 2609 3566 1747 
Q 3566 888 3137 398 
Q 2709 -91 1959 -91 
Q 1206 -91 779 398 
Q 353 888 353 1747 
Q 353 2609 779 3096 
Q 1206 3584 1959 3584 
z
" transform="scale(0.015625)"/>
       <path id="DejaVuSans-72" d="M 2631 2963 
Q 2534 3019 2420 3045 
Q 2306 3072 2169 3072 
Q 1681 3072 1420 2755 
Q 1159 2438 1159 1844 
L 1159 0 
L 581 0 
L 581 3500 
L 1159 3500 
L 1159 2956 
Q 1341 3275 1631 3429 
Q 1922 3584 2338 3584 
Q 2397 3584 2469 3576 
Q 2541 3569 2628 3553 
L 2631 2963 
z
" transform="scale(0.015625)"/>
       <path id="DejaVuSans-65" d="M 3597 1894 
L 3597 1613 
L 953 1613 
Q 991 1019 1311 708 
Q 1631 397 2203 397 
Q 2534 397 2845 478 
Q 3156 559 3463 722 
L 3463 178 
Q 3153 47 2828 -22 
Q 2503 -91 2169 -91 
Q 1331 -91 842 396 
Q 353 884 353 1716 
Q 353 2575 817 3079 
Q 1281 3584 2069 3584 
Q 2775 3584 3186 3129 
Q 3597 2675 3597 1894 
z
M 3022 2063 
Q 3016 2534 2758 2815 
Q 2500 3097 2075 3097 
Q 1594 3097 1305 2825 
Q 1016 2553 972 2059 
L 3022 2063 
z
" transform="scale(0.015625)"/>
       <path id="DejaVuSans-20" transform="scale(0.015625)"/>
       <path id="DejaVuSans-6e" d="M 3513 2113 
L 3513 0 
L 2938 0 
L 2938 2094 
Q 2938 2591 2744 2837 
Q 2550 3084 2163 3084 
Q 1697 3084 1428 2787 
Q 1159 2491 1159 1978 
L 1159 0 
L 581 0 
L 581 3500 
L 1159 3500 
L 1159 2956 
Q 1366 3272 1645 3428 
Q 1925 3584 2291 3584 
Q 2894 3584 3203 3211 
Q 3513 2838 3513 2113 
z
" transform="scale(0.015625)"/>
       <path id="DejaVuSans-73" d="M 2834 3397 
L 2834 2853 
Q 2591 2978 2328 3040 
Q 2066 3103 1784 3103 
Q 1356 3103 1142 2972 
Q 928 2841 928 2578 
Q 928 2378 1081 2264 
Q 1234 2150 1697 2047 
L 1894 2003 
Q 2506 1872 2764 1633 
Q 3022 1394 3022 966 
Q 3022 478 2636 193 
Q 2250 -91 1575 -91 
Q 1294 -91 989 -36 
Q 684 19 347 128 
L 347 722 
Q 666 556 975 473 
Q 1284 391 1588 391 
Q 1994 391 2212 530 
Q 2431 669 2431 922 
Q 2431 1156 2273 1281 
Q 2116 1406 1581 1522 
L 1381 1569 
Q 847 1681 609 1914 
Q 372 2147 372 2553 
Q 372 3047 722 3315 
Q 1072 3584 1716 3584 
Q 2034 3584 2315 3537 
Q 2597 3491 2834 3397 
z
" transform="scale(0.015625)"/>
       <path id="DejaVuSans-79" d="M 2059 -325 
Q 1816 -950 1584 -1140 
Q 1353 -1331 966 -1331 
L 506 -1331 
L 506 -850 
L 844 -850 
Q 1081 -850 1212 -737 
Q 1344 -625 1503 -206 
L 1606 56 
L 191 3500 
L 800 3500 
L 1894 763 
L 2988 3500 
L 3597 3500 
L 2059 -325 
z
" transform="scale(0.015625)"/>
       <path id="DejaVuSans-74" d="M 1172 4494 
L 1172 3500 
L 2356 3500 
L 2356 3053 
L 1172 3053 
L 1172 1153 
Q 1172 725 1289 603 
Q 1406 481 1766 481 
L 2356 481 
L 2356 0 
L 1766 0 
Q 1100 0 847 248 
Q 594 497 594 1153 
L 594 3053 
L 172 3053 
L 172 3500 
L 594 3500 
L 594 4494 
L 1172 4494 
z
" transform="scale(0.015625)"/>
       <path id="DejaVuSans-6d" d="M 3328 2828 
Q 3544 3216 3844 3400 
Q 4144 3584 4550 3584 
Q 5097 3584 5394 3201 
Q 5691 2819 5691 2113 
L 5691 0 
L 5113 0 
L 5113 2094 
Q 5113 2597 4934 2840 
Q 4756 3084 4391 3084 
Q 3944 3084 3684 2787 
Q 3425 2491 3425 1978 
L 3425 0 
L 2847 0 
L 2847 2094 
Q 2847 2600 2669 2842 
Q 2491 3084 2119 3084 
Q 1678 3084 1418 2786 
Q 1159 2488 1159 1978 
L 1159 0 
L 581 0 
L 581 3500 
L 1159 3500 
L 1159 2956 
Q 1356 3278 1631 3431 
Q 1906 3584 2284 3584 
Q 2666 3584 2933 3390 
Q 3200 3197 3328 2828 
z
" transform="scale(0.015625)"/>
      </defs>
      <use xlink:href="#DejaVuSans-43"/>
      <use xlink:href="#DejaVuSans-6f" transform="translate(69.824219 0)"/>
      <use xlink:href="#DejaVuSans-72" transform="translate(131.005859 0)"/>
      <use xlink:href="#DejaVuSans-65" transform="translate(169.869141 0)"/>
      <use xlink:href="#DejaVuSans-20" transform="translate(231.392578 0)"/>
      <use xlink:href="#DejaVuSans-6f" transform="translate(263.179688 0)"/>
      <use xlink:href="#DejaVuSans-6e" transform="translate(324.361328 0)"/>
      <use xlink:href="#DejaVuSans-20" transform="translate(387.740234 0)"/>
      <use xlink:href="#DejaVuSans-73" transform="translate(419.527344 0)"/>
      <use xlink:href="#DejaVuSans-79" transform="translate(471.626953 0)"/>
      <use xlink:href="#DejaVuSans-73" transform="translate(530.806641 0)"/>
      <use xlink:href="#DejaVuSans-74" transform="translate(582.90625 0)"/>
      <use xlink:href="#DejaVuSans-65" transform="translate(622.115234 0)"/>
      <use xlink:href="#DejaVuSans-6d" transform="translate(683.638672 0)"/>
     </g>
    </g>
   </g>
   <g id="matplotlib.axis_2">
    <g id="ytick_1">
     <g id="line2d_17">
      <defs>
       <path id="mc5abd921b3" d="M 0 0 
L -3.5 0 
" style="stroke: #000000; stroke-width: 0.8"/>
      </defs>
      <g>
       <use xlink:href="#mc5abd921b3" x="43.78125" y="316.44327" style="stroke: #000000; stroke-width: 0.8"/>
      </g>
     </g>
     <g id="text_18">
      <!-- 0.0 -->
      <g transform="translate(20.878125 320.242489) scale(0.1 -0.1)">
       <defs>
        <path id="DejaVuSans-2e" d="M 684 794 
L 1344 794 
L 1344 0 
L 684 0 
L 684 794 
z
" transform="scale(0.015625)"/>
       </defs>
       <use xlink:href="#DejaVuSans-30"/>
       <use xlink:href="#DejaVuSans-2e" transform="translate(63.623047 0)"/>
       <use xlink:href="#DejaVuSans-30" transform="translate(95.410156 0)"/>
      </g>
     </g>
    </g>
    <g id="ytick_2">
     <g id="line2d_18">
      <g>
       <use xlink:href="#mc5abd921b3" x="43.78125" y="279.106108" style="stroke: #000000; stroke-width: 0.8"/>
      </g>
     </g>
     <g id="text_19">
      <!-- 0.5 -->
      <g transform="translate(20.878125 282.905326) scale(0.1 -0.1)">
       <use xlink:href="#DejaVuSans-30"/>
       <use xlink:href="#DejaVuSans-2e" transform="translate(63.623047 0)"/>
       <use xlink:href="#DejaVuSans-35" transform="translate(95.410156 0)"/>
      </g>
     </g>
    </g>
    <g id="ytick_3">
     <g id="line2d_19">
      <g>
       <use xlink:href="#mc5abd921b3" x="43.78125" y="241.768945" style="stroke: #000000; stroke-width: 0.8"/>
      </g>
     </g>
     <g id="text_20">
      <!-- 1.0 -->
      <g transform="translate(20.878125 245.568164) scale(0.1 -0.1)">
       <use xlink:href="#DejaVuSans-31"/>
       <use xlink:href="#DejaVuSans-2e" transform="translate(63.623047 0)"/>
       <use xlink:href="#DejaVuSans-30" transform="translate(95.410156 0)"/>
      </g>
     </g>
    </g>
    <g id="ytick_4">
     <g id="line2d_20">
      <g>
       <use xlink:href="#mc5abd921b3" x="43.78125" y="204.431783" style="stroke: #000000; stroke-width: 0.8"/>
      </g>
     </g>
     <g id="text_21">
      <!-- 1.5 -->
      <g transform="translate(20.878125 208.231001) scale(0.1 -0.1)">
       <use xlink:href="#DejaVuSans-31"/>
       <use xlink:href="#DejaVuSans-2e" transform="translate(63.623047 0)"/>
       <use xlink:href="#DejaVuSans-35" transform="translate(95.410156 0)"/>
      </g>
     </g>
    </g>
    <g id="ytick_5">
     <g id="line2d_21">
      <g>
       <use xlink:href="#mc5abd921b3" x="43.78125" y="167.09462" style="stroke: #000000; stroke-width: 0.8"/>
      </g>
     </g>
     <g id="text_22">
      <!-- 2.0 -->
      <g transform="translate(20.878125 170.893839) scale(0.1 -0.1)">
       <use xlink:href="#DejaVuSans-32"/>
       <use xlink:href="#DejaVuSans-2e" transform="translate(63.623047 0)"/>
       <use xlink:href="#DejaVuSans-30" transform="translate(95.410156 0)"/>
      </g>
     </g>
    </g>
    <g id="ytick_6">
     <g id="line2d_22">
      <g>
       <use xlink:href="#mc5abd921b3" x="43.78125" y="129.757458" style="stroke: #000000; stroke-width: 0.8"/>
      </g>
     </g>
     <g id="text_23">
      <!-- 2.5 -->
      <g transform="translate(20.878125 133.556677) scale(0.1 -0.1)">
       <use xlink:href="#DejaVuSans-32"/>
       <use xlink:href="#DejaVuSans-2e" transform="translate(63.623047 0)"/>
       <use xlink:href="#DejaVuSans-35" transform="translate(95.410156 0)"/>
      </g>
     </g>
    </g>
    <g id="ytick_7">
     <g id="line2d_23">
      <g>
       <use xlink:href="#mc5abd921b3" x="43.78125" y="92.420295" style="stroke: #000000; stroke-width: 0.8"/>
      </g>
     </g>
     <g id="text_24">
      <!-- 3.0 -->
      <g transform="translate(20.878125 96.219514) scale(0.1 -0.1)">
       <use xlink:href="#DejaVuSans-33"/>
       <use xlink:href="#DejaVuSans-2e" transform="translate(63.623047 0)"/>
       <use xlink:href="#DejaVuSans-30" transform="translate(95.410156 0)"/>
      </g>
     </g>
    </g>
    <g id="ytick_8">
     <g id="line2d_24">
      <g>
       <use xlink:href="#mc5abd921b3" x="43.78125" y="55.083133" style="stroke: #000000; stroke-width: 0.8"/>
      </g>
     </g>
     <g id="text_25">
      <!-- 3.5 -->
      <g transform="translate(20.878125 58.882352) scale(0.1 -0.1)">
       <use xlink:href="#DejaVuSans-33"/>
       <use xlink:href="#DejaVuSans-2e" transform="translate(63.623047 0)"/>
       <use xlink:href="#DejaVuSans-35" transform="translate(95.410156 0)"/>
      </g>
     </g>
    </g>
    <g id="ytick_9">
     <g id="line2d_25">
      <defs>
       <path id="me8d9e43398" d="M 0 0 
L -2 0 
" style="stroke: #000000; stroke-width: 0.6"/>
      </defs>
      <g>
       <use xlink:href="#me8d9e43398" x="43.78125" y="308.975838" style="stroke: #000000; stroke-width: 0.6"/>
      </g>
     </g>
    </g>
    <g id="ytick_10">
     <g id="line2d_26">
      <g>
       <use xlink:href="#me8d9e43398" x="43.78125" y="301.508405" style="stroke: #000000; stroke-width: 0.6"/>
      </g>
     </g>
    </g>
    <g id="ytick_11">
     <g id="line2d_27">
      <g>
       <use xlink:href="#me8d9e43398" x="43.78125" y="294.040973" style="stroke: #000000; stroke-width: 0.6"/>
      </g>
     </g>
    </g>
    <g id="ytick_12">
     <g id="line2d_28">
      <g>
       <use xlink:href="#me8d9e43398" x="43.78125" y="286.57354" style="stroke: #000000; stroke-width: 0.6"/>
      </g>
     </g>
    </g>
    <g id="ytick_13">
     <g id="line2d_29">
      <g>
       <use xlink:href="#me8d9e43398" x="43.78125" y="271.638675" style="stroke: #000000; stroke-width: 0.6"/>
      </g>
     </g>
    </g>
    <g id="ytick_14">
     <g id="line2d_30">
      <g>
       <use xlink:href="#me8d9e43398" x="43.78125" y="264.171243" style="stroke: #000000; stroke-width: 0.6"/>
      </g>
     </g>
    </g>
    <g id="ytick_15">
     <g id="line2d_31">
      <g>
       <use xlink:href="#me8d9e43398" x="43.78125" y="256.70381" style="stroke: #000000; stroke-width: 0.6"/>
      </g>
     </g>
    </g>
    <g id="ytick_16">
     <g id="line2d_32">
      <g>
       <use xlink:href="#me8d9e43398" x="43.78125" y="249.236378" style="stroke: #000000; stroke-width: 0.6"/>
      </g>
     </g>
    </g>
    <g id="ytick_17">
     <g id="line2d_33">
      <g>
       <use xlink:href="#me8d9e43398" x="43.78125" y="234.301513" style="stroke: #000000; stroke-width: 0.6"/>
      </g>
     </g>
    </g>
    <g id="ytick_18">
     <g id="line2d_34">
      <g>
       <use xlink:href="#me8d9e43398" x="43.78125" y="226.83408" style="stroke: #000000; stroke-width: 0.6"/>
      </g>
     </g>
    </g>
    <g id="ytick_19">
     <g id="line2d_35">
      <g>
       <use xlink:href="#me8d9e43398" x="43.78125" y="219.366648" style="stroke: #000000; stroke-width: 0.6"/>
      </g>
     </g>
    </g>
    <g id="ytick_20">
     <g id="line2d_36">
      <g>
       <use xlink:href="#me8d9e43398" x="43.78125" y="211.899215" style="stroke: #000000; stroke-width: 0.6"/>
      </g>
     </g>
    </g>
    <g id="ytick_21">
     <g id="line2d_37">
      <g>
       <use xlink:href="#me8d9e43398" x="43.78125" y="196.96435" style="stroke: #000000; stroke-width: 0.6"/>
      </g>
     </g>
    </g>
    <g id="ytick_22">
     <g id="line2d_38">
      <g>
       <use xlink:href="#me8d9e43398" x="43.78125" y="189.496918" style="stroke: #000000; stroke-width: 0.6"/>
      </g>
     </g>
    </g>
    <g id="ytick_23">
     <g id="line2d_39">
      <g>
       <use xlink:href="#me8d9e43398" x="43.78125" y="182.029485" style="stroke: #000000; stroke-width: 0.6"/>
      </g>
     </g>
    </g>
    <g id="ytick_24">
     <g id="line2d_40">
      <g>
       <use xlink:href="#me8d9e43398" x="43.78125" y="174.562053" style="stroke: #000000; stroke-width: 0.6"/>
      </g>
     </g>
    </g>
    <g id="ytick_25">
     <g id="line2d_41">
      <g>
       <use xlink:href="#me8d9e43398" x="43.78125" y="159.627188" style="stroke: #000000; stroke-width: 0.6"/>
      </g>
     </g>
    </g>
    <g id="ytick_26">
     <g id="line2d_42">
      <g>
       <use xlink:href="#me8d9e43398" x="43.78125" y="152.159755" style="stroke: #000000; stroke-width: 0.6"/>
      </g>
     </g>
    </g>
    <g id="ytick_27">
     <g id="line2d_43">
      <g>
       <use xlink:href="#me8d9e43398" x="43.78125" y="144.692323" style="stroke: #000000; stroke-width: 0.6"/>
      </g>
     </g>
    </g>
    <g id="ytick_28">
     <g id="line2d_44">
      <g>
       <use xlink:href="#me8d9e43398" x="43.78125" y="137.22489" style="stroke: #000000; stroke-width: 0.6"/>
      </g>
     </g>
    </g>
    <g id="ytick_29">
     <g id="line2d_45">
      <g>
       <use xlink:href="#me8d9e43398" x="43.78125" y="122.290025" style="stroke: #000000; stroke-width: 0.6"/>
      </g>
     </g>
    </g>
    <g id="ytick_30">
     <g id="line2d_46">
      <g>
       <use xlink:href="#me8d9e43398" x="43.78125" y="114.822593" style="stroke: #000000; stroke-width: 0.6"/>
      </g>
     </g>
    </g>
    <g id="ytick_31">
     <g id="line2d_47">
      <g>
       <use xlink:href="#me8d9e43398" x="43.78125" y="107.35516" style="stroke: #000000; stroke-width: 0.6"/>
      </g>
     </g>
    </g>
    <g id="ytick_32">
     <g id="line2d_48">
      <g>
       <use xlink:href="#me8d9e43398" x="43.78125" y="99.887728" style="stroke: #000000; stroke-width: 0.6"/>
      </g>
     </g>
    </g>
    <g id="ytick_33">
     <g id="line2d_49">
      <g>
       <use xlink:href="#me8d9e43398" x="43.78125" y="84.952863" style="stroke: #000000; stroke-width: 0.6"/>
      </g>
     </g>
    </g>
    <g id="ytick_34">
     <g id="line2d_50">
      <g>
       <use xlink:href="#me8d9e43398" x="43.78125" y="77.48543" style="stroke: #000000; stroke-width: 0.6"/>
      </g>
     </g>
    </g>
    <g id="ytick_35">
     <g id="line2d_51">
      <g>
       <use xlink:href="#me8d9e43398" x="43.78125" y="70.017998" style="stroke: #000000; stroke-width: 0.6"/>
      </g>
     </g>
    </g>
    <g id="ytick_36">
     <g id="line2d_52">
      <g>
       <use xlink:href="#me8d9e43398" x="43.78125" y="62.550566" style="stroke: #000000; stroke-width: 0.6"/>
      </g>
     </g>
    </g>
    <g id="ytick_37">
     <g id="line2d_53">
      <g>
       <use xlink:href="#me8d9e43398" x="43.78125" y="47.615701" style="stroke: #000000; stroke-width: 0.6"/>
      </g>
     </g>
    </g>
    <g id="ytick_38">
     <g id="line2d_54">
      <g>
       <use xlink:href="#me8d9e43398" x="43.78125" y="40.148268" style="stroke: #000000; stroke-width: 0.6"/>
      </g>
     </g>
    </g>
    <g id="ytick_39">
     <g id="line2d_55">
      <g>
       <use xlink:href="#me8d9e43398" x="43.78125" y="32.680836" style="stroke: #000000; stroke-width: 0.6"/>
      </g>
     </g>
    </g>
    <g id="text_26">
     <!-- Cycles per instruction (CPI) -->
     <g transform="translate(14.798438 241.280697) rotate(-90) scale(0.1 -0.1)">
      <defs>
       <path id="DejaVuSans-63" d="M 3122 3366 
L 3122 2828 
Q 2878 2963 2633 3030 
Q 2388 3097 2138 3097 
Q 1578 3097 1268 2742 
Q 959 2388 959 1747 
Q 959 1106 1268 751 
Q 1578 397 2138 397 
Q 2388 397 2633 464 
Q 2878 531 3122 666 
L 3122 134 
Q 2881 22 2623 -34 
Q 2366 -91 2075 -91 
Q 1284 -91 818 406 
Q 353 903 353 1747 
Q 353 2603 823 3093 
Q 1294 3584 2113 3584 
Q 2378 3584 2631 3529 
Q 2884 3475 3122 3366 
z
" transform="scale(0.015625)"/>
       <path id="DejaVuSans-6c" d="M 603 4863 
L 1178 4863 
L 1178 0 
L 603 0 
L 603 4863 
z
" transform="scale(0.015625)"/>
       <path id="DejaVuSans-70" d="M 1159 525 
L 1159 -1331 
L 581 -1331 
L 581 3500 
L 1159 3500 
L 1159 2969 
Q 1341 3281 1617 3432 
Q 1894 3584 2278 3584 
Q 2916 3584 3314 3078 
Q 3713 2572 3713 1747 
Q 3713 922 3314 415 
Q 2916 -91 2278 -91 
Q 1894 -91 1617 61 
Q 1341 213 1159 525 
z
M 3116 1747 
Q 3116 2381 2855 2742 
Q 2594 3103 2138 3103 
Q 1681 3103 1420 2742 
Q 1159 2381 1159 1747 
Q 1159 1113 1420 752 
Q 1681 391 2138 391 
Q 2594 391 2855 752 
Q 3116 1113 3116 1747 
z
" transform="scale(0.015625)"/>
       <path id="DejaVuSans-69" d="M 603 3500 
L 1178 3500 
L 1178 0 
L 603 0 
L 603 3500 
z
M 603 4863 
L 1178 4863 
L 1178 4134 
L 603 4134 
L 603 4863 
z
" transform="scale(0.015625)"/>
       <path id="DejaVuSans-75" d="M 544 1381 
L 544 3500 
L 1119 3500 
L 1119 1403 
Q 1119 906 1312 657 
Q 1506 409 1894 409 
Q 2359 409 2629 706 
Q 2900 1003 2900 1516 
L 2900 3500 
L 3475 3500 
L 3475 0 
L 2900 0 
L 2900 538 
Q 2691 219 2414 64 
Q 2138 -91 1772 -91 
Q 1169 -91 856 284 
Q 544 659 544 1381 
z
M 1991 3584 
L 1991 3584 
z
" transform="scale(0.015625)"/>
       <path id="DejaVuSans-28" d="M 1984 4856 
Q 1566 4138 1362 3434 
Q 1159 2731 1159 2009 
Q 1159 1288 1364 580 
Q 1569 -128 1984 -844 
L 1484 -844 
Q 1016 -109 783 600 
Q 550 1309 550 2009 
Q 550 2706 781 3412 
Q 1013 4119 1484 4856 
L 1984 4856 
z
" transform="scale(0.015625)"/>
       <path id="DejaVuSans-50" d="M 1259 4147 
L 1259 2394 
L 2053 2394 
Q 2494 2394 2734 2622 
Q 2975 2850 2975 3272 
Q 2975 3691 2734 3919 
Q 2494 4147 2053 4147 
L 1259 4147 
z
M 628 4666 
L 2053 4666 
Q 2838 4666 3239 4311 
Q 3641 3956 3641 3272 
Q 3641 2581 3239 2228 
Q 2838 1875 2053 1875 
L 1259 1875 
L 1259 0 
L 628 0 
L 628 4666 
z
" transform="scale(0.015625)"/>
       <path id="DejaVuSans-49" d="M 628 4666 
L 1259 4666 
L 1259 0 
L 628 0 
L 628 4666 
z
" transform="scale(0.015625)"/>
       <path id="DejaVuSans-29" d="M 513 4856 
L 1013 4856 
Q 1481 4119 1714 3412 
Q 1947 2706 1947 2009 
Q 1947 1309 1714 600 
Q 1481 -109 1013 -844 
L 513 -844 
Q 928 -128 1133 580 
Q 1338 1288 1338 2009 
Q 1338 2731 1133 3434 
Q 928 4138 513 4856 
z
" transform="scale(0.015625)"/>
      </defs>
      <use xlink:href="#DejaVuSans-43"/>
      <use xlink:href="#DejaVuSans-79" transform="translate(69.824219 0)"/>
      <use xlink:href="#DejaVuSans-63" transform="translate(129.003906 0)"/>
      <use xlink:href="#DejaVuSans-6c" transform="translate(183.984375 0)"/>
      <use xlink:href="#DejaVuSans-65" transform="translate(211.767578 0)"/>
      <use xlink:href="#DejaVuSans-73" transform="translate(273.291016 0)"/>
      <use xlink:href="#DejaVuSans-20" transform="translate(325.390625 0)"/>
      <use xlink:href="#DejaVuSans-70" transform="translate(357.177734 0)"/>
      <use xlink:href="#DejaVuSans-65" transform="translate(420.654297 0)"/>
      <use xlink:href="#DejaVuSans-72" transform="translate(482.177734 0)"/>
      <use xlink:href="#DejaVuSans-20" transform="translate(523.291016 0)"/>
      <use xlink:href="#DejaVuSans-69" transform="translate(555.078125 0)"/>
      <use xlink:href="#DejaVuSans-6e" transform="translate(582.861328 0)"/>
      <use xlink:href="#DejaVuSans-73" transform="translate(646.240234 0)"/>
      <use xlink:href="#DejaVuSans-74" transform="translate(698.339844 0)"/>
      <use xlink:href="#DejaVuSans-72" transform="translate(737.548828 0)"/>
      <use xlink:href="#DejaVuSans-75" transform="translate(778.662109 0)"/>
      <use xlink:href="#DejaVuSans-63" transform="translate(842.041016 0)"/>
      <use xlink:href="#DejaVuSans-74" transform="translate(897.021484 0)"/>
      <use xlink:href="#DejaVuSans-69" transform="translate(936.230469 0)"/>
      <use xlink:href="#DejaVuSans-6f" transform="translate(964.013672 0)"/>
      <use xlink:href="#DejaVuSans-6e" transform="translate(1025.195312 0)"/>
      <use xlink:href="#DejaVuSans-20" transform="translate(1088.574219 0)"/>
      <use xlink:href="#DejaVuSans-28" transform="translate(1120.361328 0)"/>
      <use xlink:href="#DejaVuSans-43" transform="translate(1159.375 0)"/>
      <use xlink:href="#DejaVuSans-50" transform="translate(1229.199219 0)"/>
      <use xlink:href="#DejaVuSans-49" transform="translate(1289.501953 0)"/>
      <use xlink:href="#DejaVuSans-29" transform="translate(1318.994141 0)"/>
     </g>
    </g>
   </g>
   <g id="LineCollection_1">
    <path d="M 57.721859 316.44327 
L 57.721859 56.080035 
" clip-path="url(#pe1238acd35)" style="fill: none; stroke: #1f77b4; stroke-width: 1.5"/>
    <path d="M 80.956207 316.44327 
L 80.956207 60.092212 
" clip-path="url(#pe1238acd35)" style="fill: none; stroke: #1f77b4; stroke-width: 1.5"/>
   </g>
   <g id="line2d_56">
    <defs>
     <path id="mf5650ca16c" d="M 0 3 
C 0.795609 3 1.55874 2.683901 2.12132 2.12132 
C 2.683901 1.55874 3 0.795609 3 0 
C 3 -0.795609 2.683901 -1.55874 2.12132 -2.12132 
C 1.55874 -2.683901 0.795609 -3 0 -3 
C -0.795609 -3 -1.55874 -2.683901 -2.12132 -2.12132 
C -2.683901 -1.55874 -3 -0.795609 -3 0 
C -3 0.795609 -2.683901 1.55874 -2.12132 2.12132 
C -1.55874 2.683901 -0.795609 3 0 3 
z
" style="stroke: #1f77b4"/>
    </defs>
    <g clip-path="url(#pe1238acd35)">
     <use xlink:href="#mf5650ca16c" x="57.721859" y="56.080035" style="fill: #1f77b4; stroke: #1f77b4"/>
     <use xlink:href="#mf5650ca16c" x="80.956207" y="60.092212" style="fill: #1f77b4; stroke: #1f77b4"/>
    </g>
   </g>
   <g id="line2d_57">
    <path d="M 57.721859 316.44327 
L 80.956207 316.44327 
" clip-path="url(#pe1238acd35)" style="fill: none; stroke: #1f77b4; stroke-width: 1.5; stroke-linecap: square"/>
   </g>
   <g id="LineCollection_2">
    <path d="M 62.368729 316.44327 
L 62.368729 57.884914 
" clip-path="url(#pe1238acd35)" style="fill: none; stroke: #ff7f0e; stroke-width: 1.5"/>
    <path d="M 85.603077 316.44327 
L 85.603077 69.552777 
" clip-path="url(#pe1238acd35)" style="fill: none; stroke: #ff7f0e; stroke-width: 1.5"/>
    <path d="M 108.837425 316.44327 
L 108.837425 70.417879 
" clip-path="url(#pe1238acd35)" style="fill: none; stroke: #ff7f0e; stroke-width: 1.5"/>
    <path d="M 132.071774 316.44327 
L 132.071774 71.879032 
" clip-path="url(#pe1238acd35)" style="fill: none; stroke: #ff7f0e; stroke-width: 1.5"/>
   </g>
   <g id="line2d_58">
    <defs>
     <path id="mefcc17d2a1" d="M 0 3 
C 0.795609 3 1.55874 2.683901 2.12132 2.12132 
C 2.683901 1.55874 3 0.795609 3 0 
C 3 -0.795609 2.683901 -1.55874 2.12132 -2.12132 
C 1.55874 -2.683901 0.795609 -3 0 -3 
C -0.795609 -3 -1.55874 -2.683901 -2.12132 -2.12132 
C -2.683901 -1.55874 -3 -0.795609 -3 0 
C -3 0.795609 -2.683901 1.55874 -2.12132 2.12132 
C -1.55874 2.683901 -0.795609 3 0 3 
z
" style="stroke: #ff7f0e"/>
    </defs>
    <g clip-path="url(#pe1238acd35)">
     <use xlink:href="#mefcc17d2a1" x="62.368729" y="57.884914" style="fill: #ff7f0e; stroke: #ff7f0e"/>
     <use xlink:href="#mefcc17d2a1" x="85.603077" y="69.552777" style="fill: #ff7f0e; stroke: #ff7f0e"/>
     <use xlink:href="#mefcc17d2a1" x="108.837425" y="70.417879" style="fill: #ff7f0e; stroke: #ff7f0e"/>
     <use xlink:href="#mefcc17d2a1" x="132.071774" y="71.879032" style="fill: #ff7f0e; stroke: #ff7f0e"/>
    </g>
   </g>
   <g id="line2d_59">
    <path d="M 62.368729 316.44327 
L 132.071774 316.44327 
" clip-path="url(#pe1238acd35)" style="fill: none; stroke: #ff7f0e; stroke-width: 1.5; stroke-linecap: square"/>
   </g>
   <g id="LineCollection_3">
    <path d="M 67.015598 316.44327 
L 67.015598 55.203508 
" clip-path="url(#pe1238acd35)" style="fill: none; stroke: #2ca02c; stroke-width: 1.5"/>
    <path d="M 90.249947 316.44327 
L 90.249947 84.965483 
" clip-path="url(#pe1238acd35)" style="fill: none; stroke: #2ca02c; stroke-width: 1.5"/>
    <path d="M 113.484295 316.44327 
L 113.484295 85.028881 
" clip-path="url(#pe1238acd35)" style="fill: none; stroke: #2ca02c; stroke-width: 1.5"/>
    <path d="M 136.718643 316.44327 
L 136.718643 85.760167 
" clip-path="url(#pe1238acd35)" style="fill: none; stroke: #2ca02c; stroke-width: 1.5"/>
    <path d="M 159.952992 316.44327 
L 159.952992 85.663016 
" clip-path="url(#pe1238acd35)" style="fill: none; stroke: #2ca02c; stroke-width: 1.5"/>
    <path d="M 183.18734 316.44327 
L 183.18734 86.236888 
" clip-path="url(#pe1238acd35)" style="fill: none; stroke: #2ca02c; stroke-width: 1.5"/>
    <path d="M 206.421688 316.44327 
L 206.421688 87.315857 
" clip-path="url(#pe1238acd35)" style="fill: none; stroke: #2ca02c; stroke-width: 1.5"/>
    <path d="M 229.656037 316.44327 
L 229.656037 88.554928 
" clip-path="url(#pe1238acd35)" style="fill: none; stroke: #2ca02c; stroke-width: 1.5"/>
   </g>
   <g id="line2d_60">
    <defs>
     <path id="ma979a07867" d="M 0 3 
C 0.795609 3 1.55874 2.683901 2.12132 2.12132 
C 2.683901 1.55874 3 0.795609 3 0 
C 3 -0.795609 2.683901 -1.55874 2.12132 -2.12132 
C 1.55874 -2.683901 0.795609 -3 0 -3 
C -0.795609 -3 -1.55874 -2.683901 -2.12132 -2.12132 
C -2.683901 -1.55874 -3 -0.795609 -3 0 
C -3 0.795609 -2.683901 1.55874 -2.12132 2.12132 
C -1.55874 2.683901 -0.795609 3 0 3 
z
" style="stroke: #2ca02c"/>
    </defs>
    <g clip-path="url(#pe1238acd35)">
     <use xlink:href="#ma979a07867" x="67.015598" y="55.203508" style="fill: #2ca02c; stroke: #2ca02c"/>
     <use xlink:href="#ma979a07867" x="90.249947" y="84.965483" style="fill: #2ca02c; stroke: #2ca02c"/>
     <use xlink:href="#ma979a07867" x="113.484295" y="85.028881" style="fill: #2ca02c; stroke: #2ca02c"/>
     <use xlink:href="#ma979a07867" x="136.718643" y="85.760167" style="fill: #2ca02c; stroke: #2ca02c"/>
     <use xlink:href="#ma979a07867" x="159.952992" y="85.663016" style="fill: #2ca02c; stroke: #2ca02c"/>
     <use xlink:href="#ma979a07867" x="183.18734" y="86.236888" style="fill: #2ca02c; stroke: #2ca02c"/>
     <use xlink:href="#ma979a07867" x="206.421688" y="87.315857" style="fill: #2ca02c; stroke: #2ca02c"/>
     <use xlink:href="#ma979a07867" x="229.656037" y="88.554928" style="fill: #2ca02c; stroke: #2ca02c"/>
    </g>
   </g>
   <g id="line2d_61">
    <path d="M 67.015598 316.44327 
L 229.656037 316.44327 
" clip-path="url(#pe1238acd35)" style="fill: none; stroke: #2ca02c; stroke-width: 1.5; stroke-linecap: square"/>
   </g>
   <g id="LineCollection_4">
    <path d="M 71.662468 316.44327 
L 71.662468 51.51258 
" clip-path="url(#pe1238acd35)" style="fill: none; stroke: #d62728; stroke-width: 1.5"/>
    <path d="M 94.896816 316.44327 
L 94.896816 93.723586 
" clip-path="url(#pe1238acd35)" style="fill: none; stroke: #d62728; stroke-width: 1.5"/>
    <path d="M 118.131165 316.44327 
L 118.131165 94.020417 
" clip-path="url(#pe1238acd35)" style="fill: none; stroke: #d62728; stroke-width: 1.5"/>
    <path d="M 141.365513 316.44327 
L 141.365513 94.393639 
" clip-path="url(#pe1238acd35)" style="fill: none; stroke: #d62728; stroke-width: 1.5"/>
    <path d="M 164.599861 316.44327 
L 164.599861 93.858448 
" clip-path="url(#pe1238acd35)" style="fill: none; stroke: #d62728; stroke-width: 1.5"/>
    <path d="M 187.83421 316.44327 
L 187.83421 93.713281 
" clip-path="url(#pe1238acd35)" style="fill: none; stroke: #d62728; stroke-width: 1.5"/>
    <path d="M 211.068558 316.44327 
L 211.068558 93.940515 
" clip-path="url(#pe1238acd35)" style="fill: none; stroke: #d62728; stroke-width: 1.5"/>
    <path d="M 234.302906 316.44327 
L 234.302906 94.612062 
" clip-path="url(#pe1238acd35)" style="fill: none; stroke: #d62728; stroke-width: 1.5"/>
    <path d="M 257.537255 316.44327 
L 257.537255 94.100244 
" clip-path="url(#pe1238acd35)" style="fill: none; stroke: #d62728; stroke-width: 1.5"/>
    <path d="M 280.771603 316.44327 
L 280.771603 93.774813 
" clip-path="url(#pe1238acd35)" style="fill: none; stroke: #d62728; stroke-width: 1.5"/>
    <path d="M 304.005951 316.44327 
L 304.005951 95.438034 
" clip-path="url(#pe1238acd35)" style="fill: none; stroke: #d62728; stroke-width: 1.5"/>
    <path d="M 327.2403 316.44327 
L 327.2403 94.816371 
" clip-path="url(#pe1238acd35)" style="fill: none; stroke: #d62728; stroke-width: 1.5"/>
    <path d="M 350.474648 316.44327 
L 350.474648 95.718138 
" clip-path="url(#pe1238acd35)" style="fill: none; stroke: #d62728; stroke-width: 1.5"/>
    <path d="M 373.708996 316.44327 
L 373.708996 96.082548 
" clip-path="url(#pe1238acd35)" style="fill: none; stroke: #d62728; stroke-width: 1.5"/>
    <path d="M 396.943345 316.44327 
L 396.943345 95.678336 
" clip-path="url(#pe1238acd35)" style="fill: none; stroke: #d62728; stroke-width: 1.5"/>
    <path d="M 420.177693 316.44327 
L 420.177693 96.710485 
" clip-path="url(#pe1238acd35)" style="fill: none; stroke: #d62728; stroke-width: 1.5"/>
   </g>
   <g id="line2d_62">
    <defs>
     <path id="mc7304e2e69" d="M 0 3 
C 0.795609 3 1.55874 2.683901 2.12132 2.12132 
C 2.683901 1.55874 3 0.795609 3 0 
C 3 -0.795609 2.683901 -1.55874 2.12132 -2.12132 
C 1.55874 -2.683901 0.795609 -3 0 -3 
C -0.795609 -3 -1.55874 -2.683901 -2.12132 -2.12132 
C -2.683901 -1.55874 -3 -0.795609 -3 0 
C -3 0.795609 -2.683901 1.55874 -2.12132 2.12132 
C -1.55874 2.683901 -0.795609 3 0 3 
z
" style="stroke: #d62728"/>
    </defs>
    <g clip-path="url(#pe1238acd35)">
     <use xlink:href="#mc7304e2e69" x="71.662468" y="51.51258" style="fill: #d62728; stroke: #d62728"/>
     <use xlink:href="#mc7304e2e69" x="94.896816" y="93.723586" style="fill: #d62728; stroke: #d62728"/>
     <use xlink:href="#mc7304e2e69" x="118.131165" y="94.020417" style="fill: #d62728; stroke: #d62728"/>
     <use xlink:href="#mc7304e2e69" x="141.365513" y="94.393639" style="fill: #d62728; stroke: #d62728"/>
     <use xlink:href="#mc7304e2e69" x="164.599861" y="93.858448" style="fill: #d62728; stroke: #d62728"/>
     <use xlink:href="#mc7304e2e69" x="187.83421" y="93.713281" style="fill: #d62728; stroke: #d62728"/>
     <use xlink:href="#mc7304e2e69" x="211.068558" y="93.940515" style="fill: #d62728; stroke: #d62728"/>
     <use xlink:href="#mc7304e2e69" x="234.302906" y="94.612062" style="fill: #d62728; stroke: #d62728"/>
     <use xlink:href="#mc7304e2e69" x="257.537255" y="94.100244" style="fill: #d62728; stroke: #d62728"/>
     <use xlink:href="#mc7304e2e69" x="280.771603" y="93.774813" style="fill: #d62728; stroke: #d62728"/>
     <use xlink:href="#mc7304e2e69" x="304.005951" y="95.438034" style="fill: #d62728; stroke: #d62728"/>
     <use xlink:href="#mc7304e2e69" x="327.2403" y="94.816371" style="fill: #d62728; stroke: #d62728"/>
     <use xlink:href="#mc7304e2e69" x="350.474648" y="95.718138" style="fill: #d62728; stroke: #d62728"/>
     <use xlink:href="#mc7304e2e69" x="373.708996" y="96.082548" style="fill: #d62728; stroke: #d62728"/>
     <use xlink:href="#mc7304e2e69" x="396.943345" y="95.678336" style="fill: #d62728; stroke: #d62728"/>
     <use xlink:href="#mc7304e2e69" x="420.177693" y="96.710485" style="fill: #d62728; stroke: #d62728"/>
    </g>
   </g>
   <g id="line2d_63">
    <path d="M 71.662468 316.44327 
L 420.177693 316.44327 
" clip-path="url(#pe1238acd35)" style="fill: none; stroke: #d62728; stroke-width: 1.5; stroke-linecap: square"/>
   </g>
   <g id="patch_3">
    <path d="M 43.78125 316.44327 
L 43.78125 30.318125 
" style="fill: none; stroke: #000000; stroke-width: 0.8; stroke-linejoin: miter; stroke-linecap: square"/>
   </g>
   <g id="patch_4">
    <path d="M 461.99952 316.44327 
L 461.99952 30.318125 
" style="fill: none; stroke: #000000; stroke-width: 0.8; stroke-linejoin: miter; stroke-linecap: square"/>
   </g>
   <g id="patch_5">
    <path d="M 43.78125 316.44327 
L 461.99952 316.44327 
" style="fill: none; stroke: #000000; stroke-width: 0.8; stroke-linejoin: miter; stroke-linecap: square"/>
   </g>
   <g id="patch_6">
    <path d="M 43.78125 30.318125 
L 461.99952 30.318125 
" style="fill: none; stroke: #000000; stroke-width: 0.8; stroke-linejoin: miter; stroke-linecap: square"/>
   </g>
   <g id="text_27">
    <!-- Individual core CPI across different CPU counts -->
    <g transform="translate(112.603823 16.318125) scale(0.12 -0.12)">
     <defs>
      <path id="DejaVuSans-64" d="M 2906 2969 
L 2906 4863 
L 3481 4863 
L 3481 0 
L 2906 0 
L 2906 525 
Q 2725 213 2448 61 
Q 2172 -91 1784 -91 
Q 1150 -91 751 415 
Q 353 922 353 1747 
Q 353 2572 751 3078 
Q 1150 3584 1784 3584 
Q 2172 3584 2448 3432 
Q 2725 3281 2906 2969 
z
M 947 1747 
Q 947 1113 1208 752 
Q 1469 391 1925 391 
Q 2381 391 2643 752 
Q 2906 1113 2906 1747 
Q 2906 2381 2643 2742 
Q 2381 3103 1925 3103 
Q 1469 3103 1208 2742 
Q 947 2381 947 1747 
z
" transform="scale(0.015625)"/>
      <path id="DejaVuSans-76" d="M 191 3500 
L 800 3500 
L 1894 563 
L 2988 3500 
L 3597 3500 
L 2284 0 
L 1503 0 
L 191 3500 
z
" transform="scale(0.015625)"/>
      <path id="DejaVuSans-61" d="M 2194 1759 
Q 1497 1759 1228 1600 
Q 959 1441 959 1056 
Q 959 750 1161 570 
Q 1363 391 1709 391 
Q 2188 391 2477 730 
Q 2766 1069 2766 1631 
L 2766 1759 
L 2194 1759 
z
M 3341 1997 
L 3341 0 
L 2766 0 
L 2766 531 
Q 2569 213 2275 61 
Q 1981 -91 1556 -91 
Q 1019 -91 701 211 
Q 384 513 384 1019 
Q 384 1609 779 1909 
Q 1175 2209 1959 2209 
L 2766 2209 
L 2766 2266 
Q 2766 2663 2505 2880 
Q 2244 3097 1772 3097 
Q 1472 3097 1187 3025 
Q 903 2953 641 2809 
L 641 3341 
Q 956 3463 1253 3523 
Q 1550 3584 1831 3584 
Q 2591 3584 2966 3190 
Q 3341 2797 3341 1997 
z
" transform="scale(0.015625)"/>
      <path id="DejaVuSans-66" d="M 2375 4863 
L 2375 4384 
L 1825 4384 
Q 1516 4384 1395 4259 
Q 1275 4134 1275 3809 
L 1275 3500 
L 2222 3500 
L 2222 3053 
L 1275 3053 
L 1275 0 
L 697 0 
L 697 3053 
L 147 3053 
L 147 3500 
L 697 3500 
L 697 3744 
Q 697 4328 969 4595 
Q 1241 4863 1831 4863 
L 2375 4863 
z
" transform="scale(0.015625)"/>
      <path id="DejaVuSans-55" d="M 556 4666 
L 1191 4666 
L 1191 1831 
Q 1191 1081 1462 751 
Q 1734 422 2344 422 
Q 2950 422 3222 751 
Q 3494 1081 3494 1831 
L 3494 4666 
L 4128 4666 
L 4128 1753 
Q 4128 841 3676 375 
Q 3225 -91 2344 -91 
Q 1459 -91 1007 375 
Q 556 841 556 1753 
L 556 4666 
z
" transform="scale(0.015625)"/>
     </defs>
     <use xlink:href="#DejaVuSans-49"/>
     <use xlink:href="#DejaVuSans-6e" transform="translate(29.492188 0)"/>
     <use xlink:href="#DejaVuSans-64" transform="translate(92.871094 0)"/>
     <use xlink:href="#DejaVuSans-69" transform="translate(156.347656 0)"/>
     <use xlink:href="#DejaVuSans-76" transform="translate(184.130859 0)"/>
     <use xlink:href="#DejaVuSans-69" transform="translate(243.310547 0)"/>
     <use xlink:href="#DejaVuSans-64" transform="translate(271.09375 0)"/>
     <use xlink:href="#DejaVuSans-75" transform="translate(334.570312 0)"/>
     <use xlink:href="#DejaVuSans-61" transform="translate(397.949219 0)"/>
     <use xlink:href="#DejaVuSans-6c" transform="translate(459.228516 0)"/>
     <use xlink:href="#DejaVuSans-20" transform="translate(487.011719 0)"/>
     <use xlink:href="#DejaVuSans-63" transform="translate(518.798828 0)"/>
     <use xlink:href="#DejaVuSans-6f" transform="translate(573.779297 0)"/>
     <use xlink:href="#DejaVuSans-72" transform="translate(634.960938 0)"/>
     <use xlink:href="#DejaVuSans-65" transform="translate(673.824219 0)"/>
     <use xlink:href="#DejaVuSans-20" transform="translate(735.347656 0)"/>
     <use xlink:href="#DejaVuSans-43" transform="translate(767.134766 0)"/>
     <use xlink:href="#DejaVuSans-50" transform="translate(836.958984 0)"/>
     <use xlink:href="#DejaVuSans-49" transform="translate(897.261719 0)"/>
     <use xlink:href="#DejaVuSans-20" transform="translate(926.753906 0)"/>
     <use xlink:href="#DejaVuSans-61" transform="translate(958.541016 0)"/>
     <use xlink:href="#DejaVuSans-63" transform="translate(1019.820312 0)"/>
     <use xlink:href="#DejaVuSans-72" transform="translate(1074.800781 0)"/>
     <use xlink:href="#DejaVuSans-6f" transform="translate(1113.664062 0)"/>
     <use xlink:href="#DejaVuSans-73" transform="translate(1174.845703 0)"/>
     <use xlink:href="#DejaVuSans-73" transform="translate(1226.945312 0)"/>
     <use xlink:href="#DejaVuSans-20" transform="translate(1279.044922 0)"/>
     <use xlink:href="#DejaVuSans-64" transform="translate(1310.832031 0)"/>
     <use xlink:href="#DejaVuSans-69" transform="translate(1374.308594 0)"/>
     <use xlink:href="#DejaVuSans-66" transform="translate(1402.091797 0)"/>
     <use xlink:href="#DejaVuSans-66" transform="translate(1437.296875 0)"/>
     <use xlink:href="#DejaVuSans-65" transform="translate(1472.501953 0)"/>
     <use xlink:href="#DejaVuSans-72" transform="translate(1534.025391 0)"/>
     <use xlink:href="#DejaVuSans-65" transform="translate(1572.888672 0)"/>
     <use xlink:href="#DejaVuSans-6e" transform="translate(1634.412109 0)"/>
     <use xlink:href="#DejaVuSans-74" transform="translate(1697.791016 0)"/>
     <use xlink:href="#DejaVuSans-20" transform="translate(1737 0)"/>
     <use xlink:href="#DejaVuSans-43" transform="translate(1768.787109 0)"/>
     <use xlink:href="#DejaVuSans-50" transform="translate(1838.611328 0)"/>
     <use xlink:href="#DejaVuSans-55" transform="translate(1898.914062 0)"/>
     <use xlink:href="#DejaVuSans-20" transform="translate(1972.107422 0)"/>
     <use xlink:href="#DejaVuSans-63" transform="translate(2003.894531 0)"/>
     <use xlink:href="#DejaVuSans-6f" transform="translate(2058.875 0)"/>
     <use xlink:href="#DejaVuSans-75" transform="translate(2120.056641 0)"/>
     <use xlink:href="#DejaVuSans-6e" transform="translate(2183.435547 0)"/>
     <use xlink:href="#DejaVuSans-74" transform="translate(2246.814453 0)"/>
     <use xlink:href="#DejaVuSans-73" transform="translate(2286.023438 0)"/>
    </g>
   </g>
   <g id="legend_1">
    <g id="patch_7">
     <path d="M 381.55577 311.44327 
L 454.99952 311.44327 
Q 456.99952 311.44327 456.99952 309.44327 
L 456.99952 237.052645 
Q 456.99952 235.052645 454.99952 235.052645 
L 381.55577 235.052645 
Q 379.55577 235.052645 379.55577 237.052645 
L 379.55577 309.44327 
Q 379.55577 311.44327 381.55577 311.44327 
z
" style="fill: #ffffff; opacity: 0.8; stroke: #cccccc; stroke-linejoin: miter"/>
    </g>
    <g id="text_28">
     <!-- CPU count -->
     <g transform="translate(392.416708 246.651082) scale(0.1 -0.1)">
      <use xlink:href="#DejaVuSans-43"/>
      <use xlink:href="#DejaVuSans-50" transform="translate(69.824219 0)"/>
      <use xlink:href="#DejaVuSans-55" transform="translate(130.126953 0)"/>
      <use xlink:href="#DejaVuSans-20" transform="translate(203.320312 0)"/>
      <use xlink:href="#DejaVuSans-63" transform="translate(235.107422 0)"/>
      <use xlink:href="#DejaVuSans-6f" transform="translate(290.087891 0)"/>
      <use xlink:href="#DejaVuSans-75" transform="translate(351.269531 0)"/>
      <use xlink:href="#DejaVuSans-6e" transform="translate(414.648438 0)"/>
      <use xlink:href="#DejaVuSans-74" transform="translate(478.027344 0)"/>
     </g>
    </g>
    <g id="line2d_64">
     <path d="M 393.55577 261.329207 
L 393.55577 256.516707 
" style="fill: none; stroke: #1f77b4; stroke-width: 1.5"/>
    </g>
    <g id="line2d_65">
     <path d="M 383.55577 261.329207 
L 403.55577 261.329207 
" style="fill: none; stroke: #1f77b4; stroke-width: 1.5; stroke-linecap: square"/>
    </g>
    <g id="line2d_66">
     <g>
      <use xlink:href="#mf5650ca16c" x="393.55577" y="256.516707" style="fill: #1f77b4; stroke: #1f77b4"/>
     </g>
    </g>
    <g id="text_29">
     <!-- 2 CPUs -->
     <g transform="translate(411.55577 261.329207) scale(0.1 -0.1)">
      <use xlink:href="#DejaVuSans-32"/>
      <use xlink:href="#DejaVuSans-20" transform="translate(63.623047 0)"/>
      <use xlink:href="#DejaVuSans-43" transform="translate(95.410156 0)"/>
      <use xlink:href="#DejaVuSans-50" transform="translate(165.234375 0)"/>
      <use xlink:href="#DejaVuSans-55" transform="translate(225.537109 0)"/>
      <use xlink:href="#DejaVuSans-73" transform="translate(298.730469 0)"/>
     </g>
    </g>
    <g id="line2d_67">
     <path d="M 393.55577 276.007332 
L 393.55577 271.194832 
" style="fill: none; stroke: #ff7f0e; stroke-width: 1.5"/>
    </g>
    <g id="line2d_68">
     <path d="M 383.55577 276.007332 
L 403.55577 276.007332 
" style="fill: none; stroke: #ff7f0e; stroke-width: 1.5; stroke-linecap: square"/>
    </g>
    <g id="line2d_69">
     <g>
      <use xlink:href="#mefcc17d2a1" x="393.55577" y="271.194832" style="fill: #ff7f0e; stroke: #ff7f0e"/>
     </g>
    </g>
    <g id="text_30">
     <!-- 4 CPUs -->
     <g transform="translate(411.55577 276.007332) scale(0.1 -0.1)">
      <use xlink:href="#DejaVuSans-34"/>
      <use xlink:href="#DejaVuSans-20" transform="translate(63.623047 0)"/>
      <use xlink:href="#DejaVuSans-43" transform="translate(95.410156 0)"/>
      <use xlink:href="#DejaVuSans-50" transform="translate(165.234375 0)"/>
      <use xlink:href="#DejaVuSans-55" transform="translate(225.537109 0)"/>
      <use xlink:href="#DejaVuSans-73" transform="translate(298.730469 0)"/>
     </g>
    </g>
    <g id="line2d_70">
     <path d="M 393.55577 290.685457 
L 393.55577 285.872957 
" style="fill: none; stroke: #2ca02c; stroke-width: 1.5"/>
    </g>
    <g id="line2d_71">
     <path d="M 383.55577 290.685457 
L 403.55577 290.685457 
" style="fill: none; stroke: #2ca02c; stroke-width: 1.5; stroke-linecap: square"/>
    </g>
    <g id="line2d_72">
     <g>
      <use xlink:href="#ma979a07867" x="393.55577" y="285.872957" style="fill: #2ca02c; stroke: #2ca02c"/>
     </g>
    </g>
    <g id="text_31">
     <!-- 8 CPUs -->
     <g transform="translate(411.55577 290.685457) scale(0.1 -0.1)">
      <use xlink:href="#DejaVuSans-38"/>
      <use xlink:href="#DejaVuSans-20" transform="translate(63.623047 0)"/>
      <use xlink:href="#DejaVuSans-43" transform="translate(95.410156 0)"/>
      <use xlink:href="#DejaVuSans-50" transform="translate(165.234375 0)"/>
      <use xlink:href="#DejaVuSans-55" transform="translate(225.537109 0)"/>
      <use xlink:href="#DejaVuSans-73" transform="translate(298.730469 0)"/>
     </g>
    </g>
    <g id="line2d_73">
     <path d="M 393.55577 305.363582 
L 393.55577 300.551082 
" style="fill: none; stroke: #d62728; stroke-width: 1.5"/>
    </g>
    <g id="line2d_74">
     <path d="M 383.55577 305.363582 
L 403.55577 305.363582 
" style="fill: none; stroke: #d62728; stroke-width: 1.5; stroke-linecap: square"/>
    </g>
    <g id="line2d_75">
     <g>
      <use xlink:href="#mc7304e2e69" x="393.55577" y="300.551082" style="fill: #d62728; stroke: #d62728"/>
     </g>
    </g>
    <g id="text_32">
     <!-- 16 CPUs -->
     <g transform="translate(411.55577 305.363582) scale(0.1 -0.1)">
      <use xlink:href="#DejaVuSans-31"/>
      <use xlink:href="#DejaVuSans-36" transform="translate(63.623047 0)"/>
      <use xlink:href="#DejaVuSans-20" transform="translate(127.246094 0)"/>
      <use xlink:href="#DejaVuSans-43" transform="translate(159.033203 0)"/>
      <use xlink:href="#DejaVuSans-50" transform="translate(228.857422 0)"/>
      <use xlink:href="#DejaVuSans-55" transform="translate(289.160156 0)"/>
      <use xlink:href="#DejaVuSans-73" transform="translate(362.353516 0)"/>
     </g>
    </g>
   </g>
  </g>
 </g>
 <defs>
  <clipPath id="pe1238acd35">
   <rect x="43.78125" y="30.318125" width="418.21827" height="286.125145"/>
  </clipPath>
 </defs>
</svg>
