<?xml version="1.0" encoding="UTF-8" standalone="no"?>
<!DOCTYPE svg PUBLIC "-//W3C//DTD SVG 1.1//EN"
 "http://www.w3.org/Graphics/SVG/1.1/DTD/svg11.dtd">
<!-- Generated by graphviz version 2.43.0 (0)
 -->
<!-- Title: G Pages: 1 -->
<svg width="443pt" height="339pt"
 viewBox="0.00 0.00 443.01 339.40" xmlns="http://www.w3.org/2000/svg" xmlns:xlink="http://www.w3.org/1999/xlink">
<g id="graph0" class="graph" transform="scale(1 1) rotate(0) translate(4 335.4)">
<title>G</title>
<polygon fill="white" stroke="transparent" points="-4,4 -4,-335.4 439.01,-335.4 439.01,4 -4,4"/>
<!-- board.cache_hierarchy.ruby_system.network.routers0 -->
<g id="node1" class="node">
<title>board.cache_hierarchy.ruby_system.network.routers0</title>
<path fill="#cce6fc" stroke="#000000" d="M117.23,-143.91C117.23,-143.91 147.23,-143.91 147.23,-143.91 153.23,-143.91 159.23,-149.91 159.23,-155.91 159.23,-155.91 159.23,-167.91 159.23,-167.91 159.23,-173.91 153.23,-179.91 147.23,-179.91 147.23,-179.91 117.23,-179.91 117.23,-179.91 111.23,-179.91 105.23,-173.91 105.23,-167.91 105.23,-167.91 105.23,-155.91 105.23,-155.91 105.23,-149.91 111.23,-143.91 117.23,-143.91"/>
<text text-anchor="middle" x="132.23" y="-158.21" font-family="Arial" font-size="14.00" fill="#000000">R 0</text>
</g>
<!-- board.cache_hierarchy.ruby_system.network.routers1 -->
<g id="node2" class="node">
<title>board.cache_hierarchy.ruby_system.network.routers1</title>
<path fill="#cce6fc" stroke="#000000" d="M163.3,-72.18C163.3,-72.18 193.3,-72.18 193.3,-72.18 199.3,-72.18 205.3,-78.18 205.3,-84.18 205.3,-84.18 205.3,-96.18 205.3,-96.18 205.3,-102.18 199.3,-108.18 193.3,-108.18 193.3,-108.18 163.3,-108.18 163.3,-108.18 157.3,-108.18 151.3,-102.18 151.3,-96.18 151.3,-96.18 151.3,-84.18 151.3,-84.18 151.3,-78.18 157.3,-72.18 163.3,-72.18"/>
<text text-anchor="middle" x="178.3" y="-86.48" font-family="Arial" font-size="14.00" fill="#000000">R 1</text>
</g>
<!-- board.cache_hierarchy.ruby_system.network.routers0&#45;&#45;board.cache_hierarchy.ruby_system.network.routers1 -->
<g id="edge1" class="edge">
<title>board.cache_hierarchy.ruby_system.network.routers0&#45;&#45;board.cache_hierarchy.ruby_system.network.routers1</title>
<path fill="none" stroke="#042d50" d="M143.86,-143.81C149.06,-135.72 155.29,-126.01 161.02,-117.09"/>
<polygon fill="#042d50" stroke="#042d50" points="164.06,-118.83 166.52,-108.52 158.17,-115.05 164.06,-118.83"/>
</g>
<!-- board.cache_hierarchy.ruby_system.network.routers2 -->
<g id="node3" class="node">
<title>board.cache_hierarchy.ruby_system.network.routers2</title>
<path fill="#cce6fc" stroke="#000000" d="M248.53,-76.12C248.53,-76.12 278.53,-76.12 278.53,-76.12 284.53,-76.12 290.53,-82.12 290.53,-88.12 290.53,-88.12 290.53,-100.12 290.53,-100.12 290.53,-106.12 284.53,-112.12 278.53,-112.12 278.53,-112.12 248.53,-112.12 248.53,-112.12 242.53,-112.12 236.53,-106.12 236.53,-100.12 236.53,-100.12 236.53,-88.12 236.53,-88.12 236.53,-82.12 242.53,-76.12 248.53,-76.12"/>
<text text-anchor="middle" x="263.53" y="-90.42" font-family="Arial" font-size="14.00" fill="#000000">R 2</text>
</g>
<!-- board.cache_hierarchy.ruby_system.network.routers1&#45;&#45;board.cache_hierarchy.ruby_system.network.routers2 -->
<g id="edge2" class="edge">
<title>board.cache_hierarchy.ruby_system.network.routers1&#45;&#45;board.cache_hierarchy.ruby_system.network.routers2</title>
<path fill="none" stroke="#042d50" d="M205.74,-91.45C212.19,-91.75 219.18,-92.07 225.98,-92.38"/>
<polygon fill="#042d50" stroke="#042d50" points="226.29,-95.9 236.44,-92.87 226.61,-88.91 226.29,-95.9"/>
</g>
<!-- board.cache_hierarchy.ruby_system.network.routers3 -->
<g id="node4" class="node">
<title>board.cache_hierarchy.ruby_system.network.routers3</title>
<path fill="#cce6fc" stroke="#000000" d="M287.72,-151.82C287.72,-151.82 317.72,-151.82 317.72,-151.82 323.72,-151.82 329.72,-157.82 329.72,-163.82 329.72,-163.82 329.72,-175.82 329.72,-175.82 329.72,-181.82 323.72,-187.82 317.72,-187.82 317.72,-187.82 287.72,-187.82 287.72,-187.82 281.72,-187.82 275.72,-181.82 275.72,-175.82 275.72,-175.82 275.72,-163.82 275.72,-163.82 275.72,-157.82 281.72,-151.82 287.72,-151.82"/>
<text text-anchor="middle" x="302.72" y="-166.12" font-family="Arial" font-size="14.00" fill="#000000">R 3</text>
</g>
<!-- board.cache_hierarchy.ruby_system.network.routers2&#45;&#45;board.cache_hierarchy.ruby_system.network.routers3 -->
<g id="edge3" class="edge">
<title>board.cache_hierarchy.ruby_system.network.routers2&#45;&#45;board.cache_hierarchy.ruby_system.network.routers3</title>
<path fill="none" stroke="#042d50" d="M273.02,-112.44C277.69,-121.46 283.41,-132.52 288.58,-142.51"/>
<polygon fill="#042d50" stroke="#042d50" points="285.62,-144.39 293.32,-151.67 291.83,-141.18 285.62,-144.39"/>
</g>
<!-- board.cache_hierarchy.ruby_system.network.routers4 -->
<g id="node5" class="node">
<title>board.cache_hierarchy.ruby_system.network.routers4</title>
<path fill="#cce6fc" stroke="#000000" d="M241.64,-223.61C241.64,-223.61 271.64,-223.61 271.64,-223.61 277.64,-223.61 283.64,-229.61 283.64,-235.61 283.64,-235.61 283.64,-247.61 283.64,-247.61 283.64,-253.61 277.64,-259.61 271.64,-259.61 271.64,-259.61 241.64,-259.61 241.64,-259.61 235.64,-259.61 229.64,-253.61 229.64,-247.61 229.64,-247.61 229.64,-235.61 229.64,-235.61 229.64,-229.61 235.64,-223.61 241.64,-223.61"/>
<text text-anchor="middle" x="256.64" y="-237.91" font-family="Arial" font-size="14.00" fill="#000000">R 4</text>
</g>
<!-- board.cache_hierarchy.ruby_system.network.routers3&#45;&#45;board.cache_hierarchy.ruby_system.network.routers4 -->
<g id="edge4" class="edge">
<title>board.cache_hierarchy.ruby_system.network.routers3&#45;&#45;board.cache_hierarchy.ruby_system.network.routers4</title>
<path fill="none" stroke="#042d50" d="M291.09,-187.94C285.89,-196.04 279.66,-205.75 273.93,-214.68"/>
<polygon fill="#042d50" stroke="#042d50" points="270.88,-212.94 268.42,-223.25 276.77,-216.72 270.88,-212.94"/>
</g>
<!-- board.cache_hierarchy.ruby_system.network.routers5 -->
<g id="node6" class="node">
<title>board.cache_hierarchy.ruby_system.network.routers5</title>
<path fill="#cce6fc" stroke="#000000" d="M156.44,-219.66C156.44,-219.66 186.44,-219.66 186.44,-219.66 192.44,-219.66 198.44,-225.66 198.44,-231.66 198.44,-231.66 198.44,-243.66 198.44,-243.66 198.44,-249.66 192.44,-255.66 186.44,-255.66 186.44,-255.66 156.44,-255.66 156.44,-255.66 150.44,-255.66 144.44,-249.66 144.44,-243.66 144.44,-243.66 144.44,-231.66 144.44,-231.66 144.44,-225.66 150.44,-219.66 156.44,-219.66"/>
<text text-anchor="middle" x="171.44" y="-233.96" font-family="Arial" font-size="14.00" fill="#000000">R 5</text>
</g>
<!-- board.cache_hierarchy.ruby_system.network.routers4&#45;&#45;board.cache_hierarchy.ruby_system.network.routers5 -->
<g id="edge5" class="edge">
<title>board.cache_hierarchy.ruby_system.network.routers4&#45;&#45;board.cache_hierarchy.ruby_system.network.routers5</title>
<path fill="none" stroke="#042d50" d="M229.21,-240.34C222.76,-240.04 215.78,-239.72 208.97,-239.4"/>
<polygon fill="#042d50" stroke="#042d50" points="208.67,-235.88 198.52,-238.92 208.35,-242.88 208.67,-235.88"/>
</g>
<!-- board.cache_hierarchy.ruby_system.network.routers5&#45;&#45;board.cache_hierarchy.ruby_system.network.routers0 -->
<g id="edge6" class="edge">
<title>board.cache_hierarchy.ruby_system.network.routers5&#45;&#45;board.cache_hierarchy.ruby_system.network.routers0</title>
<path fill="none" stroke="#042d50" d="M161.95,-219.33C157.27,-210.3 151.55,-199.23 146.38,-189.24"/>
<polygon fill="#042d50" stroke="#042d50" points="149.34,-187.35 141.64,-180.08 143.12,-190.57 149.34,-187.35"/>
</g>
<!-- board.cache_hierarchy.ruby_system.l1_controllers0 -->
<g id="node7" class="node">
<title>board.cache_hierarchy.ruby_system.l1_controllers0</title>
<path fill="#e5bcd0" stroke="#000000" d="M12,-139.5C12,-139.5 92,-139.5 92,-139.5 98,-139.5 104,-145.5 104,-151.5 104,-151.5 104,-163.5 104,-163.5 104,-169.5 98,-175.5 92,-175.5 92,-175.5 12,-175.5 12,-175.5 6,-175.5 0,-169.5 0,-163.5 0,-163.5 0,-151.5 0,-151.5 0,-145.5 6,-139.5 12,-139.5"/>
<text text-anchor="middle" x="52" y="-153.8" font-family="Arial" font-size="14.00" fill="#000000">l1_controllers0</text>
</g>
<!-- board.cache_hierarchy.ruby_system.l1_controllers0&#45;&#45;board.cache_hierarchy.ruby_system.network.routers0 -->
<g id="edge7" class="edge">
<title>board.cache_hierarchy.ruby_system.l1_controllers0&#45;&#45;board.cache_hierarchy.ruby_system.network.routers0</title>
<path fill="none" stroke="#381526" d="M104.53,-160.39C104.59,-160.39 104.65,-160.39 104.71,-160.4"/>
<polygon fill="#381526" stroke="#381526" points="114.35,-157.42 104.17,-160.37 113.96,-164.41 114.35,-157.42"/>
<polygon fill="#381526" stroke="#381526" points="94.71,-163.35 104.89,-160.41 95.1,-156.36 94.71,-163.35"/>
</g>
<!-- board.cache_hierarchy.ruby_system.l1_controllers1 -->
<g id="node8" class="node">
<title>board.cache_hierarchy.ruby_system.l1_controllers1</title>
<path fill="#e5bcd0" stroke="#000000" d="M101.94,-0.5C101.94,-0.5 181.94,-0.5 181.94,-0.5 187.94,-0.5 193.94,-6.5 193.94,-12.5 193.94,-12.5 193.94,-24.5 193.94,-24.5 193.94,-30.5 187.94,-36.5 181.94,-36.5 181.94,-36.5 101.94,-36.5 101.94,-36.5 95.94,-36.5 89.94,-30.5 89.94,-24.5 89.94,-24.5 89.94,-12.5 89.94,-12.5 89.94,-6.5 95.94,-0.5 101.94,-0.5"/>
<text text-anchor="middle" x="141.94" y="-14.8" font-family="Arial" font-size="14.00" fill="#000000">l1_controllers1</text>
</g>
<!-- board.cache_hierarchy.ruby_system.l1_controllers1&#45;&#45;board.cache_hierarchy.ruby_system.network.routers1 -->
<g id="edge8" class="edge">
<title>board.cache_hierarchy.ruby_system.l1_controllers1&#45;&#45;board.cache_hierarchy.ruby_system.network.routers1</title>
<path fill="none" stroke="#381526" d="M155.73,-45.68C158.57,-51.28 161.56,-57.18 164.41,-62.79"/>
<polygon fill="#381526" stroke="#381526" points="158.76,-43.92 151.12,-36.59 152.52,-47.09 158.76,-43.92"/>
<polygon fill="#381526" stroke="#381526" points="161.36,-64.51 169,-71.85 167.6,-61.35 161.36,-64.51"/>
</g>
<!-- board.cache_hierarchy.ruby_system.l1_controllers2 -->
<g id="node9" class="node">
<title>board.cache_hierarchy.ruby_system.l1_controllers2</title>
<path fill="#e5bcd0" stroke="#000000" d="M266.38,-8.11C266.38,-8.11 346.38,-8.11 346.38,-8.11 352.38,-8.11 358.38,-14.11 358.38,-20.11 358.38,-20.11 358.38,-32.11 358.38,-32.11 358.38,-38.11 352.38,-44.11 346.38,-44.11 346.38,-44.11 266.38,-44.11 266.38,-44.11 260.38,-44.11 254.38,-38.11 254.38,-32.11 254.38,-32.11 254.38,-20.11 254.38,-20.11 254.38,-14.11 260.38,-8.11 266.38,-8.11"/>
<text text-anchor="middle" x="306.38" y="-22.41" font-family="Arial" font-size="14.00" fill="#000000">l1_controllers2</text>
</g>
<!-- board.cache_hierarchy.ruby_system.l1_controllers2&#45;&#45;board.cache_hierarchy.ruby_system.network.routers2 -->
<g id="edge9" class="edge">
<title>board.cache_hierarchy.ruby_system.l1_controllers2&#45;&#45;board.cache_hierarchy.ruby_system.network.routers2</title>
<path fill="none" stroke="#381526" d="M289.44,-53C286.5,-57.67 283.44,-62.52 280.5,-67.19"/>
<polygon fill="#381526" stroke="#381526" points="292.53,-54.66 294.89,-44.33 286.6,-50.93 292.53,-54.66"/>
<polygon fill="#381526" stroke="#381526" points="277.41,-65.52 275.05,-75.84 283.34,-69.25 277.41,-65.52"/>
</g>
<!-- board.cache_hierarchy.ruby_system.l1_controllers3 -->
<g id="node10" class="node">
<title>board.cache_hierarchy.ruby_system.l1_controllers3</title>
<path fill="#e5bcd0" stroke="#000000" d="M343.01,-155.03C343.01,-155.03 423.01,-155.03 423.01,-155.03 429.01,-155.03 435.01,-161.03 435.01,-167.03 435.01,-167.03 435.01,-179.03 435.01,-179.03 435.01,-185.03 429.01,-191.03 423.01,-191.03 423.01,-191.03 343.01,-191.03 343.01,-191.03 337.01,-191.03 331.01,-185.03 331.01,-179.03 331.01,-179.03 331.01,-167.03 331.01,-167.03 331.01,-161.03 337.01,-155.03 343.01,-155.03"/>
<text text-anchor="middle" x="383.01" y="-169.33" font-family="Arial" font-size="14.00" fill="#000000">l1_controllers3</text>
</g>
<!-- board.cache_hierarchy.ruby_system.l1_controllers3&#45;&#45;board.cache_hierarchy.ruby_system.network.routers3 -->
<g id="edge10" class="edge">
<title>board.cache_hierarchy.ruby_system.l1_controllers3&#45;&#45;board.cache_hierarchy.ruby_system.network.routers3</title>
<path fill="none" stroke="#381526" d="M329.99,-170.91C329.95,-170.91 329.91,-170.91 329.86,-170.91"/>
<polygon fill="#381526" stroke="#381526" points="320.67,-174.04 330.8,-170.94 320.95,-167.05 320.67,-174.04"/>
<polygon fill="#381526" stroke="#381526" points="339.86,-167.81 329.73,-170.9 339.58,-174.8 339.86,-167.81"/>
</g>
<!-- board.cache_hierarchy.ruby_system.l2_controllers -->
<g id="node11" class="node">
<title>board.cache_hierarchy.ruby_system.l2_controllers</title>
<path fill="#e5bcd0" stroke="#000000" d="M257.21,-294.9C257.21,-294.9 330.21,-294.9 330.21,-294.9 336.21,-294.9 342.21,-300.9 342.21,-306.9 342.21,-306.9 342.21,-318.9 342.21,-318.9 342.21,-324.9 336.21,-330.9 330.21,-330.9 330.21,-330.9 257.21,-330.9 257.21,-330.9 251.21,-330.9 245.21,-324.9 245.21,-318.9 245.21,-318.9 245.21,-306.9 245.21,-306.9 245.21,-300.9 251.21,-294.9 257.21,-294.9"/>
<text text-anchor="middle" x="293.71" y="-309.2" font-family="Arial" font-size="14.00" fill="#000000">l2_controllers</text>
</g>
<!-- board.cache_hierarchy.ruby_system.l2_controllers&#45;&#45;board.cache_hierarchy.ruby_system.network.routers4 -->
<g id="edge11" class="edge">
<title>board.cache_hierarchy.ruby_system.l2_controllers&#45;&#45;board.cache_hierarchy.ruby_system.network.routers4</title>
<path fill="none" stroke="#381526" d="M279.47,-285.51C276.58,-279.96 273.55,-274.13 270.67,-268.59"/>
<polygon fill="#381526" stroke="#381526" points="276.44,-287.28 284.16,-294.54 282.66,-284.05 276.44,-287.28"/>
<polygon fill="#381526" stroke="#381526" points="273.74,-266.92 266.03,-259.66 267.53,-270.14 273.74,-266.92"/>
</g>
<!-- board.cache_hierarchy.ruby_system.directory_controllers -->
<g id="node12" class="node">
<title>board.cache_hierarchy.ruby_system.directory_controllers</title>
<path fill="#e5bcd0" stroke="#000000" d="M70.98,-287.25C70.98,-287.25 184.98,-287.25 184.98,-287.25 190.98,-287.25 196.98,-293.25 196.98,-299.25 196.98,-299.25 196.98,-311.25 196.98,-311.25 196.98,-317.25 190.98,-323.25 184.98,-323.25 184.98,-323.25 70.98,-323.25 70.98,-323.25 64.98,-323.25 58.98,-317.25 58.98,-311.25 58.98,-311.25 58.98,-299.25 58.98,-299.25 58.98,-293.25 64.98,-287.25 70.98,-287.25"/>
<text text-anchor="middle" x="127.98" y="-301.55" font-family="Arial" font-size="14.00" fill="#000000">directory_controllers</text>
</g>
<!-- board.cache_hierarchy.ruby_system.directory_controllers&#45;&#45;board.cache_hierarchy.ruby_system.network.routers5 -->
<g id="edge12" class="edge">
<title>board.cache_hierarchy.ruby_system.directory_controllers&#45;&#45;board.cache_hierarchy.ruby_system.network.routers5</title>
<path fill="none" stroke="#381526" d="M145.16,-278.53C148.14,-273.89 151.25,-269.07 154.23,-264.43"/>
<polygon fill="#381526" stroke="#381526" points="142.09,-276.84 139.62,-287.14 147.98,-280.62 142.09,-276.84"/>
<polygon fill="#381526" stroke="#381526" points="157.29,-266.13 159.76,-255.83 151.41,-262.35 157.29,-266.13"/>
</g>
</g>
</svg>
