<?xml version="1.0" encoding="UTF-8" standalone="no"?>
<!DOCTYPE svg PUBLIC "-//W3C//DTD SVG 1.1//EN"
 "http://www.w3.org/Graphics/SVG/1.1/DTD/svg11.dtd">
<!-- Generated by graphviz version 2.43.0 (0)
 -->
<!-- Title: G Pages: 1 -->
<svg width="443pt" height="391pt"
 viewBox="0.00 0.00 442.71 391.25" xmlns="http://www.w3.org/2000/svg" xmlns:xlink="http://www.w3.org/1999/xlink">
<g id="graph0" class="graph" transform="scale(1 1) rotate(0) translate(4 387.25)">
<title>G</title>
<polygon fill="white" stroke="transparent" points="-4,4 -4,-387.25 438.71,-387.25 438.71,4 -4,4"/>
<!-- board.cache_hierarchy.ruby_system.network.routers00 -->
<g id="node1" class="node">
<title>board.cache_hierarchy.ruby_system.network.routers00</title>
<path fill="#cce6fc" stroke="#000000" d="M120.99,-146.77C120.99,-146.77 150.99,-146.77 150.99,-146.77 156.99,-146.77 162.99,-152.77 162.99,-158.77 162.99,-158.77 162.99,-170.77 162.99,-170.77 162.99,-176.77 156.99,-182.77 150.99,-182.77 150.99,-182.77 120.99,-182.77 120.99,-182.77 114.99,-182.77 108.99,-176.77 108.99,-170.77 108.99,-170.77 108.99,-158.77 108.99,-158.77 108.99,-152.77 114.99,-146.77 120.99,-146.77"/>
<text text-anchor="middle" x="135.99" y="-161.07" font-family="Arial" font-size="14.00" fill="#000000">R 0</text>
</g>
<!-- board.cache_hierarchy.ruby_system.network.routers10 -->
<g id="node11" class="node">
<title>board.cache_hierarchy.ruby_system.network.routers10</title>
<path fill="#cce6fc" stroke="#000000" d="M197.06,-175.42C197.06,-175.42 227.06,-175.42 227.06,-175.42 233.06,-175.42 239.06,-181.42 239.06,-187.42 239.06,-187.42 239.06,-199.42 239.06,-199.42 239.06,-205.42 233.06,-211.42 227.06,-211.42 227.06,-211.42 197.06,-211.42 197.06,-211.42 191.06,-211.42 185.06,-205.42 185.06,-199.42 185.06,-199.42 185.06,-187.42 185.06,-187.42 185.06,-181.42 191.06,-175.42 197.06,-175.42"/>
<text text-anchor="middle" x="212.06" y="-189.72" font-family="Arial" font-size="14.00" fill="#000000">R 10</text>
</g>
<!-- board.cache_hierarchy.ruby_system.network.routers00&#45;&#45;board.cache_hierarchy.ruby_system.network.routers10 -->
<g id="edge1" class="edge">
<title>board.cache_hierarchy.ruby_system.network.routers00&#45;&#45;board.cache_hierarchy.ruby_system.network.routers10</title>
<path fill="none" stroke="#042d50" d="M163.03,-174.95C167.01,-176.46 171.18,-178.02 175.32,-179.58"/>
<polygon fill="#042d50" stroke="#042d50" points="174.27,-182.93 184.86,-183.18 176.73,-176.38 174.27,-182.93"/>
</g>
<!-- board.cache_hierarchy.ruby_system.network.routers01 -->
<g id="node2" class="node">
<title>board.cache_hierarchy.ruby_system.network.routers01</title>
<path fill="#cce6fc" stroke="#000000" d="M281.8,-191.33C281.8,-191.33 311.8,-191.33 311.8,-191.33 317.8,-191.33 323.8,-197.33 323.8,-203.33 323.8,-203.33 323.8,-215.33 323.8,-215.33 323.8,-221.33 317.8,-227.33 311.8,-227.33 311.8,-227.33 281.8,-227.33 281.8,-227.33 275.8,-227.33 269.8,-221.33 269.8,-215.33 269.8,-215.33 269.8,-203.33 269.8,-203.33 269.8,-197.33 275.8,-191.33 281.8,-191.33"/>
<text text-anchor="middle" x="296.8" y="-205.63" font-family="Arial" font-size="14.00" fill="#000000">R 1</text>
</g>
<!-- board.cache_hierarchy.ruby_system.network.routers01&#45;&#45;board.cache_hierarchy.ruby_system.network.routers10 -->
<g id="edge2" class="edge">
<title>board.cache_hierarchy.ruby_system.network.routers01&#45;&#45;board.cache_hierarchy.ruby_system.network.routers10</title>
<path fill="none" stroke="#042d50" d="M269.52,-204.21C263.17,-203.02 256.3,-201.73 249.59,-200.47"/>
<polygon fill="#042d50" stroke="#042d50" points="249.76,-196.94 239.29,-198.53 248.47,-203.82 249.76,-196.94"/>
</g>
<!-- board.cache_hierarchy.ruby_system.network.routers02 -->
<g id="node3" class="node">
<title>board.cache_hierarchy.ruby_system.network.routers02</title>
<path fill="#cce6fc" stroke="#000000" d="M246.87,-109.74C246.87,-109.74 276.87,-109.74 276.87,-109.74 282.87,-109.74 288.87,-115.74 288.87,-121.74 288.87,-121.74 288.87,-133.74 288.87,-133.74 288.87,-139.74 282.87,-145.74 276.87,-145.74 276.87,-145.74 246.87,-145.74 246.87,-145.74 240.87,-145.74 234.87,-139.74 234.87,-133.74 234.87,-133.74 234.87,-121.74 234.87,-121.74 234.87,-115.74 240.87,-109.74 246.87,-109.74"/>
<text text-anchor="middle" x="261.87" y="-124.04" font-family="Arial" font-size="14.00" fill="#000000">R 2</text>
</g>
<!-- board.cache_hierarchy.ruby_system.network.routers02&#45;&#45;board.cache_hierarchy.ruby_system.network.routers10 -->
<g id="edge3" class="edge">
<title>board.cache_hierarchy.ruby_system.network.routers02&#45;&#45;board.cache_hierarchy.ruby_system.network.routers10</title>
<path fill="none" stroke="#042d50" d="M247.99,-146.04C243.03,-152.59 237.33,-160.1 231.96,-167.19"/>
<polygon fill="#042d50" stroke="#042d50" points="229.11,-165.14 225.86,-175.23 234.69,-169.37 229.11,-165.14"/>
</g>
<!-- board.cache_hierarchy.ruby_system.network.routers03 -->
<g id="node4" class="node">
<title>board.cache_hierarchy.ruby_system.network.routers03</title>
<path fill="#cce6fc" stroke="#000000" d="M207.58,-259.23C207.58,-259.23 237.58,-259.23 237.58,-259.23 243.58,-259.23 249.58,-265.23 249.58,-271.23 249.58,-271.23 249.58,-283.23 249.58,-283.23 249.58,-289.23 243.58,-295.23 237.58,-295.23 237.58,-295.23 207.58,-295.23 207.58,-295.23 201.58,-295.23 195.58,-289.23 195.58,-283.23 195.58,-283.23 195.58,-271.23 195.58,-271.23 195.58,-265.23 201.58,-259.23 207.58,-259.23"/>
<text text-anchor="middle" x="222.58" y="-273.53" font-family="Arial" font-size="14.00" fill="#000000">R 3</text>
</g>
<!-- board.cache_hierarchy.ruby_system.network.routers03&#45;&#45;board.cache_hierarchy.ruby_system.network.routers10 -->
<g id="edge4" class="edge">
<title>board.cache_hierarchy.ruby_system.network.routers03&#45;&#45;board.cache_hierarchy.ruby_system.network.routers10</title>
<path fill="none" stroke="#042d50" d="M220.29,-259.05C218.93,-248.18 217.17,-234.13 215.62,-221.82"/>
<polygon fill="#042d50" stroke="#042d50" points="219.06,-221.06 214.34,-211.57 212.11,-221.93 219.06,-221.06"/>
</g>
<!-- board.cache_hierarchy.ruby_system.network.routers04 -->
<g id="node5" class="node">
<title>board.cache_hierarchy.ruby_system.network.routers04</title>
<path fill="#cce6fc" stroke="#000000" d="M264.21,-128.67C264.21,-128.67 294.21,-128.67 294.21,-128.67 300.21,-128.67 306.21,-134.67 306.21,-140.67 306.21,-140.67 306.21,-152.67 306.21,-152.67 306.21,-158.67 300.21,-164.67 294.21,-164.67 294.21,-164.67 264.21,-164.67 264.21,-164.67 258.21,-164.67 252.21,-158.67 252.21,-152.67 252.21,-152.67 252.21,-140.67 252.21,-140.67 252.21,-134.67 258.21,-128.67 264.21,-128.67"/>
<text text-anchor="middle" x="279.21" y="-142.97" font-family="Arial" font-size="14.00" fill="#000000">R 4</text>
</g>
<!-- board.cache_hierarchy.ruby_system.network.routers04&#45;&#45;board.cache_hierarchy.ruby_system.network.routers10 -->
<g id="edge5" class="edge">
<title>board.cache_hierarchy.ruby_system.network.routers04&#45;&#45;board.cache_hierarchy.ruby_system.network.routers10</title>
<path fill="none" stroke="#042d50" d="M253.06,-164.88C250.93,-166.36 248.76,-167.87 246.59,-169.38"/>
<polygon fill="#042d50" stroke="#042d50" points="244.46,-166.6 238.25,-175.19 248.46,-172.34 244.46,-166.6"/>
</g>
<!-- board.cache_hierarchy.ruby_system.network.routers05 -->
<g id="node6" class="node">
<title>board.cache_hierarchy.ruby_system.network.routers05</title>
<path fill="#cce6fc" stroke="#000000" d="M186.13,-87.06C186.13,-87.06 216.13,-87.06 216.13,-87.06 222.13,-87.06 228.13,-93.06 228.13,-99.06 228.13,-99.06 228.13,-111.06 228.13,-111.06 228.13,-117.06 222.13,-123.06 216.13,-123.06 216.13,-123.06 186.13,-123.06 186.13,-123.06 180.13,-123.06 174.13,-117.06 174.13,-111.06 174.13,-111.06 174.13,-99.06 174.13,-99.06 174.13,-93.06 180.13,-87.06 186.13,-87.06"/>
<text text-anchor="middle" x="201.13" y="-101.36" font-family="Arial" font-size="14.00" fill="#000000">R 5</text>
</g>
<!-- board.cache_hierarchy.ruby_system.network.routers05&#45;&#45;board.cache_hierarchy.ruby_system.network.routers10 -->
<g id="edge6" class="edge">
<title>board.cache_hierarchy.ruby_system.network.routers05&#45;&#45;board.cache_hierarchy.ruby_system.network.routers10</title>
<path fill="none" stroke="#042d50" d="M203.39,-123.37C204.87,-135.34 206.84,-151.21 208.52,-164.82"/>
<polygon fill="#042d50" stroke="#042d50" points="205.1,-165.64 209.8,-175.14 212.04,-164.78 205.1,-165.64"/>
</g>
<!-- board.cache_hierarchy.ruby_system.network.routers06 -->
<g id="node7" class="node">
<title>board.cache_hierarchy.ruby_system.network.routers06</title>
<path fill="#cce6fc" stroke="#000000" d="M132.16,-123.6C132.16,-123.6 162.16,-123.6 162.16,-123.6 168.16,-123.6 174.16,-129.6 174.16,-135.6 174.16,-135.6 174.16,-147.6 174.16,-147.6 174.16,-153.6 168.16,-159.6 162.16,-159.6 162.16,-159.6 132.16,-159.6 132.16,-159.6 126.16,-159.6 120.16,-153.6 120.16,-147.6 120.16,-147.6 120.16,-135.6 120.16,-135.6 120.16,-129.6 126.16,-123.6 132.16,-123.6"/>
<text text-anchor="middle" x="147.16" y="-137.9" font-family="Arial" font-size="14.00" fill="#000000">R 6</text>
</g>
<!-- board.cache_hierarchy.ruby_system.network.routers06&#45;&#45;board.cache_hierarchy.ruby_system.network.routers10 -->
<g id="edge7" class="edge">
<title>board.cache_hierarchy.ruby_system.network.routers06&#45;&#45;board.cache_hierarchy.ruby_system.network.routers10</title>
<path fill="none" stroke="#042d50" d="M169.86,-159.72C173.59,-162.7 177.51,-165.84 181.4,-168.94"/>
<polygon fill="#042d50" stroke="#042d50" points="179.26,-171.71 189.26,-175.22 183.63,-166.24 179.26,-171.71"/>
</g>
<!-- board.cache_hierarchy.ruby_system.network.routers07 -->
<g id="node8" class="node">
<title>board.cache_hierarchy.ruby_system.network.routers07</title>
<path fill="#cce6fc" stroke="#000000" d="M155.66,-249.35C155.66,-249.35 185.66,-249.35 185.66,-249.35 191.66,-249.35 197.66,-255.35 197.66,-261.35 197.66,-261.35 197.66,-273.35 197.66,-273.35 197.66,-279.35 191.66,-285.35 185.66,-285.35 185.66,-285.35 155.66,-285.35 155.66,-285.35 149.66,-285.35 143.66,-279.35 143.66,-273.35 143.66,-273.35 143.66,-261.35 143.66,-261.35 143.66,-255.35 149.66,-249.35 155.66,-249.35"/>
<text text-anchor="middle" x="170.66" y="-263.65" font-family="Arial" font-size="14.00" fill="#000000">R 7</text>
</g>
<!-- board.cache_hierarchy.ruby_system.network.routers07&#45;&#45;board.cache_hierarchy.ruby_system.network.routers10 -->
<g id="edge8" class="edge">
<title>board.cache_hierarchy.ruby_system.network.routers07&#45;&#45;board.cache_hierarchy.ruby_system.network.routers10</title>
<path fill="none" stroke="#042d50" d="M180.89,-249.07C185.76,-240.39 191.66,-229.84 197.02,-220.27"/>
<polygon fill="#042d50" stroke="#042d50" points="200.11,-221.92 201.94,-211.49 194,-218.5 200.11,-221.92"/>
</g>
<!-- board.cache_hierarchy.ruby_system.network.routers08 -->
<g id="node9" class="node">
<title>board.cache_hierarchy.ruby_system.network.routers08</title>
<path fill="#cce6fc" stroke="#000000" d="M118.82,-211.66C118.82,-211.66 148.82,-211.66 148.82,-211.66 154.82,-211.66 160.82,-217.66 160.82,-223.66 160.82,-223.66 160.82,-235.66 160.82,-235.66 160.82,-241.66 154.82,-247.66 148.82,-247.66 148.82,-247.66 118.82,-247.66 118.82,-247.66 112.82,-247.66 106.82,-241.66 106.82,-235.66 106.82,-235.66 106.82,-223.66 106.82,-223.66 106.82,-217.66 112.82,-211.66 118.82,-211.66"/>
<text text-anchor="middle" x="133.82" y="-225.96" font-family="Arial" font-size="14.00" fill="#000000">R 8</text>
</g>
<!-- board.cache_hierarchy.ruby_system.network.routers08&#45;&#45;board.cache_hierarchy.ruby_system.network.routers10 -->
<g id="edge9" class="edge">
<title>board.cache_hierarchy.ruby_system.network.routers08&#45;&#45;board.cache_hierarchy.ruby_system.network.routers10</title>
<path fill="none" stroke="#042d50" d="M161.18,-216.98C165.86,-214.82 170.78,-212.54 175.64,-210.29"/>
<polygon fill="#042d50" stroke="#042d50" points="177.24,-213.41 184.84,-206.03 174.3,-207.05 177.24,-213.41"/>
</g>
<!-- board.cache_hierarchy.ruby_system.network.routers09 -->
<g id="node10" class="node">
<title>board.cache_hierarchy.ruby_system.network.routers09</title>
<path fill="#cce6fc" stroke="#000000" d="M255.36,-236.73C255.36,-236.73 285.36,-236.73 285.36,-236.73 291.36,-236.73 297.36,-242.73 297.36,-248.73 297.36,-248.73 297.36,-260.73 297.36,-260.73 297.36,-266.73 291.36,-272.73 285.36,-272.73 285.36,-272.73 255.36,-272.73 255.36,-272.73 249.36,-272.73 243.36,-266.73 243.36,-260.73 243.36,-260.73 243.36,-248.73 243.36,-248.73 243.36,-242.73 249.36,-236.73 255.36,-236.73"/>
<text text-anchor="middle" x="270.36" y="-251.03" font-family="Arial" font-size="14.00" fill="#000000">R 9</text>
</g>
<!-- board.cache_hierarchy.ruby_system.network.routers09&#45;&#45;board.cache_hierarchy.ruby_system.network.routers10 -->
<g id="edge10" class="edge">
<title>board.cache_hierarchy.ruby_system.network.routers09&#45;&#45;board.cache_hierarchy.ruby_system.network.routers10</title>
<path fill="none" stroke="#042d50" d="M253.18,-236.66C247.89,-231.1 241.96,-224.87 236.29,-218.91"/>
<polygon fill="#042d50" stroke="#042d50" points="238.74,-216.4 229.31,-211.57 233.67,-221.23 238.74,-216.4"/>
</g>
<!-- board.cache_hierarchy.ruby_system.l1_controllers0 -->
<g id="node12" class="node">
<title>board.cache_hierarchy.ruby_system.l1_controllers0</title>
<path fill="#e5bcd0" stroke="#000000" d="M37.06,-71.68C37.06,-71.68 117.06,-71.68 117.06,-71.68 123.06,-71.68 129.06,-77.68 129.06,-83.68 129.06,-83.68 129.06,-95.68 129.06,-95.68 129.06,-101.68 123.06,-107.68 117.06,-107.68 117.06,-107.68 37.06,-107.68 37.06,-107.68 31.06,-107.68 25.06,-101.68 25.06,-95.68 25.06,-95.68 25.06,-83.68 25.06,-83.68 25.06,-77.68 31.06,-71.68 37.06,-71.68"/>
<text text-anchor="middle" x="77.06" y="-85.98" font-family="Arial" font-size="14.00" fill="#000000">l1_controllers0</text>
</g>
<!-- board.cache_hierarchy.ruby_system.l1_controllers0&#45;&#45;board.cache_hierarchy.ruby_system.network.routers00 -->
<g id="edge11" class="edge">
<title>board.cache_hierarchy.ruby_system.l1_controllers0&#45;&#45;board.cache_hierarchy.ruby_system.network.routers00</title>
<path fill="none" stroke="#381526" d="M97.51,-115.73C103.28,-123.09 109.57,-131.1 115.36,-138.47"/>
<polygon fill="#381526" stroke="#381526" points="100.26,-113.56 91.33,-107.85 94.75,-117.88 100.26,-113.56"/>
<polygon fill="#381526" stroke="#381526" points="112.93,-141.05 121.86,-146.76 118.44,-136.73 112.93,-141.05"/>
</g>
<!-- board.cache_hierarchy.ruby_system.l1_controllers1 -->
<g id="node13" class="node">
<title>board.cache_hierarchy.ruby_system.l1_controllers1</title>
<path fill="#e5bcd0" stroke="#000000" d="M342.71,-209.31C342.71,-209.31 422.71,-209.31 422.71,-209.31 428.71,-209.31 434.71,-215.31 434.71,-221.31 434.71,-221.31 434.71,-233.31 434.71,-233.31 434.71,-239.31 428.71,-245.31 422.71,-245.31 422.71,-245.31 342.71,-245.31 342.71,-245.31 336.71,-245.31 330.71,-239.31 330.71,-233.31 330.71,-233.31 330.71,-221.31 330.71,-221.31 330.71,-215.31 336.71,-209.31 342.71,-209.31"/>
<text text-anchor="middle" x="382.71" y="-223.61" font-family="Arial" font-size="14.00" fill="#000000">l1_controllers1</text>
</g>
<!-- board.cache_hierarchy.ruby_system.l1_controllers1&#45;&#45;board.cache_hierarchy.ruby_system.network.routers01 -->
<g id="edge12" class="edge">
<title>board.cache_hierarchy.ruby_system.l1_controllers1&#45;&#45;board.cache_hierarchy.ruby_system.network.routers01</title>
<path fill="none" stroke="#381526" d="M324.47,-215.12C324.4,-215.11 324.34,-215.09 324.28,-215.08"/>
<polygon fill="#381526" stroke="#381526" points="319.76,-217.71 330.26,-216.33 321.19,-210.86 319.76,-217.71"/>
<polygon fill="#381526" stroke="#381526" points="334.6,-213.67 324.09,-215.04 333.16,-220.52 334.6,-213.67"/>
</g>
<!-- board.cache_hierarchy.ruby_system.l1_controllers2 -->
<g id="node14" class="node">
<title>board.cache_hierarchy.ruby_system.l1_controllers2</title>
<path fill="#e5bcd0" stroke="#000000" d="M313.1,-81.21C313.1,-81.21 393.1,-81.21 393.1,-81.21 399.1,-81.21 405.1,-87.21 405.1,-93.21 405.1,-93.21 405.1,-105.21 405.1,-105.21 405.1,-111.21 399.1,-117.21 393.1,-117.21 393.1,-117.21 313.1,-117.21 313.1,-117.21 307.1,-117.21 301.1,-111.21 301.1,-105.21 301.1,-105.21 301.1,-93.21 301.1,-93.21 301.1,-87.21 307.1,-81.21 313.1,-81.21"/>
<text text-anchor="middle" x="353.1" y="-95.51" font-family="Arial" font-size="14.00" fill="#000000">l1_controllers2</text>
</g>
<!-- board.cache_hierarchy.ruby_system.l1_controllers2&#45;&#45;board.cache_hierarchy.ruby_system.network.routers02 -->
<g id="edge13" class="edge">
<title>board.cache_hierarchy.ruby_system.l1_controllers2&#45;&#45;board.cache_hierarchy.ruby_system.network.routers02</title>
<path fill="none" stroke="#381526" d="M291.54,-118.46C291.43,-118.5 291.32,-118.53 291.21,-118.56"/>
<polygon fill="#381526" stroke="#381526" points="292.59,-121.8 301.09,-115.47 290.5,-115.12 292.59,-121.8"/>
<polygon fill="#381526" stroke="#381526" points="297.46,-112.94 288.96,-119.27 299.55,-119.62 297.46,-112.94"/>
</g>
<!-- board.cache_hierarchy.ruby_system.l1_controllers3 -->
<g id="node15" class="node">
<title>board.cache_hierarchy.ruby_system.l1_controllers3</title>
<path fill="#e5bcd0" stroke="#000000" d="M194.01,-346.75C194.01,-346.75 274.01,-346.75 274.01,-346.75 280.01,-346.75 286.01,-352.75 286.01,-358.75 286.01,-358.75 286.01,-370.75 286.01,-370.75 286.01,-376.75 280.01,-382.75 274.01,-382.75 274.01,-382.75 194.01,-382.75 194.01,-382.75 188.01,-382.75 182.01,-376.75 182.01,-370.75 182.01,-370.75 182.01,-358.75 182.01,-358.75 182.01,-352.75 188.01,-346.75 194.01,-346.75"/>
<text text-anchor="middle" x="234.01" y="-361.05" font-family="Arial" font-size="14.00" fill="#000000">l1_controllers3</text>
</g>
<!-- board.cache_hierarchy.ruby_system.l1_controllers3&#45;&#45;board.cache_hierarchy.ruby_system.network.routers03 -->
<g id="edge14" class="edge">
<title>board.cache_hierarchy.ruby_system.l1_controllers3&#45;&#45;board.cache_hierarchy.ruby_system.network.routers03</title>
<path fill="none" stroke="#381526" d="M230.31,-336.4C229.01,-326.49 227.56,-315.38 226.27,-305.49"/>
<polygon fill="#381526" stroke="#381526" points="226.88,-337.15 231.64,-346.61 233.82,-336.24 226.88,-337.15"/>
<polygon fill="#381526" stroke="#381526" points="229.71,-304.81 224.94,-295.34 222.77,-305.71 229.71,-304.81"/>
</g>
<!-- board.cache_hierarchy.ruby_system.l1_controllers4 -->
<g id="node16" class="node">
<title>board.cache_hierarchy.ruby_system.l1_controllers4</title>
<path fill="#e5bcd0" stroke="#000000" d="M277.6,-41.5C277.6,-41.5 357.6,-41.5 357.6,-41.5 363.6,-41.5 369.6,-47.5 369.6,-53.5 369.6,-53.5 369.6,-65.5 369.6,-65.5 369.6,-71.5 363.6,-77.5 357.6,-77.5 357.6,-77.5 277.6,-77.5 277.6,-77.5 271.6,-77.5 265.6,-71.5 265.6,-65.5 265.6,-65.5 265.6,-53.5 265.6,-53.5 265.6,-47.5 271.6,-41.5 277.6,-41.5"/>
<text text-anchor="middle" x="317.6" y="-55.8" font-family="Arial" font-size="14.00" fill="#000000">l1_controllers4</text>
</g>
<!-- board.cache_hierarchy.ruby_system.l1_controllers4&#45;&#45;board.cache_hierarchy.ruby_system.network.routers04 -->
<g id="edge15" class="edge">
<title>board.cache_hierarchy.ruby_system.l1_controllers4&#45;&#45;board.cache_hierarchy.ruby_system.network.routers04</title>
<path fill="none" stroke="#381526" d="M305.51,-86.94C300.97,-97.25 295.82,-108.97 291.28,-119.27"/>
<polygon fill="#381526" stroke="#381526" points="308.82,-88.12 309.64,-77.56 302.41,-85.3 308.82,-88.12"/>
<polygon fill="#381526" stroke="#381526" points="287.98,-118.07 287.16,-128.63 294.39,-120.89 287.98,-118.07"/>
</g>
<!-- board.cache_hierarchy.ruby_system.l1_controllers5 -->
<g id="node17" class="node">
<title>board.cache_hierarchy.ruby_system.l1_controllers5</title>
<path fill="#e5bcd0" stroke="#000000" d="M151.34,-0.5C151.34,-0.5 231.34,-0.5 231.34,-0.5 237.34,-0.5 243.34,-6.5 243.34,-12.5 243.34,-12.5 243.34,-24.5 243.34,-24.5 243.34,-30.5 237.34,-36.5 231.34,-36.5 231.34,-36.5 151.34,-36.5 151.34,-36.5 145.34,-36.5 139.34,-30.5 139.34,-24.5 139.34,-24.5 139.34,-12.5 139.34,-12.5 139.34,-6.5 145.34,-0.5 151.34,-0.5"/>
<text text-anchor="middle" x="191.34" y="-14.8" font-family="Arial" font-size="14.00" fill="#000000">l1_controllers5</text>
</g>
<!-- board.cache_hierarchy.ruby_system.l1_controllers5&#45;&#45;board.cache_hierarchy.ruby_system.network.routers05 -->
<g id="edge16" class="edge">
<title>board.cache_hierarchy.ruby_system.l1_controllers5&#45;&#45;board.cache_hierarchy.ruby_system.network.routers05</title>
<path fill="none" stroke="#381526" d="M194.55,-46.89C195.64,-56.49 196.85,-67.21 197.93,-76.8"/>
<polygon fill="#381526" stroke="#381526" points="198.02,-46.4 193.42,-36.86 191.06,-47.19 198.02,-46.4"/>
<polygon fill="#381526" stroke="#381526" points="194.49,-77.48 199.09,-87.03 201.44,-76.7 194.49,-77.48"/>
</g>
<!-- board.cache_hierarchy.ruby_system.l1_controllers6 -->
<g id="node18" class="node">
<title>board.cache_hierarchy.ruby_system.l1_controllers6</title>
<path fill="#e5bcd0" stroke="#000000" d="M12,-118.6C12,-118.6 92,-118.6 92,-118.6 98,-118.6 104,-124.6 104,-130.6 104,-130.6 104,-142.6 104,-142.6 104,-148.6 98,-154.6 92,-154.6 92,-154.6 12,-154.6 12,-154.6 6,-154.6 0,-148.6 0,-142.6 0,-142.6 0,-130.6 0,-130.6 0,-124.6 6,-118.6 12,-118.6"/>
<text text-anchor="middle" x="52" y="-132.9" font-family="Arial" font-size="14.00" fill="#000000">l1_controllers6</text>
</g>
<!-- board.cache_hierarchy.ruby_system.l1_controllers6&#45;&#45;board.cache_hierarchy.ruby_system.network.routers06 -->
<g id="edge17" class="edge">
<title>board.cache_hierarchy.ruby_system.l1_controllers6&#45;&#45;board.cache_hierarchy.ruby_system.network.routers06</title>
<path fill="none" stroke="#381526" d="M114.03,-139.85C114.16,-139.86 114.29,-139.87 114.42,-139.88"/>
<polygon fill="#381526" stroke="#381526" points="114.2,-136.36 104.03,-139.33 113.84,-143.35 114.2,-136.36"/>
<polygon fill="#381526" stroke="#381526" points="109.97,-143.15 120.14,-140.18 110.34,-136.16 109.97,-143.15"/>
</g>
<!-- board.cache_hierarchy.ruby_system.l1_controllers7 -->
<g id="node19" class="node">
<title>board.cache_hierarchy.ruby_system.l1_controllers7</title>
<path fill="#e5bcd0" stroke="#000000" d="M88.99,-327.1C88.99,-327.1 168.99,-327.1 168.99,-327.1 174.99,-327.1 180.99,-333.1 180.99,-339.1 180.99,-339.1 180.99,-351.1 180.99,-351.1 180.99,-357.1 174.99,-363.1 168.99,-363.1 168.99,-363.1 88.99,-363.1 88.99,-363.1 82.99,-363.1 76.99,-357.1 76.99,-351.1 76.99,-351.1 76.99,-339.1 76.99,-339.1 76.99,-333.1 82.99,-327.1 88.99,-327.1"/>
<text text-anchor="middle" x="128.99" y="-341.4" font-family="Arial" font-size="14.00" fill="#000000">l1_controllers7</text>
</g>
<!-- board.cache_hierarchy.ruby_system.l1_controllers7&#45;&#45;board.cache_hierarchy.ruby_system.network.routers07 -->
<g id="edge18" class="edge">
<title>board.cache_hierarchy.ruby_system.l1_controllers7&#45;&#45;board.cache_hierarchy.ruby_system.network.routers07</title>
<path fill="none" stroke="#381526" d="M143.48,-318.06C147.58,-310.42 152.03,-302.1 156.13,-294.45"/>
<polygon fill="#381526" stroke="#381526" points="140.29,-316.6 138.65,-327.07 146.46,-319.91 140.29,-316.6"/>
<polygon fill="#381526" stroke="#381526" points="159.26,-296.02 160.9,-285.55 153.09,-292.71 159.26,-296.02"/>
</g>
<!-- board.cache_hierarchy.ruby_system.l2_controllers -->
<g id="node20" class="node">
<title>board.cache_hierarchy.ruby_system.l2_controllers</title>
<path fill="#e5bcd0" stroke="#000000" d="M18.47,-250.08C18.47,-250.08 91.47,-250.08 91.47,-250.08 97.47,-250.08 103.47,-256.08 103.47,-262.08 103.47,-262.08 103.47,-274.08 103.47,-274.08 103.47,-280.08 97.47,-286.08 91.47,-286.08 91.47,-286.08 18.47,-286.08 18.47,-286.08 12.47,-286.08 6.47,-280.08 6.47,-274.08 6.47,-274.08 6.47,-262.08 6.47,-262.08 6.47,-256.08 12.47,-250.08 18.47,-250.08"/>
<text text-anchor="middle" x="54.97" y="-264.38" font-family="Arial" font-size="14.00" fill="#000000">l2_controllers</text>
</g>
<!-- board.cache_hierarchy.ruby_system.l2_controllers&#45;&#45;board.cache_hierarchy.ruby_system.network.routers08 -->
<g id="edge19" class="edge">
<title>board.cache_hierarchy.ruby_system.l2_controllers&#45;&#45;board.cache_hierarchy.ruby_system.network.routers08</title>
<path fill="none" stroke="#381526" d="M101.35,-245.48C101.47,-245.42 101.58,-245.36 101.7,-245.31"/>
<polygon fill="#381526" stroke="#381526" points="99.54,-242.46 92.08,-249.99 102.61,-248.76 99.54,-242.46"/>
<polygon fill="#381526" stroke="#381526" points="99.32,-250.36 106.78,-242.83 96.25,-244.07 99.32,-250.36"/>
</g>
<!-- board.cache_hierarchy.ruby_system.directory_controllers -->
<g id="node21" class="node">
<title>board.cache_hierarchy.ruby_system.directory_controllers</title>
<path fill="#e5bcd0" stroke="#000000" d="M273.67,-301.22C273.67,-301.22 387.67,-301.22 387.67,-301.22 393.67,-301.22 399.67,-307.22 399.67,-313.22 399.67,-313.22 399.67,-325.22 399.67,-325.22 399.67,-331.22 393.67,-337.22 387.67,-337.22 387.67,-337.22 273.67,-337.22 273.67,-337.22 267.67,-337.22 261.67,-331.22 261.67,-325.22 261.67,-325.22 261.67,-313.22 261.67,-313.22 261.67,-307.22 267.67,-301.22 273.67,-301.22"/>
<text text-anchor="middle" x="330.67" y="-315.52" font-family="Arial" font-size="14.00" fill="#000000">directory_controllers</text>
</g>
<!-- board.cache_hierarchy.ruby_system.directory_controllers&#45;&#45;board.cache_hierarchy.ruby_system.network.routers09 -->
<g id="edge20" class="edge">
<title>board.cache_hierarchy.ruby_system.directory_controllers&#45;&#45;board.cache_hierarchy.ruby_system.network.routers09</title>
<path fill="none" stroke="#381526" d="M306.3,-293.17C302.32,-288.91 298.2,-284.5 294.23,-280.26"/>
<polygon fill="#381526" stroke="#381526" points="304.16,-296 313.55,-300.91 309.27,-291.22 304.16,-296"/>
<polygon fill="#381526" stroke="#381526" points="296.7,-277.77 287.31,-272.86 291.59,-282.55 296.7,-277.77"/>
</g>
</g>
</svg>
