<?xml version="1.0" encoding="UTF-8" standalone="no"?>
<!DOCTYPE svg PUBLIC "-//W3C//DTD SVG 1.1//EN"
 "http://www.w3.org/Graphics/SVG/1.1/DTD/svg11.dtd">
<!-- Generated by graphviz version 2.43.0 (0)
 -->
<!-- Title: G Pages: 1 -->
<svg width="294pt" height="371pt"
 viewBox="0.00 0.00 293.98 370.74" xmlns="http://www.w3.org/2000/svg" xmlns:xlink="http://www.w3.org/1999/xlink">
<g id="graph0" class="graph" transform="scale(1 1) rotate(0) translate(4 366.74)">
<title>G</title>
<polygon fill="white" stroke="transparent" points="-4,4 -4,-366.74 289.98,-366.74 289.98,4 -4,4"/>
<!-- system.ruby.network.ext_links0.int_node -->
<g id="node1" class="node">
<title>system.ruby.network.ext_links0.int_node</title>
<path fill="#cce6fc" stroke="#000000" d="M113.25,-175.19C113.25,-175.19 143.25,-175.19 143.25,-175.19 149.25,-175.19 155.25,-181.19 155.25,-187.19 155.25,-187.19 155.25,-199.19 155.25,-199.19 155.25,-205.19 149.25,-211.19 143.25,-211.19 143.25,-211.19 113.25,-211.19 113.25,-211.19 107.25,-211.19 101.25,-205.19 101.25,-199.19 101.25,-199.19 101.25,-187.19 101.25,-187.19 101.25,-181.19 107.25,-175.19 113.25,-175.19"/>
<text text-anchor="middle" x="128.25" y="-189.49" font-family="Arial" font-size="14.00" fill="#000000">R 0</text>
</g>
<!-- system.ruby.network.ext_links1.int_node -->
<g id="node2" class="node">
<title>system.ruby.network.ext_links1.int_node</title>
<path fill="#cce6fc" stroke="#000000" d="M150.07,-252.74C150.07,-252.74 180.07,-252.74 180.07,-252.74 186.07,-252.74 192.07,-258.74 192.07,-264.74 192.07,-264.74 192.07,-276.74 192.07,-276.74 192.07,-282.74 186.07,-288.74 180.07,-288.74 180.07,-288.74 150.07,-288.74 150.07,-288.74 144.07,-288.74 138.07,-282.74 138.07,-276.74 138.07,-276.74 138.07,-264.74 138.07,-264.74 138.07,-258.74 144.07,-252.74 150.07,-252.74"/>
<text text-anchor="middle" x="165.07" y="-267.04" font-family="Arial" font-size="14.00" fill="#000000">R 1</text>
</g>
<!-- system.ruby.network.ext_links0.int_node&#45;&#45;system.ruby.network.ext_links1.int_node -->
<g id="edge1" class="edge">
<title>system.ruby.network.ext_links0.int_node&#45;&#45;system.ruby.network.ext_links1.int_node</title>
<path fill="none" stroke="#042d50" d="M136.97,-211.57C141.47,-221.04 147.04,-232.77 152.03,-243.28"/>
<polygon fill="#042d50" stroke="#042d50" points="148.95,-244.96 156.4,-252.5 155.28,-241.96 148.95,-244.96"/>
</g>
<!-- system.ruby.network.ext_links3.int_node -->
<g id="node3" class="node">
<title>system.ruby.network.ext_links3.int_node</title>
<path fill="#cce6fc" stroke="#000000" d="M127.31,-83.06C127.31,-83.06 157.31,-83.06 157.31,-83.06 163.31,-83.06 169.31,-89.06 169.31,-95.06 169.31,-95.06 169.31,-107.06 169.31,-107.06 169.31,-113.06 163.31,-119.06 157.31,-119.06 157.31,-119.06 127.31,-119.06 127.31,-119.06 121.31,-119.06 115.31,-113.06 115.31,-107.06 115.31,-107.06 115.31,-95.06 115.31,-95.06 115.31,-89.06 121.31,-83.06 127.31,-83.06"/>
<text text-anchor="middle" x="142.31" y="-97.36" font-family="Arial" font-size="14.00" fill="#000000">R 2</text>
</g>
<!-- system.ruby.network.ext_links0.int_node&#45;&#45;system.ruby.network.ext_links3.int_node -->
<g id="edge2" class="edge">
<title>system.ruby.network.ext_links0.int_node&#45;&#45;system.ruby.network.ext_links3.int_node</title>
<path fill="none" stroke="#042d50" d="M131.02,-174.99C133.01,-161.99 135.71,-144.26 137.98,-129.42"/>
<polygon fill="#042d50" stroke="#042d50" points="141.49,-129.64 139.53,-119.23 134.57,-128.59 141.49,-129.64"/>
</g>
<!-- system.ruby.dir_cntrl0 -->
<g id="node4" class="node">
<title>system.ruby.dir_cntrl0</title>
<path fill="#e5bcd0" stroke="#000000" d="M12,-209.97C12,-209.97 89,-209.97 89,-209.97 95,-209.97 101,-215.97 101,-221.97 101,-221.97 101,-233.97 101,-233.97 101,-239.97 95,-245.97 89,-245.97 89,-245.97 12,-245.97 12,-245.97 6,-245.97 0,-239.97 0,-233.97 0,-233.97 0,-221.97 0,-221.97 0,-215.97 6,-209.97 12,-209.97"/>
<text text-anchor="middle" x="50.5" y="-224.27" font-family="Arial" font-size="14.00" fill="#000000">ruby.dir_cntrl0</text>
</g>
<!-- system.ruby.dir_cntrl0&#45;&#45;system.ruby.network.ext_links0.int_node -->
<g id="edge3" class="edge">
<title>system.ruby.dir_cntrl0&#45;&#45;system.ruby.network.ext_links0.int_node</title>
<path fill="none" stroke="#381526" d="M100.57,-205.57C100.67,-205.53 100.77,-205.48 100.87,-205.44"/>
<polygon fill="#381526" stroke="#381526" points="98.89,-202.49 91.19,-209.76 101.75,-208.88 98.89,-202.49"/>
<polygon fill="#381526" stroke="#381526" points="93.48,-212.58 101.18,-205.3 90.62,-206.19 93.48,-212.58"/>
</g>
<!-- system.ruby.cp_cntrl0 -->
<g id="node5" class="node">
<title>system.ruby.cp_cntrl0</title>
<path fill="#e5bcd0" stroke="#000000" d="M196.98,-293.64C196.98,-293.64 273.98,-293.64 273.98,-293.64 279.98,-293.64 285.98,-299.64 285.98,-305.64 285.98,-305.64 285.98,-317.64 285.98,-317.64 285.98,-323.64 279.98,-329.64 273.98,-329.64 273.98,-329.64 196.98,-329.64 196.98,-329.64 190.98,-329.64 184.98,-323.64 184.98,-317.64 184.98,-317.64 184.98,-305.64 184.98,-305.64 184.98,-299.64 190.98,-293.64 196.98,-293.64"/>
<text text-anchor="middle" x="235.48" y="-307.94" font-family="Arial" font-size="14.00" fill="#000000">ruby.cp_cntrl0</text>
</g>
<!-- system.ruby.cp_cntrl0&#45;&#45;system.ruby.network.ext_links1.int_node -->
<g id="edge4" class="edge">
<title>system.ruby.cp_cntrl0&#45;&#45;system.ruby.network.ext_links1.int_node</title>
<path fill="none" stroke="#381526" d="M195.4,-288.37C195.28,-288.29 195.16,-288.22 195.03,-288.15"/>
<polygon fill="#381526" stroke="#381526" points="193.98,-291.59 204.39,-293.58 197.5,-285.54 193.98,-291.59"/>
<polygon fill="#381526" stroke="#381526" points="202.85,-288.64 192.45,-286.65 199.33,-294.7 202.85,-288.64"/>
</g>
<!-- system.ruby.cp_cntrl1 -->
<g id="node6" class="node">
<title>system.ruby.cp_cntrl1</title>
<path fill="#e5bcd0" stroke="#000000" d="M92.69,-326.24C92.69,-326.24 169.69,-326.24 169.69,-326.24 175.69,-326.24 181.69,-332.24 181.69,-338.24 181.69,-338.24 181.69,-350.24 181.69,-350.24 181.69,-356.24 175.69,-362.24 169.69,-362.24 169.69,-362.24 92.69,-362.24 92.69,-362.24 86.69,-362.24 80.69,-356.24 80.69,-350.24 80.69,-350.24 80.69,-338.24 80.69,-338.24 80.69,-332.24 86.69,-326.24 92.69,-326.24"/>
<text text-anchor="middle" x="131.19" y="-340.54" font-family="Arial" font-size="14.00" fill="#000000">ruby.cp_cntrl1</text>
</g>
<!-- system.ruby.cp_cntrl1&#45;&#45;system.ruby.network.ext_links1.int_node -->
<g id="edge5" class="edge">
<title>system.ruby.cp_cntrl1&#45;&#45;system.ruby.network.ext_links1.int_node</title>
<path fill="none" stroke="#381526" d="M143.84,-316.8C146.65,-310.7 149.63,-304.23 152.44,-298.13"/>
<polygon fill="#381526" stroke="#381526" points="140.57,-315.53 139.57,-326.08 146.93,-318.46 140.57,-315.53"/>
<polygon fill="#381526" stroke="#381526" points="155.67,-299.5 156.67,-288.96 149.31,-296.57 155.67,-299.5"/>
</g>
<!-- system.ruby.tcp_cntrl0 -->
<g id="node7" class="node">
<title>system.ruby.tcp_cntrl0</title>
<path fill="#e5bcd0" stroke="#000000" d="M60.29,-10.1C60.29,-10.1 140.29,-10.1 140.29,-10.1 146.29,-10.1 152.29,-16.1 152.29,-22.1 152.29,-22.1 152.29,-34.1 152.29,-34.1 152.29,-40.1 146.29,-46.1 140.29,-46.1 140.29,-46.1 60.29,-46.1 60.29,-46.1 54.29,-46.1 48.29,-40.1 48.29,-34.1 48.29,-34.1 48.29,-22.1 48.29,-22.1 48.29,-16.1 54.29,-10.1 60.29,-10.1"/>
<text text-anchor="middle" x="100.29" y="-24.4" font-family="Arial" font-size="14.00" fill="#000000">ruby.tcp_cntrl0</text>
</g>
<!-- system.ruby.tcp_cntrl0&#45;&#45;system.ruby.network.ext_links3.int_node -->
<g id="edge6" class="edge">
<title>system.ruby.tcp_cntrl0&#45;&#45;system.ruby.network.ext_links3.int_node</title>
<path fill="none" stroke="#381526" d="M115.81,-55.05C119.41,-61.31 123.24,-67.96 126.84,-74.21"/>
<polygon fill="#381526" stroke="#381526" points="118.7,-53.06 110.67,-46.14 112.63,-56.55 118.7,-53.06"/>
<polygon fill="#381526" stroke="#381526" points="123.87,-76.06 131.89,-82.98 129.94,-72.57 123.87,-76.06"/>
</g>
<!-- system.ruby.tcp_cntrl1 -->
<g id="node8" class="node">
<title>system.ruby.tcp_cntrl1</title>
<path fill="#e5bcd0" stroke="#000000" d="M166.47,-26.57C166.47,-26.57 246.47,-26.57 246.47,-26.57 252.47,-26.57 258.47,-32.57 258.47,-38.57 258.47,-38.57 258.47,-50.57 258.47,-50.57 258.47,-56.57 252.47,-62.57 246.47,-62.57 246.47,-62.57 166.47,-62.57 166.47,-62.57 160.47,-62.57 154.47,-56.57 154.47,-50.57 154.47,-50.57 154.47,-38.57 154.47,-38.57 154.47,-32.57 160.47,-26.57 166.47,-26.57"/>
<text text-anchor="middle" x="206.47" y="-40.87" font-family="Arial" font-size="14.00" fill="#000000">ruby.tcp_cntrl1</text>
</g>
<!-- system.ruby.tcp_cntrl1&#45;&#45;system.ruby.network.ext_links3.int_node -->
<g id="edge7" class="edge">
<title>system.ruby.tcp_cntrl1&#45;&#45;system.ruby.network.ext_links3.int_node</title>
<path fill="none" stroke="#381526" d="M178.01,-69.63C175.63,-71.72 173.22,-73.84 170.84,-75.94"/>
<polygon fill="#381526" stroke="#381526" points="180.62,-71.99 185.82,-62.75 176,-66.74 180.62,-71.99"/>
<polygon fill="#381526" stroke="#381526" points="168.12,-73.68 162.92,-82.91 172.74,-78.93 168.12,-73.68"/>
</g>
<!-- system.ruby.sqc_cntrl0 -->
<g id="node9" class="node">
<title>system.ruby.sqc_cntrl0</title>
<path fill="#e5bcd0" stroke="#000000" d="M20.59,-50.89C20.59,-50.89 103.59,-50.89 103.59,-50.89 109.59,-50.89 115.59,-56.89 115.59,-62.89 115.59,-62.89 115.59,-74.89 115.59,-74.89 115.59,-80.89 109.59,-86.89 103.59,-86.89 103.59,-86.89 20.59,-86.89 20.59,-86.89 14.59,-86.89 8.59,-80.89 8.59,-74.89 8.59,-74.89 8.59,-62.89 8.59,-62.89 8.59,-56.89 14.59,-50.89 20.59,-50.89"/>
<text text-anchor="middle" x="62.09" y="-65.19" font-family="Arial" font-size="14.00" fill="#000000">ruby.sqc_cntrl0</text>
</g>
<!-- system.ruby.sqc_cntrl0&#45;&#45;system.ruby.network.ext_links3.int_node -->
<g id="edge8" class="edge">
<title>system.ruby.sqc_cntrl0&#45;&#45;system.ruby.network.ext_links3.int_node</title>
<path fill="none" stroke="#381526" d="M114.44,-89.89C114.52,-89.92 114.59,-89.95 114.67,-89.98"/>
<polygon fill="#381526" stroke="#381526" points="117.94,-87.52 107.35,-87.04 115.33,-94.02 117.94,-87.52"/>
<polygon fill="#381526" stroke="#381526" points="104.32,-89.59 114.9,-90.07 106.93,-83.1 104.32,-89.59"/>
</g>
<!-- system.ruby.scalar_cntrl0 -->
<g id="node10" class="node">
<title>system.ruby.scalar_cntrl0</title>
<path fill="#e5bcd0" stroke="#000000" d="M107.48,-0.5C107.48,-0.5 205.48,-0.5 205.48,-0.5 211.48,-0.5 217.48,-6.5 217.48,-12.5 217.48,-12.5 217.48,-24.5 217.48,-24.5 217.48,-30.5 211.48,-36.5 205.48,-36.5 205.48,-36.5 107.48,-36.5 107.48,-36.5 101.48,-36.5 95.48,-30.5 95.48,-24.5 95.48,-24.5 95.48,-12.5 95.48,-12.5 95.48,-6.5 101.48,-0.5 107.48,-0.5"/>
<text text-anchor="middle" x="156.48" y="-14.8" font-family="Arial" font-size="14.00" fill="#000000">ruby.scalar_cntrl0</text>
</g>
<!-- system.ruby.scalar_cntrl0&#45;&#45;system.ruby.network.ext_links3.int_node -->
<g id="edge9" class="edge">
<title>system.ruby.scalar_cntrl0&#45;&#45;system.ruby.network.ext_links3.int_node</title>
<path fill="none" stroke="#381526" d="M151.63,-46.77C150.19,-55.15 148.61,-64.33 147.17,-72.71"/>
<polygon fill="#381526" stroke="#381526" points="155.09,-47.27 153.33,-36.82 148.19,-46.09 155.09,-47.27"/>
<polygon fill="#381526" stroke="#381526" points="143.69,-72.34 145.44,-82.79 150.58,-73.53 143.69,-72.34"/>
</g>
<!-- system.ruby.tcc_cntrl0 -->
<g id="node11" class="node">
<title>system.ruby.tcc_cntrl0</title>
<path fill="#e5bcd0" stroke="#000000" d="M165.04,-123.78C165.04,-123.78 245.04,-123.78 245.04,-123.78 251.04,-123.78 257.04,-129.78 257.04,-135.78 257.04,-135.78 257.04,-147.78 257.04,-147.78 257.04,-153.78 251.04,-159.78 245.04,-159.78 245.04,-159.78 165.04,-159.78 165.04,-159.78 159.04,-159.78 153.04,-153.78 153.04,-147.78 153.04,-147.78 153.04,-135.78 153.04,-135.78 153.04,-129.78 159.04,-123.78 165.04,-123.78"/>
<text text-anchor="middle" x="205.04" y="-138.08" font-family="Arial" font-size="14.00" fill="#000000">ruby.tcc_cntrl0</text>
</g>
<!-- system.ruby.tcc_cntrl0&#45;&#45;system.ruby.network.ext_links3.int_node -->
<g id="edge10" class="edge">
<title>system.ruby.tcc_cntrl0&#45;&#45;system.ruby.network.ext_links3.int_node</title>
<path fill="none" stroke="#381526" d="M169.98,-119.02C169.9,-118.97 169.83,-118.92 169.75,-118.87"/>
<polygon fill="#381526" stroke="#381526" points="166.68,-121.06 176.98,-123.56 170.49,-115.18 166.68,-121.06"/>
<polygon fill="#381526" stroke="#381526" points="179.81,-121.23 169.52,-118.72 176,-127.1 179.81,-121.23"/>
</g>
<!-- system.dma_cntrl0 -->
<g id="node12" class="node">
<title>system.dma_cntrl0</title>
<path fill="#e5bcd0" stroke="#000000" d="M36.26,-103.64C36.26,-103.64 96.26,-103.64 96.26,-103.64 102.26,-103.64 108.26,-109.64 108.26,-115.64 108.26,-115.64 108.26,-127.64 108.26,-127.64 108.26,-133.64 102.26,-139.64 96.26,-139.64 96.26,-139.64 36.26,-139.64 36.26,-139.64 30.26,-139.64 24.26,-133.64 24.26,-127.64 24.26,-127.64 24.26,-115.64 24.26,-115.64 24.26,-109.64 30.26,-103.64 36.26,-103.64"/>
<text text-anchor="middle" x="66.26" y="-117.94" font-family="Arial" font-size="14.00" fill="#000000">dma_cntrl0</text>
</g>
<!-- system.dma_cntrl0&#45;&#45;system.ruby.network.ext_links3.int_node -->
<g id="edge11" class="edge">
<title>system.dma_cntrl0&#45;&#45;system.ruby.network.ext_links3.int_node</title>
<path fill="none" stroke="#381526" d="M114.77,-108.51C114.84,-108.49 114.91,-108.48 114.99,-108.46"/>
<polygon fill="#381526" stroke="#381526" points="117.03,-104.28 108.29,-110.27 118.85,-111.04 117.03,-104.28"/>
<polygon fill="#381526" stroke="#381526" points="106.46,-114.39 115.2,-108.4 104.63,-107.63 106.46,-114.39"/>
</g>
<!-- system.dma_cntrl1 -->
<g id="node13" class="node">
<title>system.dma_cntrl1</title>
<path fill="#e5bcd0" stroke="#000000" d="M199.89,-76.58C199.89,-76.58 259.89,-76.58 259.89,-76.58 265.89,-76.58 271.89,-82.58 271.89,-88.58 271.89,-88.58 271.89,-100.58 271.89,-100.58 271.89,-106.58 265.89,-112.58 259.89,-112.58 259.89,-112.58 199.89,-112.58 199.89,-112.58 193.89,-112.58 187.89,-106.58 187.89,-100.58 187.89,-100.58 187.89,-88.58 187.89,-88.58 187.89,-82.58 193.89,-76.58 199.89,-76.58"/>
<text text-anchor="middle" x="229.89" y="-90.88" font-family="Arial" font-size="14.00" fill="#000000">dma_cntrl1</text>
</g>
<!-- system.dma_cntrl1&#45;&#45;system.ruby.network.ext_links3.int_node -->
<g id="edge12" class="edge">
<title>system.dma_cntrl1&#45;&#45;system.ruby.network.ext_links3.int_node</title>
<path fill="none" stroke="#381526" d="M177.63,-98.45C177.55,-98.46 177.46,-98.46 177.38,-98.47"/>
<polygon fill="#381526" stroke="#381526" points="177.92,-101.94 187.64,-97.71 177.41,-94.96 177.92,-101.94"/>
<polygon fill="#381526" stroke="#381526" points="179.34,-94.81 169.63,-99.04 179.86,-101.8 179.34,-94.81"/>
</g>
</g>
</svg>
