<?xml version="1.0" encoding="UTF-8" standalone="no"?>
<!DOCTYPE svg PUBLIC "-//W3C//DTD SVG 1.1//EN"
 "http://www.w3.org/Graphics/SVG/1.1/DTD/svg11.dtd">
<!-- Generated by graphviz version 2.43.0 (0)
 -->
<!-- Title: G Pages: 1 -->
<svg width="799pt" height="727pt"
 viewBox="0.00 0.00 799.35 727.20" xmlns="http://www.w3.org/2000/svg" xmlns:xlink="http://www.w3.org/1999/xlink">
<g id="graph0" class="graph" transform="scale(1 1) rotate(0) translate(4 723.2)">
<title>G</title>
<polygon fill="white" stroke="transparent" points="-4,4 -4,-723.2 795.35,-723.2 795.35,4 -4,4"/>
<!-- board.cache_hierarchy.ruby_system.network.routers00 -->
<g id="node1" class="node">
<title>board.cache_hierarchy.ruby_system.network.routers00</title>
<path fill="#cce6fc" stroke="#000000" d="M205.85,-525.96C205.85,-525.96 235.85,-525.96 235.85,-525.96 241.85,-525.96 247.85,-531.96 247.85,-537.96 247.85,-537.96 247.85,-549.96 247.85,-549.96 247.85,-555.96 241.85,-561.96 235.85,-561.96 235.85,-561.96 205.85,-561.96 205.85,-561.96 199.85,-561.96 193.85,-555.96 193.85,-549.96 193.85,-549.96 193.85,-537.96 193.85,-537.96 193.85,-531.96 199.85,-525.96 205.85,-525.96"/>
<text text-anchor="middle" x="220.85" y="-540.26" font-family="Arial" font-size="14.00" fill="#000000">R 0</text>
</g>
<!-- board.cache_hierarchy.ruby_system.network.routers01 -->
<g id="node2" class="node">
<title>board.cache_hierarchy.ruby_system.network.routers01</title>
<path fill="#cce6fc" stroke="#000000" d="M152.82,-455.18C152.82,-455.18 182.82,-455.18 182.82,-455.18 188.82,-455.18 194.82,-461.18 194.82,-467.18 194.82,-467.18 194.82,-479.18 194.82,-479.18 194.82,-485.18 188.82,-491.18 182.82,-491.18 182.82,-491.18 152.82,-491.18 152.82,-491.18 146.82,-491.18 140.82,-485.18 140.82,-479.18 140.82,-479.18 140.82,-467.18 140.82,-467.18 140.82,-461.18 146.82,-455.18 152.82,-455.18"/>
<text text-anchor="middle" x="167.82" y="-469.48" font-family="Arial" font-size="14.00" fill="#000000">R 1</text>
</g>
<!-- board.cache_hierarchy.ruby_system.network.routers00&#45;&#45;board.cache_hierarchy.ruby_system.network.routers01 -->
<g id="edge1" class="edge">
<title>board.cache_hierarchy.ruby_system.network.routers00&#45;&#45;board.cache_hierarchy.ruby_system.network.routers01</title>
<path fill="none" stroke="#042d50" d="M207.19,-525.73C201.24,-517.78 194.14,-508.31 187.63,-499.62"/>
<polygon fill="#042d50" stroke="#042d50" points="190.41,-497.49 181.61,-491.59 184.81,-501.69 190.41,-497.49"/>
</g>
<!-- board.cache_hierarchy.ruby_system.network.routers02 -->
<g id="node3" class="node">
<title>board.cache_hierarchy.ruby_system.network.routers02</title>
<path fill="#cce6fc" stroke="#000000" d="M125.34,-370.67C125.34,-370.67 155.34,-370.67 155.34,-370.67 161.34,-370.67 167.34,-376.67 167.34,-382.67 167.34,-382.67 167.34,-394.67 167.34,-394.67 167.34,-400.67 161.34,-406.67 155.34,-406.67 155.34,-406.67 125.34,-406.67 125.34,-406.67 119.34,-406.67 113.34,-400.67 113.34,-394.67 113.34,-394.67 113.34,-382.67 113.34,-382.67 113.34,-376.67 119.34,-370.67 125.34,-370.67"/>
<text text-anchor="middle" x="140.34" y="-384.97" font-family="Arial" font-size="14.00" fill="#000000">R 2</text>
</g>
<!-- board.cache_hierarchy.ruby_system.network.routers01&#45;&#45;board.cache_hierarchy.ruby_system.network.routers02 -->
<g id="edge2" class="edge">
<title>board.cache_hierarchy.ruby_system.network.routers01&#45;&#45;board.cache_hierarchy.ruby_system.network.routers02</title>
<path fill="none" stroke="#042d50" d="M161.86,-454.84C158.19,-443.58 153.43,-428.94 149.32,-416.29"/>
<polygon fill="#042d50" stroke="#042d50" points="152.62,-415.11 146.19,-406.68 145.96,-417.28 152.62,-415.11"/>
</g>
<!-- board.cache_hierarchy.ruby_system.network.routers03 -->
<g id="node4" class="node">
<title>board.cache_hierarchy.ruby_system.network.routers03</title>
<path fill="#cce6fc" stroke="#000000" d="M124.88,-280.68C124.88,-280.68 154.88,-280.68 154.88,-280.68 160.88,-280.68 166.88,-286.68 166.88,-292.68 166.88,-292.68 166.88,-304.68 166.88,-304.68 166.88,-310.68 160.88,-316.68 154.88,-316.68 154.88,-316.68 124.88,-316.68 124.88,-316.68 118.88,-316.68 112.88,-310.68 112.88,-304.68 112.88,-304.68 112.88,-292.68 112.88,-292.68 112.88,-286.68 118.88,-280.68 124.88,-280.68"/>
<text text-anchor="middle" x="139.88" y="-294.98" font-family="Arial" font-size="14.00" fill="#000000">R 3</text>
</g>
<!-- board.cache_hierarchy.ruby_system.network.routers02&#45;&#45;board.cache_hierarchy.ruby_system.network.routers03 -->
<g id="edge3" class="edge">
<title>board.cache_hierarchy.ruby_system.network.routers02&#45;&#45;board.cache_hierarchy.ruby_system.network.routers03</title>
<path fill="none" stroke="#042d50" d="M140.24,-370.46C140.18,-358.02 140.1,-341.28 140.02,-327.1"/>
<polygon fill="#042d50" stroke="#042d50" points="143.52,-326.84 139.97,-316.86 136.52,-326.88 143.52,-326.84"/>
</g>
<!-- board.cache_hierarchy.ruby_system.network.routers04 -->
<g id="node5" class="node">
<title>board.cache_hierarchy.ruby_system.network.routers04</title>
<path fill="#cce6fc" stroke="#000000" d="M158.72,-189.91C158.72,-189.91 188.72,-189.91 188.72,-189.91 194.72,-189.91 200.72,-195.91 200.72,-201.91 200.72,-201.91 200.72,-213.91 200.72,-213.91 200.72,-219.91 194.72,-225.91 188.72,-225.91 188.72,-225.91 158.72,-225.91 158.72,-225.91 152.72,-225.91 146.72,-219.91 146.72,-213.91 146.72,-213.91 146.72,-201.91 146.72,-201.91 146.72,-195.91 152.72,-189.91 158.72,-189.91"/>
<text text-anchor="middle" x="173.72" y="-204.21" font-family="Arial" font-size="14.00" fill="#000000">R 4</text>
</g>
<!-- board.cache_hierarchy.ruby_system.network.routers03&#45;&#45;board.cache_hierarchy.ruby_system.network.routers04 -->
<g id="edge4" class="edge">
<title>board.cache_hierarchy.ruby_system.network.routers03&#45;&#45;board.cache_hierarchy.ruby_system.network.routers04</title>
<path fill="none" stroke="#042d50" d="M146.73,-280.31C151.53,-267.43 158.03,-249.99 163.45,-235.45"/>
<polygon fill="#042d50" stroke="#042d50" points="166.78,-236.53 167,-225.94 160.22,-234.09 166.78,-236.53"/>
</g>
<!-- board.cache_hierarchy.ruby_system.network.routers05 -->
<g id="node6" class="node">
<title>board.cache_hierarchy.ruby_system.network.routers05</title>
<path fill="#cce6fc" stroke="#000000" d="M223.37,-124.36C223.37,-124.36 253.37,-124.36 253.37,-124.36 259.37,-124.36 265.37,-130.36 265.37,-136.36 265.37,-136.36 265.37,-148.36 265.37,-148.36 265.37,-154.36 259.37,-160.36 253.37,-160.36 253.37,-160.36 223.37,-160.36 223.37,-160.36 217.37,-160.36 211.37,-154.36 211.37,-148.36 211.37,-148.36 211.37,-136.36 211.37,-136.36 211.37,-130.36 217.37,-124.36 223.37,-124.36"/>
<text text-anchor="middle" x="238.37" y="-138.66" font-family="Arial" font-size="14.00" fill="#000000">R 5</text>
</g>
<!-- board.cache_hierarchy.ruby_system.network.routers04&#45;&#45;board.cache_hierarchy.ruby_system.network.routers05 -->
<g id="edge5" class="edge">
<title>board.cache_hierarchy.ruby_system.network.routers04&#45;&#45;board.cache_hierarchy.ruby_system.network.routers05</title>
<path fill="none" stroke="#042d50" d="M191.73,-189.65C198.31,-182.97 205.89,-175.29 213,-168.08"/>
<polygon fill="#042d50" stroke="#042d50" points="215.93,-170.1 220.46,-160.52 210.94,-165.18 215.93,-170.1"/>
</g>
<!-- board.cache_hierarchy.ruby_system.network.routers06 -->
<g id="node7" class="node">
<title>board.cache_hierarchy.ruby_system.network.routers06</title>
<path fill="#cce6fc" stroke="#000000" d="M311.36,-88.66C311.36,-88.66 341.36,-88.66 341.36,-88.66 347.36,-88.66 353.36,-94.66 353.36,-100.66 353.36,-100.66 353.36,-112.66 353.36,-112.66 353.36,-118.66 347.36,-124.66 341.36,-124.66 341.36,-124.66 311.36,-124.66 311.36,-124.66 305.36,-124.66 299.36,-118.66 299.36,-112.66 299.36,-112.66 299.36,-100.66 299.36,-100.66 299.36,-94.66 305.36,-88.66 311.36,-88.66"/>
<text text-anchor="middle" x="326.36" y="-102.96" font-family="Arial" font-size="14.00" fill="#000000">R 6</text>
</g>
<!-- board.cache_hierarchy.ruby_system.network.routers05&#45;&#45;board.cache_hierarchy.ruby_system.network.routers06 -->
<g id="edge6" class="edge">
<title>board.cache_hierarchy.ruby_system.network.routers05&#45;&#45;board.cache_hierarchy.ruby_system.network.routers06</title>
<path fill="none" stroke="#042d50" d="M265.73,-131.26C273.41,-128.14 281.89,-124.7 290.02,-121.4"/>
<polygon fill="#042d50" stroke="#042d50" points="291.37,-124.63 299.32,-117.63 288.74,-118.15 291.37,-124.63"/>
</g>
<!-- board.cache_hierarchy.ruby_system.network.routers07 -->
<g id="node8" class="node">
<title>board.cache_hierarchy.ruby_system.network.routers07</title>
<path fill="#cce6fc" stroke="#000000" d="M401,-85.24C401,-85.24 431,-85.24 431,-85.24 437,-85.24 443,-91.24 443,-97.24 443,-97.24 443,-109.24 443,-109.24 443,-115.24 437,-121.24 431,-121.24 431,-121.24 401,-121.24 401,-121.24 395,-121.24 389,-115.24 389,-109.24 389,-109.24 389,-97.24 389,-97.24 389,-91.24 395,-85.24 401,-85.24"/>
<text text-anchor="middle" x="416" y="-99.54" font-family="Arial" font-size="14.00" fill="#000000">R 7</text>
</g>
<!-- board.cache_hierarchy.ruby_system.network.routers06&#45;&#45;board.cache_hierarchy.ruby_system.network.routers07 -->
<g id="edge7" class="edge">
<title>board.cache_hierarchy.ruby_system.network.routers06&#45;&#45;board.cache_hierarchy.ruby_system.network.routers07</title>
<path fill="none" stroke="#042d50" d="M353.74,-105.61C361.56,-105.32 370.22,-104.98 378.53,-104.67"/>
<polygon fill="#042d50" stroke="#042d50" points="378.93,-108.15 388.78,-104.28 378.66,-101.16 378.93,-108.15"/>
</g>
<!-- board.cache_hierarchy.ruby_system.network.routers08 -->
<g id="node9" class="node">
<title>board.cache_hierarchy.ruby_system.network.routers08</title>
<path fill="#cce6fc" stroke="#000000" d="M486.44,-108.98C486.44,-108.98 516.44,-108.98 516.44,-108.98 522.44,-108.98 528.44,-114.98 528.44,-120.98 528.44,-120.98 528.44,-132.98 528.44,-132.98 528.44,-138.98 522.44,-144.98 516.44,-144.98 516.44,-144.98 486.44,-144.98 486.44,-144.98 480.44,-144.98 474.44,-138.98 474.44,-132.98 474.44,-132.98 474.44,-120.98 474.44,-120.98 474.44,-114.98 480.44,-108.98 486.44,-108.98"/>
<text text-anchor="middle" x="501.44" y="-123.28" font-family="Arial" font-size="14.00" fill="#000000">R 8</text>
</g>
<!-- board.cache_hierarchy.ruby_system.network.routers07&#45;&#45;board.cache_hierarchy.ruby_system.network.routers08 -->
<g id="edge8" class="edge">
<title>board.cache_hierarchy.ruby_system.network.routers07&#45;&#45;board.cache_hierarchy.ruby_system.network.routers08</title>
<path fill="none" stroke="#042d50" d="M443.03,-110.75C449.89,-112.65 457.37,-114.73 464.62,-116.75"/>
<polygon fill="#042d50" stroke="#042d50" points="463.71,-120.13 474.29,-119.43 465.59,-113.38 463.71,-120.13"/>
</g>
<!-- board.cache_hierarchy.ruby_system.network.routers09 -->
<g id="node10" class="node">
<title>board.cache_hierarchy.ruby_system.network.routers09</title>
<path fill="#cce6fc" stroke="#000000" d="M559.33,-158.66C559.33,-158.66 589.33,-158.66 589.33,-158.66 595.33,-158.66 601.33,-164.66 601.33,-170.66 601.33,-170.66 601.33,-182.66 601.33,-182.66 601.33,-188.66 595.33,-194.66 589.33,-194.66 589.33,-194.66 559.33,-194.66 559.33,-194.66 553.33,-194.66 547.33,-188.66 547.33,-182.66 547.33,-182.66 547.33,-170.66 547.33,-170.66 547.33,-164.66 553.33,-158.66 559.33,-158.66"/>
<text text-anchor="middle" x="574.33" y="-172.96" font-family="Arial" font-size="14.00" fill="#000000">R 9</text>
</g>
<!-- board.cache_hierarchy.ruby_system.network.routers08&#45;&#45;board.cache_hierarchy.ruby_system.network.routers09 -->
<g id="edge9" class="edge">
<title>board.cache_hierarchy.ruby_system.network.routers08&#45;&#45;board.cache_hierarchy.ruby_system.network.routers09</title>
<path fill="none" stroke="#042d50" d="M528.16,-145.2C531.73,-147.63 535.43,-150.15 539.11,-152.66"/>
<polygon fill="#042d50" stroke="#042d50" points="537.37,-155.71 547.6,-158.45 541.31,-149.92 537.37,-155.71"/>
</g>
<!-- board.cache_hierarchy.ruby_system.network.routers10 -->
<g id="node11" class="node">
<title>board.cache_hierarchy.ruby_system.network.routers10</title>
<path fill="#cce6fc" stroke="#000000" d="M611.2,-229.82C611.2,-229.82 641.2,-229.82 641.2,-229.82 647.2,-229.82 653.2,-235.82 653.2,-241.82 653.2,-241.82 653.2,-253.82 653.2,-253.82 653.2,-259.82 647.2,-265.82 641.2,-265.82 641.2,-265.82 611.2,-265.82 611.2,-265.82 605.2,-265.82 599.2,-259.82 599.2,-253.82 599.2,-253.82 599.2,-241.82 599.2,-241.82 599.2,-235.82 605.2,-229.82 611.2,-229.82"/>
<text text-anchor="middle" x="626.2" y="-244.12" font-family="Arial" font-size="14.00" fill="#000000">R 10</text>
</g>
<!-- board.cache_hierarchy.ruby_system.network.routers09&#45;&#45;board.cache_hierarchy.ruby_system.network.routers10 -->
<g id="edge10" class="edge">
<title>board.cache_hierarchy.ruby_system.network.routers09&#45;&#45;board.cache_hierarchy.ruby_system.network.routers10</title>
<path fill="none" stroke="#042d50" d="M587.69,-194.99C593.6,-203.1 600.67,-212.79 607.12,-221.65"/>
<polygon fill="#042d50" stroke="#042d50" points="604.35,-223.78 613.06,-229.8 610,-219.66 604.35,-223.78"/>
</g>
<!-- board.cache_hierarchy.ruby_system.network.routers11 -->
<g id="node12" class="node">
<title>board.cache_hierarchy.ruby_system.network.routers11</title>
<path fill="#cce6fc" stroke="#000000" d="M636.06,-314.35C636.06,-314.35 666.06,-314.35 666.06,-314.35 672.06,-314.35 678.06,-320.35 678.06,-326.35 678.06,-326.35 678.06,-338.35 678.06,-338.35 678.06,-344.35 672.06,-350.35 666.06,-350.35 666.06,-350.35 636.06,-350.35 636.06,-350.35 630.06,-350.35 624.06,-344.35 624.06,-338.35 624.06,-338.35 624.06,-326.35 624.06,-326.35 624.06,-320.35 630.06,-314.35 636.06,-314.35"/>
<text text-anchor="middle" x="651.06" y="-328.65" font-family="Arial" font-size="14.00" fill="#000000">R 11</text>
</g>
<!-- board.cache_hierarchy.ruby_system.network.routers10&#45;&#45;board.cache_hierarchy.ruby_system.network.routers11 -->
<g id="edge11" class="edge">
<title>board.cache_hierarchy.ruby_system.network.routers10&#45;&#45;board.cache_hierarchy.ruby_system.network.routers11</title>
<path fill="none" stroke="#042d50" d="M631.59,-266.16C634.91,-277.42 639.22,-292.07 642.94,-304.72"/>
<polygon fill="#042d50" stroke="#042d50" points="639.58,-305.72 645.76,-314.33 646.3,-303.75 639.58,-305.72"/>
</g>
<!-- board.cache_hierarchy.ruby_system.network.routers12 -->
<g id="node13" class="node">
<title>board.cache_hierarchy.ruby_system.network.routers12</title>
<path fill="#cce6fc" stroke="#000000" d="M631.52,-402.61C631.52,-402.61 661.52,-402.61 661.52,-402.61 667.52,-402.61 673.52,-408.61 673.52,-414.61 673.52,-414.61 673.52,-426.61 673.52,-426.61 673.52,-432.61 667.52,-438.61 661.52,-438.61 661.52,-438.61 631.52,-438.61 631.52,-438.61 625.52,-438.61 619.52,-432.61 619.52,-426.61 619.52,-426.61 619.52,-414.61 619.52,-414.61 619.52,-408.61 625.52,-402.61 631.52,-402.61"/>
<text text-anchor="middle" x="646.52" y="-416.91" font-family="Arial" font-size="14.00" fill="#000000">R 12</text>
</g>
<!-- board.cache_hierarchy.ruby_system.network.routers11&#45;&#45;board.cache_hierarchy.ruby_system.network.routers12 -->
<g id="edge12" class="edge">
<title>board.cache_hierarchy.ruby_system.network.routers11&#45;&#45;board.cache_hierarchy.ruby_system.network.routers12</title>
<path fill="none" stroke="#042d50" d="M650.12,-350.63C649.51,-362.59 648.69,-378.45 647.99,-392.05"/>
<polygon fill="#042d50" stroke="#042d50" points="644.48,-392.18 647.46,-402.35 651.47,-392.54 644.48,-392.18"/>
</g>
<!-- board.cache_hierarchy.ruby_system.network.routers13 -->
<g id="node14" class="node">
<title>board.cache_hierarchy.ruby_system.network.routers13</title>
<path fill="#cce6fc" stroke="#000000" d="M598.46,-485.24C598.46,-485.24 628.46,-485.24 628.46,-485.24 634.46,-485.24 640.46,-491.24 640.46,-497.24 640.46,-497.24 640.46,-509.24 640.46,-509.24 640.46,-515.24 634.46,-521.24 628.46,-521.24 628.46,-521.24 598.46,-521.24 598.46,-521.24 592.46,-521.24 586.46,-515.24 586.46,-509.24 586.46,-509.24 586.46,-497.24 586.46,-497.24 586.46,-491.24 592.46,-485.24 598.46,-485.24"/>
<text text-anchor="middle" x="613.46" y="-499.54" font-family="Arial" font-size="14.00" fill="#000000">R 13</text>
</g>
<!-- board.cache_hierarchy.ruby_system.network.routers12&#45;&#45;board.cache_hierarchy.ruby_system.network.routers13 -->
<g id="edge13" class="edge">
<title>board.cache_hierarchy.ruby_system.network.routers12&#45;&#45;board.cache_hierarchy.ruby_system.network.routers13</title>
<path fill="none" stroke="#042d50" d="M639.19,-438.95C634.88,-449.73 629.34,-463.55 624.51,-475.62"/>
<polygon fill="#042d50" stroke="#042d50" points="621.13,-474.66 620.67,-485.24 627.63,-477.26 621.13,-474.66"/>
</g>
<!-- board.cache_hierarchy.ruby_system.network.routers14 -->
<g id="node15" class="node">
<title>board.cache_hierarchy.ruby_system.network.routers14</title>
<path fill="#cce6fc" stroke="#000000" d="M533.98,-549.28C533.98,-549.28 563.98,-549.28 563.98,-549.28 569.98,-549.28 575.98,-555.28 575.98,-561.28 575.98,-561.28 575.98,-573.28 575.98,-573.28 575.98,-579.28 569.98,-585.28 563.98,-585.28 563.98,-585.28 533.98,-585.28 533.98,-585.28 527.98,-585.28 521.98,-579.28 521.98,-573.28 521.98,-573.28 521.98,-561.28 521.98,-561.28 521.98,-555.28 527.98,-549.28 533.98,-549.28"/>
<text text-anchor="middle" x="548.98" y="-563.58" font-family="Arial" font-size="14.00" fill="#000000">R 14</text>
</g>
<!-- board.cache_hierarchy.ruby_system.network.routers13&#45;&#45;board.cache_hierarchy.ruby_system.network.routers14 -->
<g id="edge14" class="edge">
<title>board.cache_hierarchy.ruby_system.network.routers13&#45;&#45;board.cache_hierarchy.ruby_system.network.routers14</title>
<path fill="none" stroke="#042d50" d="M595.16,-521.42C588.71,-527.83 581.33,-535.16 574.4,-542.04"/>
<polygon fill="#042d50" stroke="#042d50" points="571.74,-539.75 567.11,-549.28 576.67,-544.72 571.74,-539.75"/>
</g>
<!-- board.cache_hierarchy.ruby_system.network.routers15 -->
<g id="node16" class="node">
<title>board.cache_hierarchy.ruby_system.network.routers15</title>
<path fill="#cce6fc" stroke="#000000" d="M453.54,-591.46C453.54,-591.46 483.54,-591.46 483.54,-591.46 489.54,-591.46 495.54,-597.46 495.54,-603.46 495.54,-603.46 495.54,-615.46 495.54,-615.46 495.54,-621.46 489.54,-627.46 483.54,-627.46 483.54,-627.46 453.54,-627.46 453.54,-627.46 447.54,-627.46 441.54,-621.46 441.54,-615.46 441.54,-615.46 441.54,-603.46 441.54,-603.46 441.54,-597.46 447.54,-591.46 453.54,-591.46"/>
<text text-anchor="middle" x="468.54" y="-605.76" font-family="Arial" font-size="14.00" fill="#000000">R 15</text>
</g>
<!-- board.cache_hierarchy.ruby_system.network.routers14&#45;&#45;board.cache_hierarchy.ruby_system.network.routers15 -->
<g id="edge15" class="edge">
<title>board.cache_hierarchy.ruby_system.network.routers14&#45;&#45;board.cache_hierarchy.ruby_system.network.routers15</title>
<path fill="none" stroke="#042d50" d="M521.75,-581.56C516.24,-584.45 510.38,-587.53 504.62,-590.54"/>
<polygon fill="#042d50" stroke="#042d50" points="502.98,-587.45 495.75,-595.2 506.23,-593.65 502.98,-587.45"/>
</g>
<!-- board.cache_hierarchy.ruby_system.network.routers16 -->
<g id="node17" class="node">
<title>board.cache_hierarchy.ruby_system.network.routers16</title>
<path fill="#cce6fc" stroke="#000000" d="M364.73,-597.79C364.73,-597.79 394.73,-597.79 394.73,-597.79 400.73,-597.79 406.73,-603.79 406.73,-609.79 406.73,-609.79 406.73,-621.79 406.73,-621.79 406.73,-627.79 400.73,-633.79 394.73,-633.79 394.73,-633.79 364.73,-633.79 364.73,-633.79 358.73,-633.79 352.73,-627.79 352.73,-621.79 352.73,-621.79 352.73,-609.79 352.73,-609.79 352.73,-603.79 358.73,-597.79 364.73,-597.79"/>
<text text-anchor="middle" x="379.73" y="-612.09" font-family="Arial" font-size="14.00" fill="#000000">R 16</text>
</g>
<!-- board.cache_hierarchy.ruby_system.network.routers15&#45;&#45;board.cache_hierarchy.ruby_system.network.routers16 -->
<g id="edge16" class="edge">
<title>board.cache_hierarchy.ruby_system.network.routers15&#45;&#45;board.cache_hierarchy.ruby_system.network.routers16</title>
<path fill="none" stroke="#042d50" d="M441.41,-611.4C433.73,-611.94 425.24,-612.55 417.08,-613.13"/>
<polygon fill="#042d50" stroke="#042d50" points="416.72,-609.65 407,-613.85 417.22,-616.63 416.72,-609.65"/>
</g>
<!-- board.cache_hierarchy.ruby_system.network.routers17 -->
<g id="node18" class="node">
<title>board.cache_hierarchy.ruby_system.network.routers17</title>
<path fill="#cce6fc" stroke="#000000" d="M279.16,-575.23C279.16,-575.23 309.16,-575.23 309.16,-575.23 315.16,-575.23 321.16,-581.23 321.16,-587.23 321.16,-587.23 321.16,-599.23 321.16,-599.23 321.16,-605.23 315.16,-611.23 309.16,-611.23 309.16,-611.23 279.16,-611.23 279.16,-611.23 273.16,-611.23 267.16,-605.23 267.16,-599.23 267.16,-599.23 267.16,-587.23 267.16,-587.23 267.16,-581.23 273.16,-575.23 279.16,-575.23"/>
<text text-anchor="middle" x="294.16" y="-589.53" font-family="Arial" font-size="14.00" fill="#000000">R 17</text>
</g>
<!-- board.cache_hierarchy.ruby_system.network.routers16&#45;&#45;board.cache_hierarchy.ruby_system.network.routers17 -->
<g id="edge17" class="edge">
<title>board.cache_hierarchy.ruby_system.network.routers16&#45;&#45;board.cache_hierarchy.ruby_system.network.routers17</title>
<path fill="none" stroke="#042d50" d="M352.65,-608.65C345.79,-606.84 338.29,-604.86 331.03,-602.95"/>
<polygon fill="#042d50" stroke="#042d50" points="331.91,-599.56 321.35,-600.4 330.13,-606.33 331.91,-599.56"/>
</g>
<!-- board.cache_hierarchy.ruby_system.network.routers17&#45;&#45;board.cache_hierarchy.ruby_system.network.routers00 -->
<g id="edge18" class="edge">
<title>board.cache_hierarchy.ruby_system.network.routers17&#45;&#45;board.cache_hierarchy.ruby_system.network.routers00</title>
<path fill="none" stroke="#042d50" d="M267.28,-575.16C263.69,-572.75 259.97,-570.25 256.27,-567.76"/>
<polygon fill="#042d50" stroke="#042d50" points="257.98,-564.69 247.73,-562.02 254.07,-570.5 257.98,-564.69"/>
</g>
<!-- board.cache_hierarchy.ruby_system.l1_controllers00 -->
<g id="node19" class="node">
<title>board.cache_hierarchy.ruby_system.l1_controllers00</title>
<path fill="#e5bcd0" stroke="#000000" d="M118.41,-587.99C118.41,-587.99 206.41,-587.99 206.41,-587.99 212.41,-587.99 218.41,-593.99 218.41,-599.99 218.41,-599.99 218.41,-611.99 218.41,-611.99 218.41,-617.99 212.41,-623.99 206.41,-623.99 206.41,-623.99 118.41,-623.99 118.41,-623.99 112.41,-623.99 106.41,-617.99 106.41,-611.99 106.41,-611.99 106.41,-599.99 106.41,-599.99 106.41,-593.99 112.41,-587.99 118.41,-587.99"/>
<text text-anchor="middle" x="162.41" y="-602.29" font-family="Arial" font-size="14.00" fill="#000000">l1_controllers00</text>
</g>
<!-- board.cache_hierarchy.ruby_system.l1_controllers00&#45;&#45;board.cache_hierarchy.ruby_system.network.routers00 -->
<g id="edge19" class="edge">
<title>board.cache_hierarchy.ruby_system.l1_controllers00&#45;&#45;board.cache_hierarchy.ruby_system.network.routers00</title>
<path fill="none" stroke="#381526" d="M186.62,-580.29C189.9,-576.81 193.28,-573.23 196.56,-569.74"/>
<polygon fill="#381526" stroke="#381526" points="183.94,-578.04 179.63,-587.71 189.03,-582.84 183.94,-578.04"/>
<polygon fill="#381526" stroke="#381526" points="199.24,-572 203.55,-562.32 194.15,-567.2 199.24,-572"/>
</g>
<!-- board.cache_hierarchy.ruby_system.l1_controllers01 -->
<g id="node20" class="node">
<title>board.cache_hierarchy.ruby_system.l1_controllers01</title>
<path fill="#e5bcd0" stroke="#000000" d="M47.8,-493.32C47.8,-493.32 135.8,-493.32 135.8,-493.32 141.8,-493.32 147.8,-499.32 147.8,-505.32 147.8,-505.32 147.8,-517.32 147.8,-517.32 147.8,-523.32 141.8,-529.32 135.8,-529.32 135.8,-529.32 47.8,-529.32 47.8,-529.32 41.8,-529.32 35.8,-523.32 35.8,-517.32 35.8,-517.32 35.8,-505.32 35.8,-505.32 35.8,-499.32 41.8,-493.32 47.8,-493.32"/>
<text text-anchor="middle" x="91.8" y="-507.62" font-family="Arial" font-size="14.00" fill="#000000">l1_controllers01</text>
</g>
<!-- board.cache_hierarchy.ruby_system.l1_controllers01&#45;&#45;board.cache_hierarchy.ruby_system.network.routers01 -->
<g id="edge20" class="edge">
<title>board.cache_hierarchy.ruby_system.l1_controllers01&#45;&#45;board.cache_hierarchy.ruby_system.network.routers01</title>
<path fill="none" stroke="#381526" d="M137.23,-488.53C137.38,-488.45 137.53,-488.38 137.68,-488.3"/>
<polygon fill="#381526" stroke="#381526" points="135.4,-485.53 128.03,-493.14 138.54,-491.79 135.4,-485.53"/>
<polygon fill="#381526" stroke="#381526" points="133.38,-494.37 140.75,-486.76 130.24,-488.12 133.38,-494.37"/>
</g>
<!-- board.cache_hierarchy.ruby_system.l1_controllers02 -->
<g id="node21" class="node">
<title>board.cache_hierarchy.ruby_system.l1_controllers02</title>
<path fill="#e5bcd0" stroke="#000000" d="M12,-378.81C12,-378.81 100,-378.81 100,-378.81 106,-378.81 112,-384.81 112,-390.81 112,-390.81 112,-402.81 112,-402.81 112,-408.81 106,-414.81 100,-414.81 100,-414.81 12,-414.81 12,-414.81 6,-414.81 0,-408.81 0,-402.81 0,-402.81 0,-390.81 0,-390.81 0,-384.81 6,-378.81 12,-378.81"/>
<text text-anchor="middle" x="56" y="-393.11" font-family="Arial" font-size="14.00" fill="#000000">l1_controllers02</text>
</g>
<!-- board.cache_hierarchy.ruby_system.l1_controllers02&#45;&#45;board.cache_hierarchy.ruby_system.network.routers02 -->
<g id="edge21" class="edge">
<title>board.cache_hierarchy.ruby_system.l1_controllers02&#45;&#45;board.cache_hierarchy.ruby_system.network.routers02</title>
<path fill="none" stroke="#381526" d="M112.62,-391.35C112.68,-391.34 112.74,-391.34 112.8,-391.33"/>
<polygon fill="#381526" stroke="#381526" points="121.87,-386.94 112.25,-391.38 122.54,-393.91 121.87,-386.94"/>
<polygon fill="#381526" stroke="#381526" points="103.36,-395.76 112.98,-391.31 102.69,-388.8 103.36,-395.76"/>
</g>
<!-- board.cache_hierarchy.ruby_system.l1_controllers03 -->
<g id="node22" class="node">
<title>board.cache_hierarchy.ruby_system.l1_controllers03</title>
<path fill="#e5bcd0" stroke="#000000" d="M16.82,-250.34C16.82,-250.34 104.82,-250.34 104.82,-250.34 110.82,-250.34 116.82,-256.34 116.82,-262.34 116.82,-262.34 116.82,-274.34 116.82,-274.34 116.82,-280.34 110.82,-286.34 104.82,-286.34 104.82,-286.34 16.82,-286.34 16.82,-286.34 10.82,-286.34 4.82,-280.34 4.82,-274.34 4.82,-274.34 4.82,-262.34 4.82,-262.34 4.82,-256.34 10.82,-250.34 16.82,-250.34"/>
<text text-anchor="middle" x="60.82" y="-264.64" font-family="Arial" font-size="14.00" fill="#000000">l1_controllers03</text>
</g>
<!-- board.cache_hierarchy.ruby_system.l1_controllers03&#45;&#45;board.cache_hierarchy.ruby_system.network.routers03 -->
<g id="edge22" class="edge">
<title>board.cache_hierarchy.ruby_system.l1_controllers03&#45;&#45;board.cache_hierarchy.ruby_system.network.routers03</title>
<path fill="none" stroke="#381526" d="M112.56,-288.19C112.61,-288.21 112.66,-288.23 112.71,-288.25"/>
<polygon fill="#381526" stroke="#381526" points="118.77,-286.83 108.18,-286.51 116.26,-293.36 118.77,-286.83"/>
<polygon fill="#381526" stroke="#381526" points="102.26,-287.98 112.85,-288.3 104.77,-281.45 102.26,-287.98"/>
</g>
<!-- board.cache_hierarchy.ruby_system.l1_controllers04 -->
<g id="node23" class="node">
<title>board.cache_hierarchy.ruby_system.l1_controllers04</title>
<path fill="#e5bcd0" stroke="#000000" d="M155.29,-226.59C155.29,-226.59 243.29,-226.59 243.29,-226.59 249.29,-226.59 255.29,-232.59 255.29,-238.59 255.29,-238.59 255.29,-250.59 255.29,-250.59 255.29,-256.59 249.29,-262.59 243.29,-262.59 243.29,-262.59 155.29,-262.59 155.29,-262.59 149.29,-262.59 143.29,-256.59 143.29,-250.59 143.29,-250.59 143.29,-238.59 143.29,-238.59 143.29,-232.59 149.29,-226.59 155.29,-226.59"/>
<text text-anchor="middle" x="199.29" y="-240.89" font-family="Arial" font-size="14.00" fill="#000000">l1_controllers04</text>
</g>
<!-- board.cache_hierarchy.ruby_system.l1_controllers04&#45;&#45;board.cache_hierarchy.ruby_system.network.routers04 -->
<g id="edge23" class="edge">
<title>board.cache_hierarchy.ruby_system.l1_controllers04&#45;&#45;board.cache_hierarchy.ruby_system.network.routers04</title>
<path fill="none" stroke="#381526" d="M186.36,-226.04C186.33,-226 186.31,-225.96 186.28,-225.93"/>
<polygon fill="#381526" stroke="#381526" points="177.91,-220.05 186.51,-226.25 183.66,-216.05 177.91,-220.05"/>
<polygon fill="#381526" stroke="#381526" points="194.8,-232.02 186.21,-225.82 189.06,-236.03 194.8,-232.02"/>
</g>
<!-- board.cache_hierarchy.ruby_system.l1_controllers05 -->
<g id="node24" class="node">
<title>board.cache_hierarchy.ruby_system.l1_controllers05</title>
<path fill="#e5bcd0" stroke="#000000" d="M229.39,-155.27C229.39,-155.27 317.39,-155.27 317.39,-155.27 323.39,-155.27 329.39,-161.27 329.39,-167.27 329.39,-167.27 329.39,-179.27 329.39,-179.27 329.39,-185.27 323.39,-191.27 317.39,-191.27 317.39,-191.27 229.39,-191.27 229.39,-191.27 223.39,-191.27 217.39,-185.27 217.39,-179.27 217.39,-179.27 217.39,-167.27 217.39,-167.27 217.39,-161.27 223.39,-155.27 229.39,-155.27"/>
<text text-anchor="middle" x="273.39" y="-169.57" font-family="Arial" font-size="14.00" fill="#000000">l1_controllers05</text>
</g>
<!-- board.cache_hierarchy.ruby_system.l1_controllers05&#45;&#45;board.cache_hierarchy.ruby_system.network.routers05 -->
<g id="edge24" class="edge">
<title>board.cache_hierarchy.ruby_system.l1_controllers05&#45;&#45;board.cache_hierarchy.ruby_system.network.routers05</title>
<path fill="none" stroke="#381526" d="M252.44,-154.78C252.41,-154.75 252.38,-154.72 252.35,-154.7"/>
<polygon fill="#381526" stroke="#381526" points="242.8,-150.94 252.61,-154.93 247.43,-145.69 242.8,-150.94"/>
<polygon fill="#381526" stroke="#381526" points="262.08,-158.61 252.26,-154.62 257.44,-163.86 262.08,-158.61"/>
</g>
<!-- board.cache_hierarchy.ruby_system.l1_controllers06 -->
<g id="node25" class="node">
<title>board.cache_hierarchy.ruby_system.l1_controllers06</title>
<path fill="#e5bcd0" stroke="#000000" d="M250.42,-10.2C250.42,-10.2 338.42,-10.2 338.42,-10.2 344.42,-10.2 350.42,-16.2 350.42,-22.2 350.42,-22.2 350.42,-34.2 350.42,-34.2 350.42,-40.2 344.42,-46.2 338.42,-46.2 338.42,-46.2 250.42,-46.2 250.42,-46.2 244.42,-46.2 238.42,-40.2 238.42,-34.2 238.42,-34.2 238.42,-22.2 238.42,-22.2 238.42,-16.2 244.42,-10.2 250.42,-10.2"/>
<text text-anchor="middle" x="294.42" y="-24.5" font-family="Arial" font-size="14.00" fill="#000000">l1_controllers06</text>
</g>
<!-- board.cache_hierarchy.ruby_system.l1_controllers06&#45;&#45;board.cache_hierarchy.ruby_system.network.routers06 -->
<g id="edge25" class="edge">
<title>board.cache_hierarchy.ruby_system.l1_controllers06&#45;&#45;board.cache_hierarchy.ruby_system.network.routers06</title>
<path fill="none" stroke="#381526" d="M305.69,-55.89C308.76,-63.43 312.08,-71.6 315.15,-79.13"/>
<polygon fill="#381526" stroke="#381526" points="308.84,-54.34 301.83,-46.4 302.35,-56.98 308.84,-54.34"/>
<polygon fill="#381526" stroke="#381526" points="311.98,-80.62 318.99,-88.56 318.46,-77.98 311.98,-80.62"/>
</g>
<!-- board.cache_hierarchy.ruby_system.l1_controllers07 -->
<g id="node26" class="node">
<title>board.cache_hierarchy.ruby_system.l1_controllers07</title>
<path fill="#e5bcd0" stroke="#000000" d="M376.64,-0.5C376.64,-0.5 464.64,-0.5 464.64,-0.5 470.64,-0.5 476.64,-6.5 476.64,-12.5 476.64,-12.5 476.64,-24.5 476.64,-24.5 476.64,-30.5 470.64,-36.5 464.64,-36.5 464.64,-36.5 376.64,-36.5 376.64,-36.5 370.64,-36.5 364.64,-30.5 364.64,-24.5 364.64,-24.5 364.64,-12.5 364.64,-12.5 364.64,-6.5 370.64,-0.5 376.64,-0.5"/>
<text text-anchor="middle" x="420.64" y="-14.8" font-family="Arial" font-size="14.00" fill="#000000">l1_controllers07</text>
</g>
<!-- board.cache_hierarchy.ruby_system.l1_controllers07&#45;&#45;board.cache_hierarchy.ruby_system.network.routers07 -->
<g id="edge26" class="edge">
<title>board.cache_hierarchy.ruby_system.l1_controllers07&#45;&#45;board.cache_hierarchy.ruby_system.network.routers07</title>
<path fill="none" stroke="#381526" d="M419.09,-46.94C418.59,-56.02 418.04,-66.06 417.54,-75.11"/>
<polygon fill="#381526" stroke="#381526" points="422.58,-47.06 419.64,-36.89 415.59,-46.68 422.58,-47.06"/>
<polygon fill="#381526" stroke="#381526" points="414.04,-75 416.99,-85.18 421.03,-75.38 414.04,-75"/>
</g>
<!-- board.cache_hierarchy.ruby_system.l1_controllers08 -->
<g id="node27" class="node">
<title>board.cache_hierarchy.ruby_system.l1_controllers08</title>
<path fill="#e5bcd0" stroke="#000000" d="M492.11,-31.17C492.11,-31.17 580.11,-31.17 580.11,-31.17 586.11,-31.17 592.11,-37.17 592.11,-43.17 592.11,-43.17 592.11,-55.17 592.11,-55.17 592.11,-61.17 586.11,-67.17 580.11,-67.17 580.11,-67.17 492.11,-67.17 492.11,-67.17 486.11,-67.17 480.11,-61.17 480.11,-55.17 480.11,-55.17 480.11,-43.17 480.11,-43.17 480.11,-37.17 486.11,-31.17 492.11,-31.17"/>
<text text-anchor="middle" x="536.11" y="-45.47" font-family="Arial" font-size="14.00" fill="#000000">l1_controllers08</text>
</g>
<!-- board.cache_hierarchy.ruby_system.l1_controllers08&#45;&#45;board.cache_hierarchy.ruby_system.network.routers08 -->
<g id="edge27" class="edge">
<title>board.cache_hierarchy.ruby_system.l1_controllers08&#45;&#45;board.cache_hierarchy.ruby_system.network.routers08</title>
<path fill="none" stroke="#381526" d="M523.9,-76.56C520.63,-83.9 517.1,-91.84 513.82,-99.2"/>
<polygon fill="#381526" stroke="#381526" points="527.19,-77.78 528.07,-67.22 520.8,-74.93 527.19,-77.78"/>
<polygon fill="#381526" stroke="#381526" points="510.43,-98.2 509.55,-108.76 516.82,-101.05 510.43,-98.2"/>
</g>
<!-- board.cache_hierarchy.ruby_system.l1_controllers09 -->
<g id="node28" class="node">
<title>board.cache_hierarchy.ruby_system.l1_controllers09</title>
<path fill="#e5bcd0" stroke="#000000" d="M589.61,-97.26C589.61,-97.26 677.61,-97.26 677.61,-97.26 683.61,-97.26 689.61,-103.26 689.61,-109.26 689.61,-109.26 689.61,-121.26 689.61,-121.26 689.61,-127.26 683.61,-133.26 677.61,-133.26 677.61,-133.26 589.61,-133.26 589.61,-133.26 583.61,-133.26 577.61,-127.26 577.61,-121.26 577.61,-121.26 577.61,-109.26 577.61,-109.26 577.61,-103.26 583.61,-97.26 589.61,-97.26"/>
<text text-anchor="middle" x="633.61" y="-111.56" font-family="Arial" font-size="14.00" fill="#000000">l1_controllers09</text>
</g>
<!-- board.cache_hierarchy.ruby_system.l1_controllers09&#45;&#45;board.cache_hierarchy.ruby_system.network.routers09 -->
<g id="edge28" class="edge">
<title>board.cache_hierarchy.ruby_system.l1_controllers09&#45;&#45;board.cache_hierarchy.ruby_system.network.routers09</title>
<path fill="none" stroke="#381526" d="M609.05,-140.7C605.72,-144.15 602.3,-147.69 598.97,-151.15"/>
<polygon fill="#381526" stroke="#381526" points="611.72,-142.98 616.15,-133.35 606.68,-138.12 611.72,-142.98"/>
<polygon fill="#381526" stroke="#381526" points="596.3,-148.86 591.88,-158.49 601.34,-153.73 596.3,-148.86"/>
</g>
<!-- board.cache_hierarchy.ruby_system.l1_controllers10 -->
<g id="node29" class="node">
<title>board.cache_hierarchy.ruby_system.l1_controllers10</title>
<path fill="#e5bcd0" stroke="#000000" d="M658.92,-192.4C658.92,-192.4 746.92,-192.4 746.92,-192.4 752.92,-192.4 758.92,-198.4 758.92,-204.4 758.92,-204.4 758.92,-216.4 758.92,-216.4 758.92,-222.4 752.92,-228.4 746.92,-228.4 746.92,-228.4 658.92,-228.4 658.92,-228.4 652.92,-228.4 646.92,-222.4 646.92,-216.4 646.92,-216.4 646.92,-204.4 646.92,-204.4 646.92,-198.4 652.92,-192.4 658.92,-192.4"/>
<text text-anchor="middle" x="702.92" y="-206.7" font-family="Arial" font-size="14.00" fill="#000000">l1_controllers10</text>
</g>
<!-- board.cache_hierarchy.ruby_system.l1_controllers10&#45;&#45;board.cache_hierarchy.ruby_system.network.routers10 -->
<g id="edge29" class="edge">
<title>board.cache_hierarchy.ruby_system.l1_controllers10&#45;&#45;board.cache_hierarchy.ruby_system.network.routers10</title>
<path fill="none" stroke="#381526" d="M656.64,-232.97C656.51,-233.03 656.39,-233.09 656.26,-233.15"/>
<polygon fill="#381526" stroke="#381526" points="658.45,-235.98 665.9,-228.45 655.38,-229.69 658.45,-235.98"/>
<polygon fill="#381526" stroke="#381526" points="661.07,-226.91 653.62,-234.44 664.14,-233.2 661.07,-226.91"/>
</g>
<!-- board.cache_hierarchy.ruby_system.l1_controllers11 -->
<g id="node30" class="node">
<title>board.cache_hierarchy.ruby_system.l1_controllers11</title>
<path fill="#e5bcd0" stroke="#000000" d="M692.35,-305.79C692.35,-305.79 779.35,-305.79 779.35,-305.79 785.35,-305.79 791.35,-311.79 791.35,-317.79 791.35,-317.79 791.35,-329.79 791.35,-329.79 791.35,-335.79 785.35,-341.79 779.35,-341.79 779.35,-341.79 692.35,-341.79 692.35,-341.79 686.35,-341.79 680.35,-335.79 680.35,-329.79 680.35,-329.79 680.35,-317.79 680.35,-317.79 680.35,-311.79 686.35,-305.79 692.35,-305.79"/>
<text text-anchor="middle" x="735.85" y="-320.09" font-family="Arial" font-size="14.00" fill="#000000">l1_controllers11</text>
</g>
<!-- board.cache_hierarchy.ruby_system.l1_controllers11&#45;&#45;board.cache_hierarchy.ruby_system.network.routers11 -->
<g id="edge30" class="edge">
<title>board.cache_hierarchy.ruby_system.l1_controllers11&#45;&#45;board.cache_hierarchy.ruby_system.network.routers11</title>
<path fill="none" stroke="#381526" d="M678.85,-329.54C678.77,-329.55 678.69,-329.56 678.62,-329.57"/>
<polygon fill="#381526" stroke="#381526" points="670.65,-333.89 680.24,-329.4 669.94,-326.92 670.65,-333.89"/>
<polygon fill="#381526" stroke="#381526" points="687.98,-325.1 678.39,-329.59 688.69,-332.06 687.98,-325.1"/>
</g>
<!-- board.cache_hierarchy.ruby_system.l1_controllers12 -->
<g id="node31" class="node">
<title>board.cache_hierarchy.ruby_system.l1_controllers12</title>
<path fill="#e5bcd0" stroke="#000000" d="M684.42,-425.23C684.42,-425.23 772.42,-425.23 772.42,-425.23 778.42,-425.23 784.42,-431.23 784.42,-437.23 784.42,-437.23 784.42,-449.23 784.42,-449.23 784.42,-455.23 778.42,-461.23 772.42,-461.23 772.42,-461.23 684.42,-461.23 684.42,-461.23 678.42,-461.23 672.42,-455.23 672.42,-449.23 672.42,-449.23 672.42,-437.23 672.42,-437.23 672.42,-431.23 678.42,-425.23 684.42,-425.23"/>
<text text-anchor="middle" x="728.42" y="-439.53" font-family="Arial" font-size="14.00" fill="#000000">l1_controllers12</text>
</g>
<!-- board.cache_hierarchy.ruby_system.l1_controllers12&#45;&#45;board.cache_hierarchy.ruby_system.network.routers12 -->
<g id="edge31" class="edge">
<title>board.cache_hierarchy.ruby_system.l1_controllers12&#45;&#45;board.cache_hierarchy.ruby_system.network.routers12</title>
<path fill="none" stroke="#381526" d="M671.82,-427.6C671.79,-427.59 671.77,-427.59 671.74,-427.58"/>
<polygon fill="#381526" stroke="#381526" points="661.42,-428.35 671.99,-427.65 663.28,-421.61 661.42,-428.35"/>
<polygon fill="#381526" stroke="#381526" points="682.23,-426.85 671.66,-427.55 680.36,-433.6 682.23,-426.85"/>
</g>
<!-- board.cache_hierarchy.ruby_system.l1_controllers13 -->
<g id="node32" class="node">
<title>board.cache_hierarchy.ruby_system.l1_controllers13</title>
<path fill="#e5bcd0" stroke="#000000" d="M633.63,-540.3C633.63,-540.3 721.63,-540.3 721.63,-540.3 727.63,-540.3 733.63,-546.3 733.63,-552.3 733.63,-552.3 733.63,-564.3 733.63,-564.3 733.63,-570.3 727.63,-576.3 721.63,-576.3 721.63,-576.3 633.63,-576.3 633.63,-576.3 627.63,-576.3 621.63,-570.3 621.63,-564.3 621.63,-564.3 621.63,-552.3 621.63,-552.3 621.63,-546.3 627.63,-540.3 633.63,-540.3"/>
<text text-anchor="middle" x="677.63" y="-554.6" font-family="Arial" font-size="14.00" fill="#000000">l1_controllers13</text>
</g>
<!-- board.cache_hierarchy.ruby_system.l1_controllers13&#45;&#45;board.cache_hierarchy.ruby_system.network.routers13 -->
<g id="edge32" class="edge">
<title>board.cache_hierarchy.ruby_system.l1_controllers13&#45;&#45;board.cache_hierarchy.ruby_system.network.routers13</title>
<path fill="none" stroke="#381526" d="M648.81,-533.58C646.74,-531.8 644.65,-530.01 642.58,-528.23"/>
<polygon fill="#381526" stroke="#381526" points="646.75,-536.42 656.62,-540.27 651.31,-531.1 646.75,-536.42"/>
<polygon fill="#381526" stroke="#381526" points="644.61,-525.36 634.74,-521.5 640.05,-530.67 644.61,-525.36"/>
</g>
<!-- board.cache_hierarchy.ruby_system.l1_controllers14 -->
<g id="node33" class="node">
<title>board.cache_hierarchy.ruby_system.l1_controllers14</title>
<path fill="#e5bcd0" stroke="#000000" d="M474.21,-507.08C474.21,-507.08 562.21,-507.08 562.21,-507.08 568.21,-507.08 574.21,-513.08 574.21,-519.08 574.21,-519.08 574.21,-531.08 574.21,-531.08 574.21,-537.08 568.21,-543.08 562.21,-543.08 562.21,-543.08 474.21,-543.08 474.21,-543.08 468.21,-543.08 462.21,-537.08 462.21,-531.08 462.21,-531.08 462.21,-519.08 462.21,-519.08 462.21,-513.08 468.21,-507.08 474.21,-507.08"/>
<text text-anchor="middle" x="518.21" y="-521.38" font-family="Arial" font-size="14.00" fill="#000000">l1_controllers14</text>
</g>
<!-- board.cache_hierarchy.ruby_system.l1_controllers14&#45;&#45;board.cache_hierarchy.ruby_system.network.routers14 -->
<g id="edge33" class="edge">
<title>board.cache_hierarchy.ruby_system.l1_controllers14&#45;&#45;board.cache_hierarchy.ruby_system.network.routers14</title>
<path fill="none" stroke="#381526" d="M535.5,-548.79C535.54,-548.85 535.59,-548.91 535.63,-548.97"/>
<polygon fill="#381526" stroke="#381526" points="540.16,-549.24 531.44,-543.22 534.5,-553.37 540.16,-549.24"/>
<polygon fill="#381526" stroke="#381526" points="527.04,-543.14 535.77,-549.16 532.7,-539.01 527.04,-543.14"/>
</g>
<!-- board.cache_hierarchy.ruby_system.l1_controllers15 -->
<g id="node34" class="node">
<title>board.cache_hierarchy.ruby_system.l1_controllers15</title>
<path fill="#e5bcd0" stroke="#000000" d="M457.68,-669.28C457.68,-669.28 545.68,-669.28 545.68,-669.28 551.68,-669.28 557.68,-675.28 557.68,-681.28 557.68,-681.28 557.68,-693.28 557.68,-693.28 557.68,-699.28 551.68,-705.28 545.68,-705.28 545.68,-705.28 457.68,-705.28 457.68,-705.28 451.68,-705.28 445.68,-699.28 445.68,-693.28 445.68,-693.28 445.68,-681.28 445.68,-681.28 445.68,-675.28 451.68,-669.28 457.68,-669.28"/>
<text text-anchor="middle" x="501.68" y="-683.58" font-family="Arial" font-size="14.00" fill="#000000">l1_controllers15</text>
</g>
<!-- board.cache_hierarchy.ruby_system.l1_controllers15&#45;&#45;board.cache_hierarchy.ruby_system.network.routers15 -->
<g id="edge34" class="edge">
<title>board.cache_hierarchy.ruby_system.l1_controllers15&#45;&#45;board.cache_hierarchy.ruby_system.network.routers15</title>
<path fill="none" stroke="#381526" d="M490.02,-659.89C486.89,-652.55 483.51,-644.61 480.37,-637.25"/>
<polygon fill="#381526" stroke="#381526" points="486.86,-661.4 494,-669.23 493.3,-658.66 486.86,-661.4"/>
<polygon fill="#381526" stroke="#381526" points="483.44,-635.51 476.3,-627.68 477,-638.25 483.44,-635.51"/>
</g>
<!-- board.cache_hierarchy.ruby_system.l2_controllers -->
<g id="node35" class="node">
<title>board.cache_hierarchy.ruby_system.l2_controllers</title>
<path fill="#e5bcd0" stroke="#000000" d="M340.11,-682.7C340.11,-682.7 413.11,-682.7 413.11,-682.7 419.11,-682.7 425.11,-688.7 425.11,-694.7 425.11,-694.7 425.11,-706.7 425.11,-706.7 425.11,-712.7 419.11,-718.7 413.11,-718.7 413.11,-718.7 340.11,-718.7 340.11,-718.7 334.11,-718.7 328.11,-712.7 328.11,-706.7 328.11,-706.7 328.11,-694.7 328.11,-694.7 328.11,-688.7 334.11,-682.7 340.11,-682.7"/>
<text text-anchor="middle" x="376.61" y="-697" font-family="Arial" font-size="14.00" fill="#000000">l2_controllers</text>
</g>
<!-- board.cache_hierarchy.ruby_system.l2_controllers&#45;&#45;board.cache_hierarchy.ruby_system.network.routers16 -->
<g id="edge35" class="edge">
<title>board.cache_hierarchy.ruby_system.l2_controllers&#45;&#45;board.cache_hierarchy.ruby_system.network.routers16</title>
<path fill="none" stroke="#381526" d="M377.64,-672.61C377.98,-663.49 378.35,-653.37 378.68,-644.23"/>
<polygon fill="#381526" stroke="#381526" points="374.14,-672.57 377.27,-682.69 381.14,-672.83 374.14,-672.57"/>
<polygon fill="#381526" stroke="#381526" points="382.19,-644.19 379.06,-634.07 375.19,-643.93 382.19,-644.19"/>
</g>
<!-- board.cache_hierarchy.ruby_system.directory_controllers -->
<g id="node36" class="node">
<title>board.cache_hierarchy.ruby_system.directory_controllers</title>
<path fill="#e5bcd0" stroke="#000000" d="M203.61,-653.51C203.61,-653.51 317.61,-653.51 317.61,-653.51 323.61,-653.51 329.61,-659.51 329.61,-665.51 329.61,-665.51 329.61,-677.51 329.61,-677.51 329.61,-683.51 323.61,-689.51 317.61,-689.51 317.61,-689.51 203.61,-689.51 203.61,-689.51 197.61,-689.51 191.61,-683.51 191.61,-677.51 191.61,-677.51 191.61,-665.51 191.61,-665.51 191.61,-659.51 197.61,-653.51 203.61,-653.51"/>
<text text-anchor="middle" x="260.61" y="-667.81" font-family="Arial" font-size="14.00" fill="#000000">directory_controllers</text>
</g>
<!-- board.cache_hierarchy.ruby_system.directory_controllers&#45;&#45;board.cache_hierarchy.ruby_system.network.routers17 -->
<g id="edge36" class="edge">
<title>board.cache_hierarchy.ruby_system.directory_controllers&#45;&#45;board.cache_hierarchy.ruby_system.network.routers17</title>
<path fill="none" stroke="#381526" d="M272.45,-643.89C275.67,-636.36 279.16,-628.21 282.39,-620.7"/>
<polygon fill="#381526" stroke="#381526" points="269.11,-642.78 268.39,-653.35 275.55,-645.54 269.11,-642.78"/>
<polygon fill="#381526" stroke="#381526" points="285.7,-621.85 286.42,-611.28 279.26,-619.1 285.7,-621.85"/>
</g>
</g>
</svg>
